ISO-10303-21;
HEADER;
/* Generated by software containing ST-Developer
 * from STEP Tools, Inc. (www.steptools.com) 
 */
/* OPTION: using custom renumber hook */

FILE_DESCRIPTION(
/* description */ (
'CAx-IF Rec.Pracs.---Representation and Presentation of Product Manufa
cturing Information (PMI)---4.0---2014-10-13',
'CAx-IF Rec.Pracs.---3D Tessellated Geometry---0.4---2014-09-14','2;1'),

/* implementation_level */ '2;1');

FILE_NAME(
/* name */ 'OOM-E05',
/* time_stamp */ '2026-07-31T13:30:49+03:00',
/* author */ (''),
/* organization */ (''),
/* preprocessor_version */ 'ST-DEVELOPER v18.102',
/* originating_system */ 'SIEMENS PLM Software NX2206.9140',
/* authorisation */ $);

FILE_SCHEMA (('AP242_MANAGED_MODEL_BASED_3D_ENGINEERING_MIM_LF { 1 0 10303 442 3 1 4 }'));
ENDSEC;

DATA;
#10=DEFAULT_MODEL_GEOMETRIC_VIEW('','',#53,#27,'','',#452,*);
#11=MECHANICAL_DESIGN_AND_DRAUGHTING_RELATIONSHIP('','',#19,#20);
#12=MECHANICAL_DESIGN_AND_DRAUGHTING_RELATIONSHIP('','',#21,#20);
#13=MECHANICAL_DESIGN_AND_DRAUGHTING_RELATIONSHIP('','',#22,#20);
#14=MECHANICAL_DESIGN_AND_DRAUGHTING_RELATIONSHIP('','',#23,#20);
#15=MECHANICAL_DESIGN_AND_DRAUGHTING_RELATIONSHIP('','',#24,#20);
#16=MECHANICAL_DESIGN_AND_DRAUGHTING_RELATIONSHIP('','',#25,#20);
#17=MECHANICAL_DESIGN_AND_DRAUGHTING_RELATIONSHIP('','',#26,#20);
#18=MECHANICAL_DESIGN_AND_DRAUGHTING_RELATIONSHIP('','',#27,#20);
#19=DRAUGHTING_MODEL('Top',(#46,#37),#447);
#20=DRAUGHTING_MODEL('',(#38),#447);
#21=DRAUGHTING_MODEL('Front',(#47,#39),#447);
#22=DRAUGHTING_MODEL('Right',(#48,#40),#447);
#23=DRAUGHTING_MODEL('Back',(#49,#41),#447);
#24=DRAUGHTING_MODEL('Bottom',(#50,#42),#447);
#25=DRAUGHTING_MODEL('Left',(#51,#43),#447);
#26=DRAUGHTING_MODEL('Isometric',(#52,#44),#447);
#27=DRAUGHTING_MODEL('Trimetric',(#53,#45),#447);
#28=REPRESENTATION_MAP(#240,#71);
#29=REPRESENTATION_MAP(#240,#71);
#30=REPRESENTATION_MAP(#240,#71);
#31=REPRESENTATION_MAP(#240,#71);
#32=REPRESENTATION_MAP(#240,#71);
#33=REPRESENTATION_MAP(#240,#71);
#34=REPRESENTATION_MAP(#240,#71);
#35=REPRESENTATION_MAP(#240,#71);
#36=REPRESENTATION_MAP(#240,#71);
#37=MAPPED_ITEM('',#28,#240);
#38=MAPPED_ITEM('',#29,#240);
#39=MAPPED_ITEM('',#30,#240);
#40=MAPPED_ITEM('',#31,#240);
#41=MAPPED_ITEM('',#32,#240);
#42=MAPPED_ITEM('',#33,#240);
#43=MAPPED_ITEM('',#34,#240);
#44=MAPPED_ITEM('',#35,#240);
#45=MAPPED_ITEM('',#36,#240);
#46=CAMERA_MODEL_D3('Top',#270,#54);
#47=CAMERA_MODEL_D3('Front',#272,#55);
#48=CAMERA_MODEL_D3('Right',#274,#56);
#49=CAMERA_MODEL_D3('Back',#276,#57);
#50=CAMERA_MODEL_D3('Bottom',#278,#58);
#51=CAMERA_MODEL_D3('Left',#280,#59);
#52=CAMERA_MODEL_D3('Isometric',#282,#60);
#53=CAMERA_MODEL_D3('Trimetric',#284,#61);
#54=VIEW_VOLUME(.PARALLEL.,#423,25.6229381561279,0.,.F.,0.,.F.,.F.,#62);
#55=VIEW_VOLUME(.PARALLEL.,#426,27.2293930053711,0.,.F.,0.,.F.,.F.,#63);
#56=VIEW_VOLUME(.PARALLEL.,#429,27.2293930053711,0.,.F.,0.,.F.,.F.,#64);
#57=VIEW_VOLUME(.PARALLEL.,#432,27.2293930053711,0.,.F.,0.,.F.,.F.,#65);
#58=VIEW_VOLUME(.PARALLEL.,#435,25.6229381561279,0.,.F.,0.,.F.,.F.,#66);
#59=VIEW_VOLUME(.PARALLEL.,#438,27.2293930053711,0.,.F.,0.,.F.,.F.,#67);
#60=VIEW_VOLUME(.PARALLEL.,#441,43.1537468264671,0.,.F.,0.,.F.,.F.,#68);
#61=VIEW_VOLUME(.PARALLEL.,#444,38.7704225287061,0.,.F.,0.,.F.,.F.,#69);
#62=PLANAR_BOX('',12.7770319687716,12.7770319687716,#271);
#63=PLANAR_BOX('',13.5781003255736,13.5781003255736,#273);
#64=PLANAR_BOX('',13.5781003255736,13.5781003255736,#275);
#65=PLANAR_BOX('',13.5781003255736,13.5781003255736,#277);
#66=PLANAR_BOX('',12.7770319687716,12.7770319687716,#279);
#67=PLANAR_BOX('',13.5781003255736,13.5781003255736,#281);
#68=PLANAR_BOX('',21.5188749789095,21.5188749789095,#283);
#69=PLANAR_BOX('',19.333103997427,19.333103997427,#285);
#70=SHAPE_REPRESENTATION_RELATIONSHIP('','',#239,#71);
#71=ADVANCED_BREP_SHAPE_REPRESENTATION('',(#237),#447);
#72=TOROIDAL_SURFACE('',#259,5.45,0.35);
#73=TOROIDAL_SURFACE('',#267,7.625,0.35);
#74=CYLINDRICAL_SURFACE('',#244,6.9);
#75=CYLINDRICAL_SURFACE('',#248,0.75);
#76=CYLINDRICAL_SURFACE('',#254,1.);
#77=CYLINDRICAL_SURFACE('',#256,5.1);
#78=CYLINDRICAL_SURFACE('',#261,6.4);
#79=CYLINDRICAL_SURFACE('',#269,7.975);
#80=ORIENTED_EDGE('',*,*,#108,.F.);
#81=ORIENTED_EDGE('',*,*,#109,.T.);
#82=ORIENTED_EDGE('',*,*,#110,.T.);
#83=ORIENTED_EDGE('',*,*,#108,.T.);
#84=ORIENTED_EDGE('',*,*,#111,.F.);
#85=ORIENTED_EDGE('',*,*,#112,.F.);
#86=ORIENTED_EDGE('',*,*,#111,.T.);
#87=ORIENTED_EDGE('',*,*,#112,.T.);
#88=ORIENTED_EDGE('',*,*,#113,.F.);
#89=ORIENTED_EDGE('',*,*,#114,.T.);
#90=ORIENTED_EDGE('',*,*,#115,.F.);
#91=ORIENTED_EDGE('',*,*,#113,.T.);
#92=ORIENTED_EDGE('',*,*,#116,.T.);
#93=ORIENTED_EDGE('',*,*,#114,.F.);
#94=ORIENTED_EDGE('',*,*,#115,.T.);
#95=ORIENTED_EDGE('',*,*,#110,.F.);
#96=ORIENTED_EDGE('',*,*,#116,.F.);
#97=ORIENTED_EDGE('',*,*,#117,.T.);
#98=ORIENTED_EDGE('',*,*,#109,.F.);
#99=ORIENTED_EDGE('',*,*,#118,.F.);
#100=ORIENTED_EDGE('',*,*,#117,.F.);
#101=ORIENTED_EDGE('',*,*,#119,.T.);
#102=ORIENTED_EDGE('',*,*,#118,.T.);
#103=ORIENTED_EDGE('',*,*,#120,.F.);
#104=ORIENTED_EDGE('',*,*,#119,.F.);
#105=ORIENTED_EDGE('',*,*,#121,.T.);
#106=ORIENTED_EDGE('',*,*,#120,.T.);
#107=ORIENTED_EDGE('',*,*,#121,.F.);
#108=EDGE_CURVE('',#122,#122,#136,.F.);
#109=EDGE_CURVE('',#123,#123,#137,.F.);
#110=EDGE_CURVE('',#124,#124,#138,.T.);
#111=EDGE_CURVE('',#125,#125,#139,.T.);
#112=EDGE_CURVE('',#126,#126,#140,.T.);
#113=EDGE_CURVE('',#127,#127,#141,.T.);
#114=EDGE_CURVE('',#128,#128,#142,.T.);
#115=EDGE_CURVE('',#129,#129,#143,.T.);
#116=EDGE_CURVE('',#130,#130,#144,.T.);
#117=EDGE_CURVE('',#131,#131,#145,.T.);
#118=EDGE_CURVE('',#132,#132,#146,.T.);
#119=EDGE_CURVE('',#133,#133,#147,.T.);
#120=EDGE_CURVE('',#134,#134,#148,.T.);
#121=EDGE_CURVE('',#135,#135,#149,.T.);
#122=VERTEX_POINT('',#381);
#123=VERTEX_POINT('',#383);
#124=VERTEX_POINT('',#386);
#125=VERTEX_POINT('',#389);
#126=VERTEX_POINT('',#392);
#127=VERTEX_POINT('',#395);
#128=VERTEX_POINT('',#398);
#129=VERTEX_POINT('',#401);
#130=VERTEX_POINT('',#404);
#131=VERTEX_POINT('',#408);
#132=VERTEX_POINT('',#411);
#133=VERTEX_POINT('',#414);
#134=VERTEX_POINT('',#417);
#135=VERTEX_POINT('',#420);
#136=CIRCLE('',#242,6.9);
#137=CIRCLE('',#243,6.4);
#138=CIRCLE('',#245,6.9);
#139=CIRCLE('',#247,0.75);
#140=CIRCLE('',#249,0.75);
#141=CIRCLE('',#251,1.);
#142=CIRCLE('',#253,5.1);
#143=CIRCLE('',#255,1.);
#144=CIRCLE('',#257,5.1);
#145=CIRCLE('',#260,5.45);
#146=CIRCLE('',#262,6.4);
#147=CIRCLE('',#264,7.625);
#148=CIRCLE('',#266,7.975);
#149=CIRCLE('',#268,7.975);
#150=EDGE_LOOP('',(#80));
#151=EDGE_LOOP('',(#81));
#152=EDGE_LOOP('',(#82));
#153=EDGE_LOOP('',(#83));
#154=EDGE_LOOP('',(#84));
#155=EDGE_LOOP('',(#85));
#156=EDGE_LOOP('',(#86));
#157=EDGE_LOOP('',(#87));
#158=EDGE_LOOP('',(#88));
#159=EDGE_LOOP('',(#89));
#160=EDGE_LOOP('',(#90));
#161=EDGE_LOOP('',(#91));
#162=EDGE_LOOP('',(#92));
#163=EDGE_LOOP('',(#93));
#164=EDGE_LOOP('',(#94));
#165=EDGE_LOOP('',(#95));
#166=EDGE_LOOP('',(#96));
#167=EDGE_LOOP('',(#97));
#168=EDGE_LOOP('',(#98));
#169=EDGE_LOOP('',(#99));
#170=EDGE_LOOP('',(#100));
#171=EDGE_LOOP('',(#101));
#172=EDGE_LOOP('',(#102));
#173=EDGE_LOOP('',(#103));
#174=EDGE_LOOP('',(#104));
#175=EDGE_LOOP('',(#105));
#176=EDGE_LOOP('',(#106));
#177=EDGE_LOOP('',(#107));
#178=FACE_BOUND('',#150,.T.);
#179=FACE_BOUND('',#151,.T.);
#180=FACE_BOUND('',#152,.T.);
#181=FACE_BOUND('',#153,.T.);
#182=FACE_BOUND('',#154,.T.);
#183=FACE_BOUND('',#155,.T.);
#184=FACE_BOUND('',#156,.T.);
#185=FACE_BOUND('',#157,.T.);
#186=FACE_BOUND('',#158,.T.);
#187=FACE_BOUND('',#159,.T.);
#188=FACE_BOUND('',#160,.T.);
#189=FACE_BOUND('',#161,.T.);
#190=FACE_BOUND('',#162,.T.);
#191=FACE_BOUND('',#163,.T.);
#192=FACE_BOUND('',#164,.T.);
#193=FACE_BOUND('',#165,.T.);
#194=FACE_BOUND('',#166,.T.);
#195=FACE_BOUND('',#167,.T.);
#196=FACE_BOUND('',#168,.T.);
#197=FACE_BOUND('',#169,.T.);
#198=FACE_BOUND('',#170,.T.);
#199=FACE_BOUND('',#171,.T.);
#200=FACE_BOUND('',#172,.T.);
#201=FACE_BOUND('',#173,.T.);
#202=FACE_BOUND('',#174,.T.);
#203=FACE_BOUND('',#175,.T.);
#204=FACE_BOUND('',#176,.T.);
#205=FACE_BOUND('',#177,.T.);
#206=PLANE('',#241);
#207=PLANE('',#246);
#208=PLANE('',#250);
#209=PLANE('',#252);
#210=PLANE('',#258);
#211=PLANE('',#263);
#212=PLANE('',#265);
#213=ADVANCED_FACE('',(#178,#179),#206,.T.);
#214=ADVANCED_FACE('',(#180,#181),#74,.T.);
#215=ADVANCED_FACE('',(#182),#207,.F.);
#216=ADVANCED_FACE('',(#183,#184),#75,.T.);
#217=ADVANCED_FACE('',(#185,#186),#208,.F.);
#218=ADVANCED_FACE('',(#187),#209,.T.);
#219=ADVANCED_FACE('',(#188,#189),#76,.T.);
#220=ADVANCED_FACE('',(#190,#191),#77,.F.);
#221=ADVANCED_FACE('',(#192,#193),#210,.F.);
#222=ADVANCED_FACE('',(#194,#195),#72,.T.);
#223=ADVANCED_FACE('',(#196,#197),#78,.T.);
#224=ADVANCED_FACE('',(#198,#199),#211,.T.);
#225=ADVANCED_FACE('',(#200,#201),#212,.F.);
#226=ADVANCED_FACE('',(#202,#203),#73,.T.);
#227=ADVANCED_FACE('',(#204,#205),#79,.T.);
#228=CLOSED_SHELL('',(#213,#214,#215,#216,#217,#218,#219,#220,#221,#222,
#223,#224,#225,#226,#227));
#229=STYLED_ITEM('',(#230),#237);
#230=PRESENTATION_STYLE_ASSIGNMENT((#231));
#231=SURFACE_STYLE_USAGE(.BOTH.,#232);
#232=SURFACE_SIDE_STYLE('',(#233));
#233=SURFACE_STYLE_FILL_AREA(#234);
#234=FILL_AREA_STYLE('',(#235));
#235=FILL_AREA_STYLE_COLOUR('',#236);
#236=COLOUR_RGB('',0.611764705882353,0.658823529411765,0.670588235294118);
#237=MANIFOLD_SOLID_BREP('Body (0)',#228);
#238=SHAPE_DEFINITION_REPRESENTATION(#452,#239);
#239=SHAPE_REPRESENTATION('OOM-E05',(#240),#447);
#240=AXIS2_PLACEMENT_3D('',#378,#286,#287);
#241=AXIS2_PLACEMENT_3D('',#379,#288,#289);
#242=AXIS2_PLACEMENT_3D('',#380,#290,#291);
#243=AXIS2_PLACEMENT_3D('',#382,#292,#293);
#244=AXIS2_PLACEMENT_3D('',#384,#294,#295);
#245=AXIS2_PLACEMENT_3D('',#385,#296,#297);
#246=AXIS2_PLACEMENT_3D('',#387,#298,#299);
#247=AXIS2_PLACEMENT_3D('',#388,#300,#301);
#248=AXIS2_PLACEMENT_3D('',#390,#302,#303);
#249=AXIS2_PLACEMENT_3D('',#391,#304,#305);
#250=AXIS2_PLACEMENT_3D('',#393,#306,#307);
#251=AXIS2_PLACEMENT_3D('',#394,#308,#309);
#252=AXIS2_PLACEMENT_3D('',#396,#310,#311);
#253=AXIS2_PLACEMENT_3D('',#397,#312,#313);
#254=AXIS2_PLACEMENT_3D('',#399,#314,#315);
#255=AXIS2_PLACEMENT_3D('',#400,#316,#317);
#256=AXIS2_PLACEMENT_3D('',#402,#318,#319);
#257=AXIS2_PLACEMENT_3D('',#403,#320,#321);
#258=AXIS2_PLACEMENT_3D('',#405,#322,#323);
#259=AXIS2_PLACEMENT_3D('',#406,#324,#325);
#260=AXIS2_PLACEMENT_3D('',#407,#326,#327);
#261=AXIS2_PLACEMENT_3D('',#409,#328,#329);
#262=AXIS2_PLACEMENT_3D('',#410,#330,#331);
#263=AXIS2_PLACEMENT_3D('',#412,#332,#333);
#264=AXIS2_PLACEMENT_3D('',#413,#334,#335);
#265=AXIS2_PLACEMENT_3D('',#415,#336,#337);
#266=AXIS2_PLACEMENT_3D('',#416,#338,#339);
#267=AXIS2_PLACEMENT_3D('',#418,#340,#341);
#268=AXIS2_PLACEMENT_3D('',#419,#342,#343);
#269=AXIS2_PLACEMENT_3D('',#421,#344,#345);
#270=AXIS2_PLACEMENT_3D('',#422,#346,#347);
#271=AXIS2_PLACEMENT_3D('',#424,#348,#349);
#272=AXIS2_PLACEMENT_3D('',#425,#350,#351);
#273=AXIS2_PLACEMENT_3D('',#427,#352,#353);
#274=AXIS2_PLACEMENT_3D('',#428,#354,#355);
#275=AXIS2_PLACEMENT_3D('',#430,#356,#357);
#276=AXIS2_PLACEMENT_3D('',#431,#358,#359);
#277=AXIS2_PLACEMENT_3D('',#433,#360,#361);
#278=AXIS2_PLACEMENT_3D('',#434,#362,#363);
#279=AXIS2_PLACEMENT_3D('',#436,#364,#365);
#280=AXIS2_PLACEMENT_3D('',#437,#366,#367);
#281=AXIS2_PLACEMENT_3D('',#439,#368,#369);
#282=AXIS2_PLACEMENT_3D('',#440,#370,#371);
#283=AXIS2_PLACEMENT_3D('',#442,#372,#373);
#284=AXIS2_PLACEMENT_3D('',#443,#374,#375);
#285=AXIS2_PLACEMENT_3D('',#445,#376,#377);
#286=DIRECTION('',(0.,0.,1.));
#287=DIRECTION('',(1.,0.,0.));
#288=DIRECTION('',(0.,0.,1.));
#289=DIRECTION('',(1.,0.,0.));
#290=DIRECTION('',(0.,0.,1.));
#291=DIRECTION('',(1.,0.,0.));
#292=DIRECTION('',(0.,0.,1.));
#293=DIRECTION('',(1.,0.,0.));
#294=DIRECTION('',(0.,0.,-1.));
#295=DIRECTION('',(1.,0.,0.));
#296=DIRECTION('',(0.,0.,1.));
#297=DIRECTION('',(1.,0.,0.));
#298=DIRECTION('',(0.,0.,1.));
#299=DIRECTION('',(1.,0.,0.));
#300=DIRECTION('',(0.,0.,1.));
#301=DIRECTION('',(1.,0.,0.));
#302=DIRECTION('',(0.,0.,1.));
#303=DIRECTION('',(1.,0.,0.));
#304=DIRECTION('',(0.,0.,1.));
#305=DIRECTION('',(1.,0.,0.));
#306=DIRECTION('',(0.,0.,1.));
#307=DIRECTION('',(1.,0.,0.));
#308=DIRECTION('',(0.,0.,1.));
#309=DIRECTION('',(1.,0.,0.));
#310=DIRECTION('',(0.,0.,1.));
#311=DIRECTION('',(1.,0.,0.));
#312=DIRECTION('',(0.,0.,1.));
#313=DIRECTION('',(1.,0.,0.));
#314=DIRECTION('',(0.,0.,1.));
#315=DIRECTION('',(1.,0.,0.));
#316=DIRECTION('',(0.,0.,1.));
#317=DIRECTION('',(1.,0.,0.));
#318=DIRECTION('',(0.,0.,1.));
#319=DIRECTION('',(1.,0.,0.));
#320=DIRECTION('',(0.,0.,1.));
#321=DIRECTION('',(1.,0.,0.));
#322=DIRECTION('',(0.,0.,1.));
#323=DIRECTION('',(1.,0.,0.));
#324=DIRECTION('',(0.,0.,1.));
#325=DIRECTION('',(1.,0.,0.));
#326=DIRECTION('',(0.,0.,1.));
#327=DIRECTION('',(1.,0.,0.));
#328=DIRECTION('',(0.,0.,-1.));
#329=DIRECTION('',(1.,0.,0.));
#330=DIRECTION('',(0.,0.,1.));
#331=DIRECTION('',(1.,0.,0.));
#332=DIRECTION('',(0.,0.,1.));
#333=DIRECTION('',(1.,0.,0.));
#334=DIRECTION('',(0.,0.,1.));
#335=DIRECTION('',(1.,0.,0.));
#336=DIRECTION('',(0.,0.,1.));
#337=DIRECTION('',(1.,0.,0.));
#338=DIRECTION('',(0.,0.,1.));
#339=DIRECTION('',(1.,0.,0.));
#340=DIRECTION('',(0.,0.,1.));
#341=DIRECTION('',(1.,0.,0.));
#342=DIRECTION('',(0.,0.,1.));
#343=DIRECTION('',(1.,0.,0.));
#344=DIRECTION('',(0.,0.,-1.));
#345=DIRECTION('',(1.,0.,0.));
#346=DIRECTION('',(0.,0.,-1.));
#347=DIRECTION('',(-1.,0.,0.));
#348=DIRECTION('',(0.,0.,1.));
#349=DIRECTION('',(1.,0.,0.));
#350=DIRECTION('',(0.,1.,0.));
#351=DIRECTION('',(-1.,0.,0.));
#352=DIRECTION('',(0.,0.,1.));
#353=DIRECTION('',(1.,0.,0.));
#354=DIRECTION('',(-1.,0.,0.));
#355=DIRECTION('',(0.,-1.,0.));
#356=DIRECTION('',(0.,0.,1.));
#357=DIRECTION('',(1.,0.,0.));
#358=DIRECTION('',(0.,-1.,0.));
#359=DIRECTION('',(1.,0.,0.));
#360=DIRECTION('',(0.,0.,1.));
#361=DIRECTION('',(1.,0.,0.));
#362=DIRECTION('',(0.,0.,1.));
#363=DIRECTION('',(-1.,0.,0.));
#364=DIRECTION('',(0.,0.,1.));
#365=DIRECTION('',(1.,0.,0.));
#366=DIRECTION('',(1.,0.,0.));
#367=DIRECTION('',(0.,1.,0.));
#368=DIRECTION('',(0.,0.,1.));
#369=DIRECTION('',(1.,0.,0.));
#370=DIRECTION('',(-0.577350269189626,0.577350269189626,-0.577350269189626));
#371=DIRECTION('',(-0.707106781186547,-0.707106781186547,2.4980018054066E-16));
#372=DIRECTION('',(0.,0.,1.));
#373=DIRECTION('',(1.,0.,0.));
#374=DIRECTION('',(-0.718873086818576,0.585048618558824,-0.375419230954334));
#375=DIRECTION('',(-0.631219055699974,-0.775604605273352,-3.15202023648542E-8));
#376=DIRECTION('',(0.,0.,1.));
#377=DIRECTION('',(1.,0.,0.));
#378=CARTESIAN_POINT('',(0.,0.,0.));
#379=CARTESIAN_POINT('',(0.,0.,-7.29));
#380=CARTESIAN_POINT('',(0.,0.,-7.29));
#381=CARTESIAN_POINT('',(6.9,0.,-7.29));
#382=CARTESIAN_POINT('',(0.,0.,-7.29));
#383=CARTESIAN_POINT('',(6.4,0.,-7.29));
#384=CARTESIAN_POINT('',(0.,0.,-6.26));
#385=CARTESIAN_POINT('',(0.,0.,-12.19));
#386=CARTESIAN_POINT('',(6.9,0.,-12.19));
#387=CARTESIAN_POINT('',(-0.682572921898,2.028224397421,-16.29));
#388=CARTESIAN_POINT('',(-0.682572921898,2.028224397421,-16.29));
#389=CARTESIAN_POINT('',(0.067427078102,2.028224397421,-16.29));
#390=CARTESIAN_POINT('',(-0.682572921898,2.028224397421,-16.29));
#391=CARTESIAN_POINT('',(-0.682572921898,2.028224397421,-13.29));
#392=CARTESIAN_POINT('',(0.067427078102,2.028224397421,-13.29));
#393=CARTESIAN_POINT('',(-0.682572921898,2.028224397421,-13.29));
#394=CARTESIAN_POINT('',(-0.682572921898,2.028224397421,-13.29));
#395=CARTESIAN_POINT('',(0.317427078102,2.028224397421,-13.29));
#396=CARTESIAN_POINT('',(0.,0.,0.06));
#397=CARTESIAN_POINT('',(0.,0.,0.06));
#398=CARTESIAN_POINT('',(5.1,0.,0.06));
#399=CARTESIAN_POINT('',(-0.682572921898,2.028224397421,-13.29));
#400=CARTESIAN_POINT('',(-0.682572921898,2.028224397421,-12.19));
#401=CARTESIAN_POINT('',(0.317427078102,2.028224397421,-12.19));
#402=CARTESIAN_POINT('',(0.,0.,0.06));
#403=CARTESIAN_POINT('',(0.,0.,0.31));
#404=CARTESIAN_POINT('',(5.1,0.,0.31));
#405=CARTESIAN_POINT('',(0.,0.,-12.19));
#406=CARTESIAN_POINT('',(0.,0.,0.31));
#407=CARTESIAN_POINT('',(0.,0.,0.66));
#408=CARTESIAN_POINT('',(5.45,0.,0.66));
#409=CARTESIAN_POINT('',(0.,0.,-6.26));
#410=CARTESIAN_POINT('',(0.,0.,-6.75));
#411=CARTESIAN_POINT('',(6.4,0.,-6.75));
#412=CARTESIAN_POINT('',(0.,0.,0.66));
#413=CARTESIAN_POINT('',(0.,0.,0.66));
#414=CARTESIAN_POINT('',(7.625,0.,0.66));
#415=CARTESIAN_POINT('',(0.,0.,-6.75));
#416=CARTESIAN_POINT('',(0.,0.,-6.75));
#417=CARTESIAN_POINT('',(7.975,0.,-6.75));
#418=CARTESIAN_POINT('',(0.,0.,0.31));
#419=CARTESIAN_POINT('',(0.,0.,0.31));
#420=CARTESIAN_POINT('',(7.975,0.,0.31));
#421=CARTESIAN_POINT('',(0.,0.,0.));
#422=CARTESIAN_POINT('',(0.,0.,25.6229381561279));
#423=CARTESIAN_POINT('',(0.,0.,0.));
#424=CARTESIAN_POINT('',(-6.3885159843858,-6.3885159843858,25.6229381561279));
#425=CARTESIAN_POINT('',(0.,-27.2293930053711,-7.81500005722046));
#426=CARTESIAN_POINT('',(0.,0.,0.));
#427=CARTESIAN_POINT('',(-6.78905016278679,-6.78905016278679,27.2293930053711));
#428=CARTESIAN_POINT('',(27.2293930053711,0.,-7.81500005722046));
#429=CARTESIAN_POINT('',(0.,0.,0.));
#430=CARTESIAN_POINT('',(-6.78905016278679,-6.78905016278679,27.2293930053711));
#431=CARTESIAN_POINT('',(0.,27.2293930053711,-7.81500005722046));
#432=CARTESIAN_POINT('',(0.,0.,0.));
#433=CARTESIAN_POINT('',(-6.78905016278679,-6.78905016278679,27.2293930053711));
#434=CARTESIAN_POINT('',(0.,0.,-25.6229381561279));
#435=CARTESIAN_POINT('',(0.,0.,0.));
#436=CARTESIAN_POINT('',(-6.3885159843858,-6.3885159843858,25.6229381561279));
#437=CARTESIAN_POINT('',(-27.2293930053711,0.,-7.81500005722046));
#438=CARTESIAN_POINT('',(0.,0.,0.));
#439=CARTESIAN_POINT('',(-6.78905016278679,-6.78905016278679,27.2293930053711));
#440=CARTESIAN_POINT('',(27.5198273658753,-27.5198273658753,19.7048273086548));
#441=CARTESIAN_POINT('',(0.,0.,0.));
#442=CARTESIAN_POINT('',(-10.7594374894548,-10.7594374894548,43.1537468264671));
#443=CARTESIAN_POINT('',(29.9801160464541,-24.3990570320703,7.84160496615424));
#444=CARTESIAN_POINT('',(0.,0.,0.));
#445=CARTESIAN_POINT('',(-9.66655199871348,-9.66655199871348,38.7704225287061));
#446=MECHANICAL_DESIGN_GEOMETRIC_PRESENTATION_REPRESENTATION('',(#229),
#447);
#447=(
GEOMETRIC_REPRESENTATION_CONTEXT(3)
GLOBAL_UNCERTAINTY_ASSIGNED_CONTEXT((#448))
GLOBAL_UNIT_ASSIGNED_CONTEXT((#451,#450,#449))
REPRESENTATION_CONTEXT('OOM-E05','TOP_LEVEL_ASSEMBLY_PART')
);
#448=UNCERTAINTY_MEASURE_WITH_UNIT(LENGTH_MEASURE(0.005),#451,
'DISTANCE_ACCURACY_VALUE','Maximum Tolerance applied to model');
#449=(
NAMED_UNIT(*)
SI_UNIT($,.STERADIAN.)
SOLID_ANGLE_UNIT()
);
#450=(
NAMED_UNIT(*)
PLANE_ANGLE_UNIT()
SI_UNIT($,.RADIAN.)
);
#451=(
LENGTH_UNIT()
NAMED_UNIT(*)
SI_UNIT(.MILLI.,.METRE.)
);
#452=PRODUCT_DEFINITION_SHAPE('','',#453);
#453=PRODUCT_DEFINITION('','',#455,#454);
#454=PRODUCT_DEFINITION_CONTEXT('',#461,'design');
#455=PRODUCT_DEFINITION_FORMATION_WITH_SPECIFIED_SOURCE('','',#457,
 .NOT_KNOWN.);
#456=PRODUCT_RELATED_PRODUCT_CATEGORY('','',(#457));
#457=PRODUCT('OOM-E05','OOM-E05','OOM-E05',(#459));
#458=PRODUCT_CATEGORY('','');
#459=PRODUCT_CONTEXT('',#461,'mechanical');
#460=APPLICATION_PROTOCOL_DEFINITION('international standard',
'ap242_managed_model_based_3d_engineering',2020,#461);
#461=APPLICATION_CONTEXT('managed model based 3d engineering');
ENDSEC;
END-ISO-10303-21;
