ISO-10303-21;
HEADER;
/* Generated by software containing ST-Developer
 * from STEP Tools, Inc. (www.steptools.com) 
 */
/* OPTION: using custom renumber hook */

FILE_DESCRIPTION(
/* description */ (
'CAx-IF Rec.Pracs.---Representation and Presentation of Product Manufa
cturing Information (PMI)---4.0---2014-10-13',
'CAx-IF Rec.Pracs.---3D Tessellated Geometry---0.4---2014-09-14','2;1'),

/* implementation_level */ '2;1');

FILE_NAME(
/* name */ 'OOM-W01-02',
/* time_stamp */ '2026-08-15T23:45:05+03:00',
/* author */ (''),
/* organization */ (''),
/* preprocessor_version */ 'ST-DEVELOPER v18.102',
/* originating_system */ 'SIEMENS PLM Software NX2206.9140',
/* authorisation */ $);

FILE_SCHEMA (('AP242_MANAGED_MODEL_BASED_3D_ENGINEERING_MIM_LF { 1 0 10303 442 3 1 4 }'));
ENDSEC;

DATA;
#10=CONSTRUCTIVE_GEOMETRY_REPRESENTATION_RELATIONSHIP(
'supplemental geometry','',#1012,#11);
#11=CONSTRUCTIVE_GEOMETRY_REPRESENTATION('supplemental geometry',(#1098),
#1728);
#12=SHAPE_REPRESENTATION_RELATIONSHIP('','',#1012,#13);
#13=ADVANCED_BREP_SHAPE_REPRESENTATION('',(#1010),#1728);
#14=ELLIPSE('',#1069,0.311480299765,0.3);
#15=ELLIPSE('',#1070,0.311480299765,0.3);
#16=ELLIPSE('',#1072,0.311480299765,0.3);
#17=ELLIPSE('',#1076,0.311480299765,0.3);
#18=ELLIPSE('',#1077,0.311480299765,0.3);
#19=ELLIPSE('',#1079,0.311480299765,0.3);
#20=ELLIPSE('',#1083,0.311480299765,0.3);
#21=ELLIPSE('',#1084,0.311480299765,0.3);
#22=ELLIPSE('',#1087,0.311480299765,0.3);
#23=ELLIPSE('',#1088,0.311480299765,0.3);
#24=ELLIPSE('',#1091,0.311480299765,0.3);
#25=ELLIPSE('',#1093,0.311480299765,0.3);
#26=ELLIPSE('',#1095,0.311480299765,0.3);
#27=CYLINDRICAL_SURFACE('',#1036,1.55);
#28=CYLINDRICAL_SURFACE('',#1039,1.55);
#29=CYLINDRICAL_SURFACE('',#1046,0.839);
#30=CYLINDRICAL_SURFACE('',#1048,0.839);
#31=CYLINDRICAL_SURFACE('',#1050,0.3);
#32=CYLINDRICAL_SURFACE('',#1056,0.839);
#33=CYLINDRICAL_SURFACE('',#1058,0.839);
#34=CYLINDRICAL_SURFACE('',#1061,0.45);
#35=CYLINDRICAL_SURFACE('',#1062,0.45);
#36=CYLINDRICAL_SURFACE('',#1064,0.45);
#37=CYLINDRICAL_SURFACE('',#1065,0.45);
#38=CYLINDRICAL_SURFACE('',#1068,0.3);
#39=CYLINDRICAL_SURFACE('',#1071,0.3);
#40=CYLINDRICAL_SURFACE('',#1075,0.3);
#41=CYLINDRICAL_SURFACE('',#1078,0.3);
#42=CYLINDRICAL_SURFACE('',#1082,0.3);
#43=CYLINDRICAL_SURFACE('',#1086,0.3);
#44=CYLINDRICAL_SURFACE('',#1092,0.3);
#45=CYLINDRICAL_SURFACE('',#1094,0.3);
#46=B_SPLINE_SURFACE_WITH_KNOTS('',1,1,((#1505,#1506),(#1507,#1508)),
 .RULED_SURF.,.F.,.F.,.F.,(2,2),(2,2),(-1.425,1.425),(0.,1.),
 .UNSPECIFIED.);
#47=B_SPLINE_SURFACE_WITH_KNOTS('',1,1,((#1513,#1514),(#1515,#1516)),
 .RULED_SURF.,.F.,.F.,.F.,(2,2),(2,2),(-0.9,0.9),(0.,1.),.UNSPECIFIED.);
#48=B_SPLINE_SURFACE_WITH_KNOTS('',1,1,((#1519,#1520),(#1521,#1522)),
 .RULED_SURF.,.F.,.F.,.F.,(2,2),(2,2),(-1.425,1.425),(0.,1.),
 .UNSPECIFIED.);
#49=B_SPLINE_SURFACE_WITH_KNOTS('',1,1,((#1525,#1526),(#1527,#1528)),
 .RULED_SURF.,.F.,.F.,.F.,(2,2),(2,2),(-0.9,0.9),(0.,1.),.UNSPECIFIED.);
#50=B_SPLINE_SURFACE_WITH_KNOTS('',1,1,((#1529,#1530),(#1531,#1532)),
 .RULED_SURF.,.F.,.F.,.F.,(2,2),(2,2),(-0.9,0.9),(0.,1.),.UNSPECIFIED.);
#51=B_SPLINE_SURFACE_WITH_KNOTS('',1,1,((#1537,#1538),(#1539,#1540)),
 .RULED_SURF.,.F.,.F.,.F.,(2,2),(2,2),(-1.425,1.425),(0.,1.),
 .UNSPECIFIED.);
#52=B_SPLINE_SURFACE_WITH_KNOTS('',1,1,((#1543,#1544),(#1545,#1546)),
 .RULED_SURF.,.F.,.F.,.F.,(2,2),(2,2),(-1.425,1.425),(0.,1.),
 .UNSPECIFIED.);
#53=B_SPLINE_SURFACE_WITH_KNOTS('',1,1,((#1549,#1550),(#1551,#1552)),
 .RULED_SURF.,.F.,.F.,.F.,(2,2),(2,2),(-0.9,0.9),(0.,1.),.UNSPECIFIED.);
#54=B_SPLINE_SURFACE_WITH_KNOTS('',1,1,((#1553,#1554),(#1555,#1556)),
 .RULED_SURF.,.F.,.F.,.F.,(2,2),(2,2),(-0.9,0.9),(0.,1.),.UNSPECIFIED.);
#55=B_SPLINE_SURFACE_WITH_KNOTS('',1,1,((#1561,#1562),(#1563,#1564)),
 .RULED_SURF.,.F.,.F.,.F.,(2,2),(2,2),(-1.425,1.425),(0.,1.),
 .UNSPECIFIED.);
#56=B_SPLINE_SURFACE_WITH_KNOTS('',1,1,((#1567,#1568),(#1569,#1570)),
 .RULED_SURF.,.F.,.F.,.F.,(2,2),(2,2),(-1.425,1.425),(0.,1.),
 .UNSPECIFIED.);
#57=B_SPLINE_SURFACE_WITH_KNOTS('',1,1,((#1573,#1574),(#1575,#1576)),
 .RULED_SURF.,.F.,.F.,.F.,(2,2),(2,2),(-0.9,0.9),(0.,1.),.UNSPECIFIED.);
#58=B_SPLINE_CURVE_WITH_KNOTS('',3,(#1405,#1406,#1407,#1408),
 .UNSPECIFIED.,.F.,.F.,(4,4),(0.,0.002741025),.UNSPECIFIED.);
#59=B_SPLINE_CURVE_WITH_KNOTS('',3,(#1411,#1412,#1413,#1414),
 .UNSPECIFIED.,.F.,.F.,(4,4),(0.,0.00172735),.UNSPECIFIED.);
#60=B_SPLINE_CURVE_WITH_KNOTS('',3,(#1416,#1417,#1418,#1419),
 .UNSPECIFIED.,.F.,.F.,(4,4),(0.,0.002741025),.UNSPECIFIED.);
#61=B_SPLINE_CURVE_WITH_KNOTS('',3,(#1421,#1422,#1423,#1424),
 .UNSPECIFIED.,.F.,.F.,(4,4),(0.,0.00172735),.UNSPECIFIED.);
#62=B_SPLINE_CURVE_WITH_KNOTS('',3,(#1425,#1426,#1427,#1428),
 .UNSPECIFIED.,.F.,.F.,(4,4),(0.,0.002741025),.UNSPECIFIED.);
#63=B_SPLINE_CURVE_WITH_KNOTS('',3,(#1431,#1432,#1433,#1434),
 .UNSPECIFIED.,.F.,.F.,(4,4),(0.,0.00172735),.UNSPECIFIED.);
#64=B_SPLINE_CURVE_WITH_KNOTS('',3,(#1436,#1437,#1438,#1439),
 .UNSPECIFIED.,.F.,.F.,(4,4),(0.,0.002741025),.UNSPECIFIED.);
#65=B_SPLINE_CURVE_WITH_KNOTS('',3,(#1441,#1442,#1443,#1444),
 .UNSPECIFIED.,.F.,.F.,(4,4),(0.,0.00172735),.UNSPECIFIED.);
#66=B_SPLINE_CURVE_WITH_KNOTS('',3,(#1445,#1446,#1447,#1448),
 .UNSPECIFIED.,.F.,.F.,(4,4),(0.,0.002741025),.UNSPECIFIED.);
#67=B_SPLINE_CURVE_WITH_KNOTS('',3,(#1451,#1452,#1453,#1454),
 .UNSPECIFIED.,.F.,.F.,(4,4),(0.,0.00172735),.UNSPECIFIED.);
#68=B_SPLINE_CURVE_WITH_KNOTS('',3,(#1456,#1457,#1458,#1459),
 .UNSPECIFIED.,.F.,.F.,(4,4),(0.,0.002741025),.UNSPECIFIED.);
#69=B_SPLINE_CURVE_WITH_KNOTS('',3,(#1461,#1462,#1463,#1464),
 .UNSPECIFIED.,.F.,.F.,(4,4),(0.,0.00172735),.UNSPECIFIED.);
#70=B_SPLINE_CURVE_WITH_KNOTS('',1,(#1509,#1510),.UNSPECIFIED.,.F.,.F.,
(2,2),(0.,1.),.UNSPECIFIED.);
#71=B_SPLINE_CURVE_WITH_KNOTS('',1,(#1511,#1512),.UNSPECIFIED.,.F.,.F.,
(2,2),(0.,1.),.UNSPECIFIED.);
#72=B_SPLINE_CURVE_WITH_KNOTS('',1,(#1517,#1518),.UNSPECIFIED.,.F.,.F.,
(2,2),(0.,1.),.UNSPECIFIED.);
#73=B_SPLINE_CURVE_WITH_KNOTS('',1,(#1523,#1524),.UNSPECIFIED.,.F.,.F.,
(2,2),(0.,1.),.UNSPECIFIED.);
#74=B_SPLINE_CURVE_WITH_KNOTS('',1,(#1533,#1534),.UNSPECIFIED.,.F.,.F.,
(2,2),(0.,1.),.UNSPECIFIED.);
#75=B_SPLINE_CURVE_WITH_KNOTS('',1,(#1535,#1536),.UNSPECIFIED.,.F.,.F.,
(2,2),(0.,1.),.UNSPECIFIED.);
#76=B_SPLINE_CURVE_WITH_KNOTS('',1,(#1541,#1542),.UNSPECIFIED.,.F.,.F.,
(2,2),(0.,1.),.UNSPECIFIED.);
#77=B_SPLINE_CURVE_WITH_KNOTS('',1,(#1547,#1548),.UNSPECIFIED.,.F.,.F.,
(2,2),(0.,1.),.UNSPECIFIED.);
#78=B_SPLINE_CURVE_WITH_KNOTS('',1,(#1557,#1558),.UNSPECIFIED.,.F.,.F.,
(2,2),(0.,1.),.UNSPECIFIED.);
#79=B_SPLINE_CURVE_WITH_KNOTS('',1,(#1559,#1560),.UNSPECIFIED.,.F.,.F.,
(2,2),(0.,1.),.UNSPECIFIED.);
#80=B_SPLINE_CURVE_WITH_KNOTS('',1,(#1565,#1566),.UNSPECIFIED.,.F.,.F.,
(2,2),(0.,1.),.UNSPECIFIED.);
#81=B_SPLINE_CURVE_WITH_KNOTS('',1,(#1571,#1572),.UNSPECIFIED.,.F.,.F.,
(2,2),(0.,1.),.UNSPECIFIED.);
#82=CIRCLE('',#1015,0.45);
#83=CIRCLE('',#1016,0.45);
#84=CIRCLE('',#1017,0.45);
#85=CIRCLE('',#1018,0.45);
#86=CIRCLE('',#1019,0.3);
#87=CIRCLE('',#1020,0.3);
#88=CIRCLE('',#1021,0.3);
#89=CIRCLE('',#1022,0.3);
#90=CIRCLE('',#1024,0.45);
#91=CIRCLE('',#1025,0.3);
#92=CIRCLE('',#1026,1.55);
#93=CIRCLE('',#1027,1.55);
#94=CIRCLE('',#1033,0.839);
#95=CIRCLE('',#1035,0.839);
#96=CIRCLE('',#1037,1.55);
#97=CIRCLE('',#1040,1.55);
#98=CIRCLE('',#1043,0.839);
#99=CIRCLE('',#1045,0.839);
#100=CIRCLE('',#1047,0.839);
#101=CIRCLE('',#1049,0.839);
#102=CIRCLE('',#1051,0.3);
#103=CIRCLE('',#1053,0.45);
#104=CIRCLE('',#1054,0.45);
#105=CIRCLE('',#1055,0.45);
#106=CIRCLE('',#1057,0.839);
#107=CIRCLE('',#1059,0.839);
#108=ORIENTED_EDGE('',*,*,#388,.F.);
#109=ORIENTED_EDGE('',*,*,#389,.T.);
#110=ORIENTED_EDGE('',*,*,#390,.T.);
#111=ORIENTED_EDGE('',*,*,#391,.T.);
#112=ORIENTED_EDGE('',*,*,#392,.T.);
#113=ORIENTED_EDGE('',*,*,#393,.F.);
#114=ORIENTED_EDGE('',*,*,#394,.F.);
#115=ORIENTED_EDGE('',*,*,#395,.F.);
#116=ORIENTED_EDGE('',*,*,#396,.F.);
#117=ORIENTED_EDGE('',*,*,#397,.T.);
#118=ORIENTED_EDGE('',*,*,#398,.T.);
#119=ORIENTED_EDGE('',*,*,#399,.F.);
#120=ORIENTED_EDGE('',*,*,#400,.T.);
#121=ORIENTED_EDGE('',*,*,#401,.F.);
#122=ORIENTED_EDGE('',*,*,#402,.T.);
#123=ORIENTED_EDGE('',*,*,#403,.T.);
#124=ORIENTED_EDGE('',*,*,#404,.F.);
#125=ORIENTED_EDGE('',*,*,#405,.F.);
#126=ORIENTED_EDGE('',*,*,#406,.T.);
#127=ORIENTED_EDGE('',*,*,#407,.F.);
#128=ORIENTED_EDGE('',*,*,#408,.T.);
#129=ORIENTED_EDGE('',*,*,#409,.T.);
#130=ORIENTED_EDGE('',*,*,#410,.T.);
#131=ORIENTED_EDGE('',*,*,#411,.T.);
#132=ORIENTED_EDGE('',*,*,#412,.F.);
#133=ORIENTED_EDGE('',*,*,#413,.F.);
#134=ORIENTED_EDGE('',*,*,#414,.F.);
#135=ORIENTED_EDGE('',*,*,#415,.T.);
#136=ORIENTED_EDGE('',*,*,#416,.F.);
#137=ORIENTED_EDGE('',*,*,#417,.F.);
#138=ORIENTED_EDGE('',*,*,#418,.T.);
#139=ORIENTED_EDGE('',*,*,#419,.T.);
#140=ORIENTED_EDGE('',*,*,#420,.F.);
#141=ORIENTED_EDGE('',*,*,#421,.F.);
#142=ORIENTED_EDGE('',*,*,#422,.T.);
#143=ORIENTED_EDGE('',*,*,#423,.T.);
#144=ORIENTED_EDGE('',*,*,#424,.F.);
#145=ORIENTED_EDGE('',*,*,#425,.F.);
#146=ORIENTED_EDGE('',*,*,#426,.T.);
#147=ORIENTED_EDGE('',*,*,#408,.F.);
#148=ORIENTED_EDGE('',*,*,#427,.T.);
#149=ORIENTED_EDGE('',*,*,#388,.T.);
#150=ORIENTED_EDGE('',*,*,#428,.F.);
#151=ORIENTED_EDGE('',*,*,#429,.T.);
#152=ORIENTED_EDGE('',*,*,#430,.F.);
#153=ORIENTED_EDGE('',*,*,#431,.T.);
#154=ORIENTED_EDGE('',*,*,#432,.F.);
#155=ORIENTED_EDGE('',*,*,#433,.F.);
#156=ORIENTED_EDGE('',*,*,#434,.T.);
#157=ORIENTED_EDGE('',*,*,#435,.T.);
#158=ORIENTED_EDGE('',*,*,#436,.F.);
#159=ORIENTED_EDGE('',*,*,#437,.F.);
#160=ORIENTED_EDGE('',*,*,#438,.T.);
#161=ORIENTED_EDGE('',*,*,#439,.T.);
#162=ORIENTED_EDGE('',*,*,#440,.F.);
#163=ORIENTED_EDGE('',*,*,#441,.F.);
#164=ORIENTED_EDGE('',*,*,#442,.T.);
#165=ORIENTED_EDGE('',*,*,#443,.F.);
#166=ORIENTED_EDGE('',*,*,#444,.F.);
#167=ORIENTED_EDGE('',*,*,#445,.T.);
#168=ORIENTED_EDGE('',*,*,#434,.F.);
#169=ORIENTED_EDGE('',*,*,#446,.F.);
#170=ORIENTED_EDGE('',*,*,#425,.T.);
#171=ORIENTED_EDGE('',*,*,#447,.T.);
#172=ORIENTED_EDGE('',*,*,#431,.F.);
#173=ORIENTED_EDGE('',*,*,#445,.F.);
#174=ORIENTED_EDGE('',*,*,#424,.T.);
#175=ORIENTED_EDGE('',*,*,#448,.T.);
#176=ORIENTED_EDGE('',*,*,#432,.T.);
#177=ORIENTED_EDGE('',*,*,#447,.F.);
#178=ORIENTED_EDGE('',*,*,#423,.F.);
#179=ORIENTED_EDGE('',*,*,#446,.T.);
#180=ORIENTED_EDGE('',*,*,#433,.T.);
#181=ORIENTED_EDGE('',*,*,#448,.F.);
#182=ORIENTED_EDGE('',*,*,#426,.F.);
#183=ORIENTED_EDGE('',*,*,#449,.T.);
#184=ORIENTED_EDGE('',*,*,#435,.F.);
#185=ORIENTED_EDGE('',*,*,#450,.F.);
#186=ORIENTED_EDGE('',*,*,#420,.T.);
#187=ORIENTED_EDGE('',*,*,#451,.T.);
#188=ORIENTED_EDGE('',*,*,#436,.T.);
#189=ORIENTED_EDGE('',*,*,#449,.F.);
#190=ORIENTED_EDGE('',*,*,#419,.F.);
#191=ORIENTED_EDGE('',*,*,#450,.T.);
#192=ORIENTED_EDGE('',*,*,#438,.F.);
#193=ORIENTED_EDGE('',*,*,#452,.F.);
#194=ORIENTED_EDGE('',*,*,#421,.T.);
#195=ORIENTED_EDGE('',*,*,#452,.T.);
#196=ORIENTED_EDGE('',*,*,#437,.T.);
#197=ORIENTED_EDGE('',*,*,#451,.F.);
#198=ORIENTED_EDGE('',*,*,#422,.F.);
#199=ORIENTED_EDGE('',*,*,#453,.T.);
#200=ORIENTED_EDGE('',*,*,#439,.F.);
#201=ORIENTED_EDGE('',*,*,#454,.F.);
#202=ORIENTED_EDGE('',*,*,#416,.T.);
#203=ORIENTED_EDGE('',*,*,#455,.T.);
#204=ORIENTED_EDGE('',*,*,#440,.T.);
#205=ORIENTED_EDGE('',*,*,#453,.F.);
#206=ORIENTED_EDGE('',*,*,#415,.F.);
#207=ORIENTED_EDGE('',*,*,#454,.T.);
#208=ORIENTED_EDGE('',*,*,#442,.F.);
#209=ORIENTED_EDGE('',*,*,#456,.F.);
#210=ORIENTED_EDGE('',*,*,#417,.T.);
#211=ORIENTED_EDGE('',*,*,#456,.T.);
#212=ORIENTED_EDGE('',*,*,#441,.T.);
#213=ORIENTED_EDGE('',*,*,#455,.F.);
#214=ORIENTED_EDGE('',*,*,#418,.F.);
#215=ORIENTED_EDGE('',*,*,#413,.T.);
#216=ORIENTED_EDGE('',*,*,#457,.T.);
#217=ORIENTED_EDGE('',*,*,#458,.F.);
#218=ORIENTED_EDGE('',*,*,#459,.F.);
#219=ORIENTED_EDGE('',*,*,#460,.F.);
#220=ORIENTED_EDGE('',*,*,#457,.F.);
#221=ORIENTED_EDGE('',*,*,#412,.T.);
#222=ORIENTED_EDGE('',*,*,#461,.T.);
#223=ORIENTED_EDGE('',*,*,#462,.T.);
#224=ORIENTED_EDGE('',*,*,#463,.T.);
#225=ORIENTED_EDGE('',*,*,#461,.F.);
#226=ORIENTED_EDGE('',*,*,#411,.F.);
#227=ORIENTED_EDGE('',*,*,#410,.F.);
#228=ORIENTED_EDGE('',*,*,#464,.T.);
#229=ORIENTED_EDGE('',*,*,#465,.T.);
#230=ORIENTED_EDGE('',*,*,#462,.F.);
#231=ORIENTED_EDGE('',*,*,#466,.T.);
#232=ORIENTED_EDGE('',*,*,#467,.T.);
#233=ORIENTED_EDGE('',*,*,#443,.T.);
#234=ORIENTED_EDGE('',*,*,#468,.F.);
#235=ORIENTED_EDGE('',*,*,#444,.T.);
#236=ORIENTED_EDGE('',*,*,#469,.F.);
#237=ORIENTED_EDGE('',*,*,#430,.T.);
#238=ORIENTED_EDGE('',*,*,#470,.T.);
#239=ORIENTED_EDGE('',*,*,#464,.F.);
#240=ORIENTED_EDGE('',*,*,#409,.F.);
#241=ORIENTED_EDGE('',*,*,#471,.F.);
#242=ORIENTED_EDGE('',*,*,#472,.F.);
#243=ORIENTED_EDGE('',*,*,#473,.T.);
#244=ORIENTED_EDGE('',*,*,#458,.T.);
#245=ORIENTED_EDGE('',*,*,#460,.T.);
#246=ORIENTED_EDGE('',*,*,#463,.F.);
#247=ORIENTED_EDGE('',*,*,#465,.F.);
#248=ORIENTED_EDGE('',*,*,#470,.F.);
#249=ORIENTED_EDGE('',*,*,#429,.F.);
#250=ORIENTED_EDGE('',*,*,#474,.T.);
#251=ORIENTED_EDGE('',*,*,#475,.T.);
#252=ORIENTED_EDGE('',*,*,#476,.T.);
#253=ORIENTED_EDGE('',*,*,#477,.T.);
#254=ORIENTED_EDGE('',*,*,#466,.F.);
#255=ORIENTED_EDGE('',*,*,#478,.T.);
#256=ORIENTED_EDGE('',*,*,#467,.F.);
#257=ORIENTED_EDGE('',*,*,#468,.T.);
#258=ORIENTED_EDGE('',*,*,#469,.T.);
#259=ORIENTED_EDGE('',*,*,#475,.F.);
#260=ORIENTED_EDGE('',*,*,#479,.T.);
#261=ORIENTED_EDGE('',*,*,#394,.T.);
#262=ORIENTED_EDGE('',*,*,#480,.F.);
#263=ORIENTED_EDGE('',*,*,#428,.T.);
#264=ORIENTED_EDGE('',*,*,#395,.T.);
#265=ORIENTED_EDGE('',*,*,#479,.F.);
#266=ORIENTED_EDGE('',*,*,#474,.F.);
#267=ORIENTED_EDGE('',*,*,#480,.T.);
#268=ORIENTED_EDGE('',*,*,#393,.T.);
#269=ORIENTED_EDGE('',*,*,#481,.F.);
#270=ORIENTED_EDGE('',*,*,#476,.F.);
#271=ORIENTED_EDGE('',*,*,#392,.F.);
#272=ORIENTED_EDGE('',*,*,#482,.F.);
#273=ORIENTED_EDGE('',*,*,#471,.T.);
#274=ORIENTED_EDGE('',*,*,#481,.T.);
#275=ORIENTED_EDGE('',*,*,#427,.F.);
#276=ORIENTED_EDGE('',*,*,#407,.T.);
#277=ORIENTED_EDGE('',*,*,#483,.T.);
#278=ORIENTED_EDGE('',*,*,#389,.F.);
#279=ORIENTED_EDGE('',*,*,#472,.T.);
#280=ORIENTED_EDGE('',*,*,#482,.T.);
#281=ORIENTED_EDGE('',*,*,#391,.F.);
#282=ORIENTED_EDGE('',*,*,#484,.F.);
#283=ORIENTED_EDGE('',*,*,#477,.F.);
#284=ORIENTED_EDGE('',*,*,#478,.F.);
#285=ORIENTED_EDGE('',*,*,#483,.F.);
#286=ORIENTED_EDGE('',*,*,#414,.T.);
#287=ORIENTED_EDGE('',*,*,#459,.T.);
#288=ORIENTED_EDGE('',*,*,#473,.F.);
#289=ORIENTED_EDGE('',*,*,#484,.T.);
#290=ORIENTED_EDGE('',*,*,#390,.F.);
#291=ORIENTED_EDGE('',*,*,#402,.F.);
#292=ORIENTED_EDGE('',*,*,#485,.F.);
#293=ORIENTED_EDGE('',*,*,#486,.F.);
#294=ORIENTED_EDGE('',*,*,#487,.F.);
#295=ORIENTED_EDGE('',*,*,#488,.T.);
#296=ORIENTED_EDGE('',*,*,#489,.T.);
#297=ORIENTED_EDGE('',*,*,#487,.T.);
#298=ORIENTED_EDGE('',*,*,#490,.F.);
#299=ORIENTED_EDGE('',*,*,#491,.F.);
#300=ORIENTED_EDGE('',*,*,#485,.T.);
#301=ORIENTED_EDGE('',*,*,#401,.T.);
#302=ORIENTED_EDGE('',*,*,#492,.F.);
#303=ORIENTED_EDGE('',*,*,#493,.T.);
#304=ORIENTED_EDGE('',*,*,#494,.T.);
#305=ORIENTED_EDGE('',*,*,#495,.F.);
#306=ORIENTED_EDGE('',*,*,#496,.F.);
#307=ORIENTED_EDGE('',*,*,#491,.T.);
#308=ORIENTED_EDGE('',*,*,#406,.F.);
#309=ORIENTED_EDGE('',*,*,#497,.F.);
#310=ORIENTED_EDGE('',*,*,#498,.F.);
#311=ORIENTED_EDGE('',*,*,#492,.T.);
#312=ORIENTED_EDGE('',*,*,#499,.T.);
#313=ORIENTED_EDGE('',*,*,#495,.T.);
#314=ORIENTED_EDGE('',*,*,#500,.F.);
#315=ORIENTED_EDGE('',*,*,#501,.F.);
#316=ORIENTED_EDGE('',*,*,#497,.T.);
#317=ORIENTED_EDGE('',*,*,#405,.T.);
#318=ORIENTED_EDGE('',*,*,#502,.F.);
#319=ORIENTED_EDGE('',*,*,#503,.T.);
#320=ORIENTED_EDGE('',*,*,#504,.T.);
#321=ORIENTED_EDGE('',*,*,#505,.F.);
#322=ORIENTED_EDGE('',*,*,#506,.F.);
#323=ORIENTED_EDGE('',*,*,#501,.T.);
#324=ORIENTED_EDGE('',*,*,#502,.T.);
#325=ORIENTED_EDGE('',*,*,#404,.T.);
#326=ORIENTED_EDGE('',*,*,#507,.F.);
#327=ORIENTED_EDGE('',*,*,#508,.F.);
#328=ORIENTED_EDGE('',*,*,#509,.T.);
#329=ORIENTED_EDGE('',*,*,#510,.T.);
#330=ORIENTED_EDGE('',*,*,#508,.T.);
#331=ORIENTED_EDGE('',*,*,#511,.F.);
#332=ORIENTED_EDGE('',*,*,#512,.F.);
#333=ORIENTED_EDGE('',*,*,#512,.T.);
#334=ORIENTED_EDGE('',*,*,#513,.T.);
#335=ORIENTED_EDGE('',*,*,#514,.F.);
#336=ORIENTED_EDGE('',*,*,#515,.F.);
#337=ORIENTED_EDGE('',*,*,#516,.T.);
#338=ORIENTED_EDGE('',*,*,#514,.T.);
#339=ORIENTED_EDGE('',*,*,#517,.F.);
#340=ORIENTED_EDGE('',*,*,#518,.F.);
#341=ORIENTED_EDGE('',*,*,#397,.F.);
#342=ORIENTED_EDGE('',*,*,#519,.F.);
#343=ORIENTED_EDGE('',*,*,#520,.F.);
#344=ORIENTED_EDGE('',*,*,#518,.T.);
#345=ORIENTED_EDGE('',*,*,#521,.T.);
#346=ORIENTED_EDGE('',*,*,#403,.F.);
#347=ORIENTED_EDGE('',*,*,#488,.F.);
#348=ORIENTED_EDGE('',*,*,#489,.F.);
#349=ORIENTED_EDGE('',*,*,#496,.T.);
#350=ORIENTED_EDGE('',*,*,#499,.F.);
#351=ORIENTED_EDGE('',*,*,#506,.T.);
#352=ORIENTED_EDGE('',*,*,#522,.F.);
#353=ORIENTED_EDGE('',*,*,#398,.F.);
#354=ORIENTED_EDGE('',*,*,#521,.F.);
#355=ORIENTED_EDGE('',*,*,#517,.T.);
#356=ORIENTED_EDGE('',*,*,#513,.F.);
#357=ORIENTED_EDGE('',*,*,#511,.T.);
#358=ORIENTED_EDGE('',*,*,#507,.T.);
#359=ORIENTED_EDGE('',*,*,#523,.F.);
#360=ORIENTED_EDGE('',*,*,#399,.T.);
#361=ORIENTED_EDGE('',*,*,#522,.T.);
#362=ORIENTED_EDGE('',*,*,#505,.T.);
#363=ORIENTED_EDGE('',*,*,#524,.F.);
#364=ORIENTED_EDGE('',*,*,#519,.T.);
#365=ORIENTED_EDGE('',*,*,#396,.T.);
#366=ORIENTED_EDGE('',*,*,#525,.F.);
#367=ORIENTED_EDGE('',*,*,#526,.T.);
#368=ORIENTED_EDGE('',*,*,#520,.T.);
#369=ORIENTED_EDGE('',*,*,#526,.F.);
#370=ORIENTED_EDGE('',*,*,#527,.T.);
#371=ORIENTED_EDGE('',*,*,#524,.T.);
#372=ORIENTED_EDGE('',*,*,#504,.F.);
#373=ORIENTED_EDGE('',*,*,#500,.T.);
#374=ORIENTED_EDGE('',*,*,#494,.F.);
#375=ORIENTED_EDGE('',*,*,#490,.T.);
#376=ORIENTED_EDGE('',*,*,#486,.T.);
#377=ORIENTED_EDGE('',*,*,#493,.F.);
#378=ORIENTED_EDGE('',*,*,#498,.T.);
#379=ORIENTED_EDGE('',*,*,#503,.F.);
#380=ORIENTED_EDGE('',*,*,#509,.F.);
#381=ORIENTED_EDGE('',*,*,#510,.F.);
#382=ORIENTED_EDGE('',*,*,#515,.T.);
#383=ORIENTED_EDGE('',*,*,#516,.F.);
#384=ORIENTED_EDGE('',*,*,#400,.F.);
#385=ORIENTED_EDGE('',*,*,#523,.T.);
#386=ORIENTED_EDGE('',*,*,#527,.F.);
#387=ORIENTED_EDGE('',*,*,#525,.T.);
#388=EDGE_CURVE('',#528,#529,#624,.T.);
#389=EDGE_CURVE('',#528,#530,#82,.T.);
#390=EDGE_CURVE('',#530,#531,#625,.T.);
#391=EDGE_CURVE('',#531,#532,#83,.T.);
#392=EDGE_CURVE('',#532,#533,#626,.T.);
#393=EDGE_CURVE('',#534,#533,#84,.F.);
#394=EDGE_CURVE('',#535,#534,#627,.T.);
#395=EDGE_CURVE('',#529,#535,#85,.F.);
#396=EDGE_CURVE('',#536,#537,#86,.T.);
#397=EDGE_CURVE('',#536,#538,#628,.T.);
#398=EDGE_CURVE('',#538,#539,#629,.T.);
#399=EDGE_CURVE('',#540,#539,#87,.T.);
#400=EDGE_CURVE('',#540,#537,#630,.T.);
#401=EDGE_CURVE('',#541,#542,#88,.T.);
#402=EDGE_CURVE('',#541,#543,#631,.T.);
#403=EDGE_CURVE('',#543,#544,#632,.T.);
#404=EDGE_CURVE('',#545,#544,#633,.T.);
#405=EDGE_CURVE('',#546,#545,#89,.T.);
#406=EDGE_CURVE('',#546,#542,#634,.T.);
#407=EDGE_CURVE('',#547,#548,#90,.T.);
#408=EDGE_CURVE('',#547,#549,#635,.T.);
#409=EDGE_CURVE('',#549,#550,#91,.F.);
#410=EDGE_CURVE('',#550,#551,#636,.T.);
#411=EDGE_CURVE('',#551,#552,#92,.F.);
#412=EDGE_CURVE('',#553,#552,#637,.T.);
#413=EDGE_CURVE('',#554,#553,#93,.T.);
#414=EDGE_CURVE('',#548,#554,#638,.T.);
#415=EDGE_CURVE('',#555,#556,#58,.T.);
#416=EDGE_CURVE('',#557,#556,#59,.T.);
#417=EDGE_CURVE('',#558,#557,#60,.T.);
#418=EDGE_CURVE('',#558,#555,#61,.T.);
#419=EDGE_CURVE('',#559,#560,#62,.T.);
#420=EDGE_CURVE('',#561,#560,#63,.T.);
#421=EDGE_CURVE('',#562,#561,#64,.T.);
#422=EDGE_CURVE('',#562,#559,#65,.T.);
#423=EDGE_CURVE('',#563,#564,#66,.T.);
#424=EDGE_CURVE('',#565,#564,#67,.T.);
#425=EDGE_CURVE('',#566,#565,#68,.T.);
#426=EDGE_CURVE('',#566,#563,#69,.T.);
#427=EDGE_CURVE('',#547,#528,#639,.F.);
#428=EDGE_CURVE('',#567,#529,#640,.T.);
#429=EDGE_CURVE('',#567,#568,#641,.T.);
#430=EDGE_CURVE('',#549,#568,#642,.T.);
#431=EDGE_CURVE('',#569,#570,#643,.T.);
#432=EDGE_CURVE('',#571,#570,#644,.T.);
#433=EDGE_CURVE('',#572,#571,#645,.T.);
#434=EDGE_CURVE('',#572,#569,#646,.T.);
#435=EDGE_CURVE('',#573,#574,#647,.T.);
#436=EDGE_CURVE('',#575,#574,#648,.T.);
#437=EDGE_CURVE('',#576,#575,#649,.T.);
#438=EDGE_CURVE('',#576,#573,#650,.T.);
#439=EDGE_CURVE('',#577,#578,#651,.T.);
#440=EDGE_CURVE('',#579,#578,#652,.T.);
#441=EDGE_CURVE('',#580,#579,#653,.T.);
#442=EDGE_CURVE('',#580,#577,#654,.T.);
#443=EDGE_CURVE('',#581,#581,#94,.T.);
#444=EDGE_CURVE('',#582,#582,#95,.T.);
#445=EDGE_CURVE('',#565,#569,#70,.T.);
#446=EDGE_CURVE('',#566,#572,#71,.T.);
#447=EDGE_CURVE('',#564,#570,#72,.T.);
#448=EDGE_CURVE('',#563,#571,#73,.T.);
#449=EDGE_CURVE('',#560,#574,#74,.T.);
#450=EDGE_CURVE('',#561,#573,#75,.T.);
#451=EDGE_CURVE('',#559,#575,#76,.T.);
#452=EDGE_CURVE('',#562,#576,#77,.T.);
#453=EDGE_CURVE('',#556,#578,#78,.T.);
#454=EDGE_CURVE('',#557,#577,#79,.T.);
#455=EDGE_CURVE('',#555,#579,#80,.T.);
#456=EDGE_CURVE('',#558,#580,#81,.T.);
#457=EDGE_CURVE('',#553,#583,#655,.T.);
#458=EDGE_CURVE('',#584,#583,#96,.T.);
#459=EDGE_CURVE('',#554,#584,#656,.F.);
#460=EDGE_CURVE('',#583,#585,#657,.T.);
#461=EDGE_CURVE('',#552,#585,#658,.F.);
#462=EDGE_CURVE('',#551,#586,#659,.T.);
#463=EDGE_CURVE('',#586,#585,#97,.F.);
#464=EDGE_CURVE('',#550,#587,#660,.F.);
#465=EDGE_CURVE('',#587,#586,#661,.T.);
#466=EDGE_CURVE('',#588,#588,#98,.T.);
#467=EDGE_CURVE('',#589,#589,#99,.T.);
#468=EDGE_CURVE('',#590,#590,#100,.F.);
#469=EDGE_CURVE('',#591,#591,#101,.F.);
#470=EDGE_CURVE('',#568,#587,#102,.F.);
#471=EDGE_CURVE('',#592,#593,#662,.T.);
#472=EDGE_CURVE('',#594,#592,#103,.T.);
#473=EDGE_CURVE('',#594,#584,#663,.T.);
#474=EDGE_CURVE('',#567,#595,#104,.F.);
#475=EDGE_CURVE('',#595,#596,#664,.T.);
#476=EDGE_CURVE('',#596,#593,#105,.F.);
#477=EDGE_CURVE('',#597,#597,#106,.F.);
#478=EDGE_CURVE('',#598,#598,#107,.F.);
#479=EDGE_CURVE('',#595,#535,#665,.F.);
#480=EDGE_CURVE('',#596,#534,#666,.T.);
#481=EDGE_CURVE('',#593,#533,#667,.F.);
#482=EDGE_CURVE('',#592,#532,#668,.T.);
#483=EDGE_CURVE('',#548,#530,#669,.T.);
#484=EDGE_CURVE('',#594,#531,#670,.F.);
#485=EDGE_CURVE('',#599,#541,#671,.T.);
#486=EDGE_CURVE('',#600,#599,#672,.T.);
#487=EDGE_CURVE('',#601,#600,#673,.T.);
#488=EDGE_CURVE('',#601,#543,#674,.T.);
#489=EDGE_CURVE('',#602,#601,#14,.T.);
#490=EDGE_CURVE('',#603,#600,#15,.T.);
#491=EDGE_CURVE('',#602,#603,#675,.T.);
#492=EDGE_CURVE('',#604,#542,#676,.T.);
#493=EDGE_CURVE('',#604,#599,#16,.T.);
#494=EDGE_CURVE('',#603,#605,#677,.T.);
#495=EDGE_CURVE('',#606,#605,#678,.T.);
#496=EDGE_CURVE('',#602,#606,#679,.T.);
#497=EDGE_CURVE('',#607,#546,#680,.T.);
#498=EDGE_CURVE('',#604,#607,#681,.T.);
#499=EDGE_CURVE('',#608,#606,#17,.T.);
#500=EDGE_CURVE('',#609,#605,#18,.T.);
#501=EDGE_CURVE('',#608,#609,#682,.T.);
#502=EDGE_CURVE('',#610,#545,#683,.T.);
#503=EDGE_CURVE('',#610,#607,#19,.T.);
#504=EDGE_CURVE('',#609,#611,#684,.T.);
#505=EDGE_CURVE('',#612,#611,#685,.T.);
#506=EDGE_CURVE('',#608,#612,#686,.T.);
#507=EDGE_CURVE('',#613,#544,#687,.T.);
#508=EDGE_CURVE('',#614,#613,#688,.T.);
#509=EDGE_CURVE('',#614,#610,#689,.T.);
#510=EDGE_CURVE('',#615,#614,#20,.T.);
#511=EDGE_CURVE('',#616,#613,#21,.T.);
#512=EDGE_CURVE('',#615,#616,#690,.T.);
#513=EDGE_CURVE('',#616,#617,#691,.T.);
#514=EDGE_CURVE('',#618,#617,#692,.T.);
#515=EDGE_CURVE('',#615,#618,#693,.T.);
#516=EDGE_CURVE('',#619,#618,#22,.T.);
#517=EDGE_CURVE('',#620,#617,#23,.T.);
#518=EDGE_CURVE('',#619,#620,#694,.T.);
#519=EDGE_CURVE('',#621,#536,#695,.T.);
#520=EDGE_CURVE('',#619,#621,#696,.T.);
#521=EDGE_CURVE('',#620,#538,#697,.T.);
#522=EDGE_CURVE('',#539,#612,#24,.T.);
#523=EDGE_CURVE('',#540,#622,#698,.T.);
#524=EDGE_CURVE('',#622,#611,#25,.T.);
#525=EDGE_CURVE('',#623,#537,#699,.T.);
#526=EDGE_CURVE('',#623,#621,#26,.T.);
#527=EDGE_CURVE('',#623,#622,#700,.T.);
#528=VERTEX_POINT('',#1351);
#529=VERTEX_POINT('',#1352);
#530=VERTEX_POINT('',#1354);
#531=VERTEX_POINT('',#1356);
#532=VERTEX_POINT('',#1358);
#533=VERTEX_POINT('',#1360);
#534=VERTEX_POINT('',#1362);
#535=VERTEX_POINT('',#1364);
#536=VERTEX_POINT('',#1367);
#537=VERTEX_POINT('',#1368);
#538=VERTEX_POINT('',#1370);
#539=VERTEX_POINT('',#1372);
#540=VERTEX_POINT('',#1374);
#541=VERTEX_POINT('',#1377);
#542=VERTEX_POINT('',#1378);
#543=VERTEX_POINT('',#1380);
#544=VERTEX_POINT('',#1382);
#545=VERTEX_POINT('',#1384);
#546=VERTEX_POINT('',#1386);
#547=VERTEX_POINT('',#1390);
#548=VERTEX_POINT('',#1391);
#549=VERTEX_POINT('',#1393);
#550=VERTEX_POINT('',#1395);
#551=VERTEX_POINT('',#1397);
#552=VERTEX_POINT('',#1399);
#553=VERTEX_POINT('',#1401);
#554=VERTEX_POINT('',#1403);
#555=VERTEX_POINT('',#1409);
#556=VERTEX_POINT('',#1410);
#557=VERTEX_POINT('',#1415);
#558=VERTEX_POINT('',#1420);
#559=VERTEX_POINT('',#1429);
#560=VERTEX_POINT('',#1430);
#561=VERTEX_POINT('',#1435);
#562=VERTEX_POINT('',#1440);
#563=VERTEX_POINT('',#1449);
#564=VERTEX_POINT('',#1450);
#565=VERTEX_POINT('',#1455);
#566=VERTEX_POINT('',#1460);
#567=VERTEX_POINT('',#1468);
#568=VERTEX_POINT('',#1470);
#569=VERTEX_POINT('',#1474);
#570=VERTEX_POINT('',#1475);
#571=VERTEX_POINT('',#1477);
#572=VERTEX_POINT('',#1479);
#573=VERTEX_POINT('',#1483);
#574=VERTEX_POINT('',#1484);
#575=VERTEX_POINT('',#1486);
#576=VERTEX_POINT('',#1488);
#577=VERTEX_POINT('',#1492);
#578=VERTEX_POINT('',#1493);
#579=VERTEX_POINT('',#1495);
#580=VERTEX_POINT('',#1497);
#581=VERTEX_POINT('',#1501);
#582=VERTEX_POINT('',#1504);
#583=VERTEX_POINT('',#1579);
#584=VERTEX_POINT('',#1581);
#585=VERTEX_POINT('',#1585);
#586=VERTEX_POINT('',#1589);
#587=VERTEX_POINT('',#1593);
#588=VERTEX_POINT('',#1597);
#589=VERTEX_POINT('',#1600);
#590=VERTEX_POINT('',#1603);
#591=VERTEX_POINT('',#1606);
#592=VERTEX_POINT('',#1611);
#593=VERTEX_POINT('',#1612);
#594=VERTEX_POINT('',#1614);
#595=VERTEX_POINT('',#1617);
#596=VERTEX_POINT('',#1619);
#597=VERTEX_POINT('',#1623);
#598=VERTEX_POINT('',#1626);
#599=VERTEX_POINT('',#1642);
#600=VERTEX_POINT('',#1644);
#601=VERTEX_POINT('',#1646);
#602=VERTEX_POINT('',#1650);
#603=VERTEX_POINT('',#1652);
#604=VERTEX_POINT('',#1656);
#605=VERTEX_POINT('',#1660);
#606=VERTEX_POINT('',#1662);
#607=VERTEX_POINT('',#1666);
#608=VERTEX_POINT('',#1670);
#609=VERTEX_POINT('',#1672);
#610=VERTEX_POINT('',#1676);
#611=VERTEX_POINT('',#1680);
#612=VERTEX_POINT('',#1682);
#613=VERTEX_POINT('',#1686);
#614=VERTEX_POINT('',#1688);
#615=VERTEX_POINT('',#1692);
#616=VERTEX_POINT('',#1694);
#617=VERTEX_POINT('',#1698);
#618=VERTEX_POINT('',#1700);
#619=VERTEX_POINT('',#1704);
#620=VERTEX_POINT('',#1706);
#621=VERTEX_POINT('',#1710);
#622=VERTEX_POINT('',#1717);
#623=VERTEX_POINT('',#1721);
#624=LINE('',#1350,#701);
#625=LINE('',#1355,#702);
#626=LINE('',#1359,#703);
#627=LINE('',#1363,#704);
#628=LINE('',#1369,#705);
#629=LINE('',#1371,#706);
#630=LINE('',#1375,#707);
#631=LINE('',#1379,#708);
#632=LINE('',#1381,#709);
#633=LINE('',#1383,#710);
#634=LINE('',#1387,#711);
#635=LINE('',#1392,#712);
#636=LINE('',#1396,#713);
#637=LINE('',#1400,#714);
#638=LINE('',#1404,#715);
#639=LINE('',#1466,#716);
#640=LINE('',#1467,#717);
#641=LINE('',#1469,#718);
#642=LINE('',#1471,#719);
#643=LINE('',#1473,#720);
#644=LINE('',#1476,#721);
#645=LINE('',#1478,#722);
#646=LINE('',#1480,#723);
#647=LINE('',#1482,#724);
#648=LINE('',#1485,#725);
#649=LINE('',#1487,#726);
#650=LINE('',#1489,#727);
#651=LINE('',#1491,#728);
#652=LINE('',#1494,#729);
#653=LINE('',#1496,#730);
#654=LINE('',#1498,#731);
#655=LINE('',#1578,#732);
#656=LINE('',#1582,#733);
#657=LINE('',#1584,#734);
#658=LINE('',#1586,#735);
#659=LINE('',#1588,#736);
#660=LINE('',#1592,#737);
#661=LINE('',#1594,#738);
#662=LINE('',#1610,#739);
#663=LINE('',#1615,#740);
#664=LINE('',#1618,#741);
#665=LINE('',#1628,#742);
#666=LINE('',#1629,#743);
#667=LINE('',#1632,#744);
#668=LINE('',#1634,#745);
#669=LINE('',#1636,#746);
#670=LINE('',#1638,#747);
#671=LINE('',#1641,#748);
#672=LINE('',#1643,#749);
#673=LINE('',#1645,#750);
#674=LINE('',#1647,#751);
#675=LINE('',#1653,#752);
#676=LINE('',#1655,#753);
#677=LINE('',#1659,#754);
#678=LINE('',#1661,#755);
#679=LINE('',#1663,#756);
#680=LINE('',#1665,#757);
#681=LINE('',#1667,#758);
#682=LINE('',#1673,#759);
#683=LINE('',#1675,#760);
#684=LINE('',#1679,#761);
#685=LINE('',#1681,#762);
#686=LINE('',#1683,#763);
#687=LINE('',#1685,#764);
#688=LINE('',#1687,#765);
#689=LINE('',#1689,#766);
#690=LINE('',#1695,#767);
#691=LINE('',#1697,#768);
#692=LINE('',#1699,#769);
#693=LINE('',#1701,#770);
#694=LINE('',#1707,#771);
#695=LINE('',#1709,#772);
#696=LINE('',#1711,#773);
#697=LINE('',#1712,#774);
#698=LINE('',#1716,#775);
#699=LINE('',#1720,#776);
#700=LINE('',#1724,#777);
#701=VECTOR('',#1103,1000.);
#702=VECTOR('',#1106,1000.);
#703=VECTOR('',#1109,1000.);
#704=VECTOR('',#1112,1000.);
#705=VECTOR('',#1117,1000.);
#706=VECTOR('',#1118,1000.);
#707=VECTOR('',#1121,1000.);
#708=VECTOR('',#1124,1000.);
#709=VECTOR('',#1125,1000.);
#710=VECTOR('',#1126,1000.);
#711=VECTOR('',#1129,1000.);
#712=VECTOR('',#1134,1000.);
#713=VECTOR('',#1137,1000.);
#714=VECTOR('',#1140,1000.);
#715=VECTOR('',#1143,1000.);
#716=VECTOR('',#1146,1000.);
#717=VECTOR('',#1147,1000.);
#718=VECTOR('',#1148,1000.);
#719=VECTOR('',#1149,1000.);
#720=VECTOR('',#1152,1000.);
#721=VECTOR('',#1153,1000.);
#722=VECTOR('',#1154,1000.);
#723=VECTOR('',#1155,1000.);
#724=VECTOR('',#1158,1000.);
#725=VECTOR('',#1159,1000.);
#726=VECTOR('',#1160,1000.);
#727=VECTOR('',#1161,1000.);
#728=VECTOR('',#1164,1000.);
#729=VECTOR('',#1165,1000.);
#730=VECTOR('',#1166,1000.);
#731=VECTOR('',#1167,1000.);
#732=VECTOR('',#1178,1000.);
#733=VECTOR('',#1181,1000.);
#734=VECTOR('',#1184,1000.);
#735=VECTOR('',#1185,1000.);
#736=VECTOR('',#1188,1000.);
#737=VECTOR('',#1193,1000.);
#738=VECTOR('',#1194,1000.);
#739=VECTOR('',#1217,1000.);
#740=VECTOR('',#1220,1000.);
#741=VECTOR('',#1223,1000.);
#742=VECTOR('',#1236,1000.);
#743=VECTOR('',#1237,1000.);
#744=VECTOR('',#1242,1000.);
#745=VECTOR('',#1245,1000.);
#746=VECTOR('',#1248,1000.);
#747=VECTOR('',#1251,1000.);
#748=VECTOR('',#1256,1000.);
#749=VECTOR('',#1257,1000.);
#750=VECTOR('',#1258,1000.);
#751=VECTOR('',#1259,1000.);
#752=VECTOR('',#1266,1000.);
#753=VECTOR('',#1269,1000.);
#754=VECTOR('',#1274,1000.);
#755=VECTOR('',#1275,1000.);
#756=VECTOR('',#1276,1000.);
#757=VECTOR('',#1279,1000.);
#758=VECTOR('',#1280,1000.);
#759=VECTOR('',#1287,1000.);
#760=VECTOR('',#1290,1000.);
#761=VECTOR('',#1295,1000.);
#762=VECTOR('',#1296,1000.);
#763=VECTOR('',#1297,1000.);
#764=VECTOR('',#1300,1000.);
#765=VECTOR('',#1301,1000.);
#766=VECTOR('',#1302,1000.);
#767=VECTOR('',#1309,1000.);
#768=VECTOR('',#1312,1000.);
#769=VECTOR('',#1313,1000.);
#770=VECTOR('',#1314,1000.);
#771=VECTOR('',#1321,1000.);
#772=VECTOR('',#1324,1000.);
#773=VECTOR('',#1325,1000.);
#774=VECTOR('',#1326,1000.);
#775=VECTOR('',#1333,1000.);
#776=VECTOR('',#1338,1000.);
#777=VECTOR('',#1343,1000.);
#778=EDGE_LOOP('',(#108,#109,#110,#111,#112,#113,#114,#115));
#779=EDGE_LOOP('',(#116,#117,#118,#119,#120));
#780=EDGE_LOOP('',(#121,#122,#123,#124,#125,#126));
#781=EDGE_LOOP('',(#127,#128,#129,#130,#131,#132,#133,#134));
#782=EDGE_LOOP('',(#135,#136,#137,#138));
#783=EDGE_LOOP('',(#139,#140,#141,#142));
#784=EDGE_LOOP('',(#143,#144,#145,#146));
#785=EDGE_LOOP('',(#147,#148,#149,#150,#151,#152));
#786=EDGE_LOOP('',(#153,#154,#155,#156));
#787=EDGE_LOOP('',(#157,#158,#159,#160));
#788=EDGE_LOOP('',(#161,#162,#163,#164));
#789=EDGE_LOOP('',(#165));
#790=EDGE_LOOP('',(#166));
#791=EDGE_LOOP('',(#167,#168,#169,#170));
#792=EDGE_LOOP('',(#171,#172,#173,#174));
#793=EDGE_LOOP('',(#175,#176,#177,#178));
#794=EDGE_LOOP('',(#179,#180,#181,#182));
#795=EDGE_LOOP('',(#183,#184,#185,#186));
#796=EDGE_LOOP('',(#187,#188,#189,#190));
#797=EDGE_LOOP('',(#191,#192,#193,#194));
#798=EDGE_LOOP('',(#195,#196,#197,#198));
#799=EDGE_LOOP('',(#199,#200,#201,#202));
#800=EDGE_LOOP('',(#203,#204,#205,#206));
#801=EDGE_LOOP('',(#207,#208,#209,#210));
#802=EDGE_LOOP('',(#211,#212,#213,#214));
#803=EDGE_LOOP('',(#215,#216,#217,#218));
#804=EDGE_LOOP('',(#219,#220,#221,#222));
#805=EDGE_LOOP('',(#223,#224,#225,#226));
#806=EDGE_LOOP('',(#227,#228,#229,#230));
#807=EDGE_LOOP('',(#231));
#808=EDGE_LOOP('',(#232));
#809=EDGE_LOOP('',(#233));
#810=EDGE_LOOP('',(#234));
#811=EDGE_LOOP('',(#235));
#812=EDGE_LOOP('',(#236));
#813=EDGE_LOOP('',(#237,#238,#239,#240));
#814=EDGE_LOOP('',(#241,#242,#243,#244,#245,#246,#247,#248,#249,#250,#251,
#252));
#815=EDGE_LOOP('',(#253));
#816=EDGE_LOOP('',(#254));
#817=EDGE_LOOP('',(#255));
#818=EDGE_LOOP('',(#256));
#819=EDGE_LOOP('',(#257));
#820=EDGE_LOOP('',(#258));
#821=EDGE_LOOP('',(#259,#260,#261,#262));
#822=EDGE_LOOP('',(#263,#264,#265,#266));
#823=EDGE_LOOP('',(#267,#268,#269,#270));
#824=EDGE_LOOP('',(#271,#272,#273,#274));
#825=EDGE_LOOP('',(#275,#276,#277,#278));
#826=EDGE_LOOP('',(#279,#280,#281,#282));
#827=EDGE_LOOP('',(#283));
#828=EDGE_LOOP('',(#284));
#829=EDGE_LOOP('',(#285,#286,#287,#288,#289,#290));
#830=EDGE_LOOP('',(#291,#292,#293,#294,#295));
#831=EDGE_LOOP('',(#296,#297,#298,#299));
#832=EDGE_LOOP('',(#300,#301,#302,#303));
#833=EDGE_LOOP('',(#304,#305,#306,#307));
#834=EDGE_LOOP('',(#308,#309,#310,#311));
#835=EDGE_LOOP('',(#312,#313,#314,#315));
#836=EDGE_LOOP('',(#316,#317,#318,#319));
#837=EDGE_LOOP('',(#320,#321,#322,#323));
#838=EDGE_LOOP('',(#324,#325,#326,#327,#328));
#839=EDGE_LOOP('',(#329,#330,#331,#332));
#840=EDGE_LOOP('',(#333,#334,#335,#336));
#841=EDGE_LOOP('',(#337,#338,#339,#340));
#842=EDGE_LOOP('',(#341,#342,#343,#344,#345));
#843=EDGE_LOOP('',(#346,#347,#348,#349,#350,#351,#352,#353,#354,#355,#356,
#357,#358));
#844=EDGE_LOOP('',(#359,#360,#361,#362,#363));
#845=EDGE_LOOP('',(#364,#365,#366,#367));
#846=EDGE_LOOP('',(#368,#369,#370,#371,#372,#373,#374,#375,#376,#377,#378,
#379,#380,#381,#382,#383));
#847=EDGE_LOOP('',(#384,#385,#386,#387));
#848=FACE_BOUND('',#778,.T.);
#849=FACE_BOUND('',#779,.T.);
#850=FACE_BOUND('',#780,.T.);
#851=FACE_BOUND('',#781,.T.);
#852=FACE_BOUND('',#782,.T.);
#853=FACE_BOUND('',#783,.T.);
#854=FACE_BOUND('',#784,.T.);
#855=FACE_BOUND('',#785,.T.);
#856=FACE_BOUND('',#786,.T.);
#857=FACE_BOUND('',#787,.T.);
#858=FACE_BOUND('',#788,.T.);
#859=FACE_BOUND('',#789,.T.);
#860=FACE_BOUND('',#790,.T.);
#861=FACE_BOUND('',#791,.T.);
#862=FACE_BOUND('',#792,.T.);
#863=FACE_BOUND('',#793,.T.);
#864=FACE_BOUND('',#794,.T.);
#865=FACE_BOUND('',#795,.T.);
#866=FACE_BOUND('',#796,.T.);
#867=FACE_BOUND('',#797,.T.);
#868=FACE_BOUND('',#798,.T.);
#869=FACE_BOUND('',#799,.T.);
#870=FACE_BOUND('',#800,.T.);
#871=FACE_BOUND('',#801,.T.);
#872=FACE_BOUND('',#802,.T.);
#873=FACE_BOUND('',#803,.T.);
#874=FACE_BOUND('',#804,.T.);
#875=FACE_BOUND('',#805,.T.);
#876=FACE_BOUND('',#806,.T.);
#877=FACE_BOUND('',#807,.T.);
#878=FACE_BOUND('',#808,.T.);
#879=FACE_BOUND('',#809,.T.);
#880=FACE_BOUND('',#810,.T.);
#881=FACE_BOUND('',#811,.T.);
#882=FACE_BOUND('',#812,.T.);
#883=FACE_BOUND('',#813,.T.);
#884=FACE_BOUND('',#814,.T.);
#885=FACE_BOUND('',#815,.T.);
#886=FACE_BOUND('',#816,.T.);
#887=FACE_BOUND('',#817,.T.);
#888=FACE_BOUND('',#818,.T.);
#889=FACE_BOUND('',#819,.T.);
#890=FACE_BOUND('',#820,.T.);
#891=FACE_BOUND('',#821,.T.);
#892=FACE_BOUND('',#822,.T.);
#893=FACE_BOUND('',#823,.T.);
#894=FACE_BOUND('',#824,.T.);
#895=FACE_BOUND('',#825,.T.);
#896=FACE_BOUND('',#826,.T.);
#897=FACE_BOUND('',#827,.T.);
#898=FACE_BOUND('',#828,.T.);
#899=FACE_BOUND('',#829,.T.);
#900=FACE_BOUND('',#830,.T.);
#901=FACE_BOUND('',#831,.T.);
#902=FACE_BOUND('',#832,.T.);
#903=FACE_BOUND('',#833,.T.);
#904=FACE_BOUND('',#834,.T.);
#905=FACE_BOUND('',#835,.T.);
#906=FACE_BOUND('',#836,.T.);
#907=FACE_BOUND('',#837,.T.);
#908=FACE_BOUND('',#838,.T.);
#909=FACE_BOUND('',#839,.T.);
#910=FACE_BOUND('',#840,.T.);
#911=FACE_BOUND('',#841,.T.);
#912=FACE_BOUND('',#842,.T.);
#913=FACE_BOUND('',#843,.T.);
#914=FACE_BOUND('',#844,.T.);
#915=FACE_BOUND('',#845,.T.);
#916=FACE_BOUND('',#846,.T.);
#917=FACE_BOUND('',#847,.T.);
#918=PLANE('',#1014);
#919=PLANE('',#1023);
#920=PLANE('',#1028);
#921=PLANE('',#1029);
#922=PLANE('',#1030);
#923=PLANE('',#1031);
#924=PLANE('',#1032);
#925=PLANE('',#1034);
#926=PLANE('',#1038);
#927=PLANE('',#1041);
#928=PLANE('',#1042);
#929=PLANE('',#1044);
#930=PLANE('',#1052);
#931=PLANE('',#1060);
#932=PLANE('',#1063);
#933=PLANE('',#1066);
#934=PLANE('',#1067);
#935=PLANE('',#1073);
#936=PLANE('',#1074);
#937=PLANE('',#1080);
#938=PLANE('',#1081);
#939=PLANE('',#1085);
#940=PLANE('',#1089);
#941=PLANE('',#1090);
#942=PLANE('',#1096);
#943=PLANE('',#1097);
#944=ADVANCED_FACE('',(#848,#849,#850),#918,.T.);
#945=ADVANCED_FACE('',(#851,#852,#853,#854),#919,.F.);
#946=ADVANCED_FACE('',(#855),#920,.F.);
#947=ADVANCED_FACE('',(#856),#921,.F.);
#948=ADVANCED_FACE('',(#857),#922,.F.);
#949=ADVANCED_FACE('',(#858),#923,.F.);
#950=ADVANCED_FACE('',(#859),#924,.F.);
#951=ADVANCED_FACE('',(#860),#925,.F.);
#952=ADVANCED_FACE('',(#861),#46,.F.);
#953=ADVANCED_FACE('',(#862),#47,.F.);
#954=ADVANCED_FACE('',(#863),#48,.F.);
#955=ADVANCED_FACE('',(#864),#49,.F.);
#956=ADVANCED_FACE('',(#865),#50,.F.);
#957=ADVANCED_FACE('',(#866),#51,.F.);
#958=ADVANCED_FACE('',(#867),#52,.F.);
#959=ADVANCED_FACE('',(#868),#53,.F.);
#960=ADVANCED_FACE('',(#869),#54,.F.);
#961=ADVANCED_FACE('',(#870),#55,.F.);
#962=ADVANCED_FACE('',(#871),#56,.F.);
#963=ADVANCED_FACE('',(#872),#57,.F.);
#964=ADVANCED_FACE('',(#873),#27,.T.);
#965=ADVANCED_FACE('',(#874),#926,.T.);
#966=ADVANCED_FACE('',(#875),#28,.T.);
#967=ADVANCED_FACE('',(#876),#927,.T.);
#968=ADVANCED_FACE('',(#877),#928,.T.);
#969=ADVANCED_FACE('',(#878),#929,.T.);
#970=ADVANCED_FACE('',(#879,#880),#29,.F.);
#971=ADVANCED_FACE('',(#881,#882),#30,.F.);
#972=ADVANCED_FACE('',(#883),#31,.T.);
#973=ADVANCED_FACE('',(#884),#930,.T.);
#974=ADVANCED_FACE('',(#885,#886),#32,.F.);
#975=ADVANCED_FACE('',(#887,#888),#33,.F.);
#976=ADVANCED_FACE('',(#889,#890,#891),#931,.T.);
#977=ADVANCED_FACE('',(#892),#34,.T.);
#978=ADVANCED_FACE('',(#893),#35,.T.);
#979=ADVANCED_FACE('',(#894),#932,.T.);
#980=ADVANCED_FACE('',(#895),#36,.T.);
#981=ADVANCED_FACE('',(#896),#37,.T.);
#982=ADVANCED_FACE('',(#897,#898,#899),#933,.F.);
#983=ADVANCED_FACE('',(#900),#934,.F.);
#984=ADVANCED_FACE('',(#901),#38,.T.);
#985=ADVANCED_FACE('',(#902),#39,.T.);
#986=ADVANCED_FACE('',(#903),#935,.T.);
#987=ADVANCED_FACE('',(#904),#936,.F.);
#988=ADVANCED_FACE('',(#905),#40,.T.);
#989=ADVANCED_FACE('',(#906),#41,.T.);
#990=ADVANCED_FACE('',(#907),#937,.T.);
#991=ADVANCED_FACE('',(#908),#938,.T.);
#992=ADVANCED_FACE('',(#909),#42,.F.);
#993=ADVANCED_FACE('',(#910),#939,.F.);
#994=ADVANCED_FACE('',(#911),#43,.F.);
#995=ADVANCED_FACE('',(#912),#940,.F.);
#996=ADVANCED_FACE('',(#913),#941,.F.);
#997=ADVANCED_FACE('',(#914),#44,.T.);
#998=ADVANCED_FACE('',(#915),#45,.T.);
#999=ADVANCED_FACE('',(#916),#942,.T.);
#1000=ADVANCED_FACE('',(#917),#943,.F.);
#1001=CLOSED_SHELL('',(#944,#945,#946,#947,#948,#949,#950,#951,#952,#953,
#954,#955,#956,#957,#958,#959,#960,#961,#962,#963,#964,#965,#966,#967,#968,
#969,#970,#971,#972,#973,#974,#975,#976,#977,#978,#979,#980,#981,#982,#983,
#984,#985,#986,#987,#988,#989,#990,#991,#992,#993,#994,#995,#996,#997,#998,
#999,#1000));
#1002=STYLED_ITEM('',(#1003),#1010);
#1003=PRESENTATION_STYLE_ASSIGNMENT((#1004));
#1004=SURFACE_STYLE_USAGE(.BOTH.,#1005);
#1005=SURFACE_SIDE_STYLE('',(#1006));
#1006=SURFACE_STYLE_FILL_AREA(#1007);
#1007=FILL_AREA_STYLE('',(#1008));
#1008=FILL_AREA_STYLE_COLOUR('',#1009);
#1009=COLOUR_RGB('',0.611764705882353,0.658823529411765,0.670588235294118);
#1010=MANIFOLD_SOLID_BREP('BODY_housing_bracket_terminals (1)',#1001);
#1011=SHAPE_DEFINITION_REPRESENTATION(#1733,#1012);
#1012=SHAPE_REPRESENTATION('OOM-W01-02',(#1013),#1728);
#1013=AXIS2_PLACEMENT_3D('',#1348,#1099,#1100);
#1014=AXIS2_PLACEMENT_3D('',#1349,#1101,#1102);
#1015=AXIS2_PLACEMENT_3D('',#1353,#1104,#1105);
#1016=AXIS2_PLACEMENT_3D('',#1357,#1107,#1108);
#1017=AXIS2_PLACEMENT_3D('',#1361,#1110,#1111);
#1018=AXIS2_PLACEMENT_3D('',#1365,#1113,#1114);
#1019=AXIS2_PLACEMENT_3D('',#1366,#1115,#1116);
#1020=AXIS2_PLACEMENT_3D('',#1373,#1119,#1120);
#1021=AXIS2_PLACEMENT_3D('',#1376,#1122,#1123);
#1022=AXIS2_PLACEMENT_3D('',#1385,#1127,#1128);
#1023=AXIS2_PLACEMENT_3D('',#1388,#1130,#1131);
#1024=AXIS2_PLACEMENT_3D('',#1389,#1132,#1133);
#1025=AXIS2_PLACEMENT_3D('',#1394,#1135,#1136);
#1026=AXIS2_PLACEMENT_3D('',#1398,#1138,#1139);
#1027=AXIS2_PLACEMENT_3D('',#1402,#1141,#1142);
#1028=AXIS2_PLACEMENT_3D('',#1465,#1144,#1145);
#1029=AXIS2_PLACEMENT_3D('',#1472,#1150,#1151);
#1030=AXIS2_PLACEMENT_3D('',#1481,#1156,#1157);
#1031=AXIS2_PLACEMENT_3D('',#1490,#1162,#1163);
#1032=AXIS2_PLACEMENT_3D('',#1499,#1168,#1169);
#1033=AXIS2_PLACEMENT_3D('',#1500,#1170,#1171);
#1034=AXIS2_PLACEMENT_3D('',#1502,#1172,#1173);
#1035=AXIS2_PLACEMENT_3D('',#1503,#1174,#1175);
#1036=AXIS2_PLACEMENT_3D('',#1577,#1176,#1177);
#1037=AXIS2_PLACEMENT_3D('',#1580,#1179,#1180);
#1038=AXIS2_PLACEMENT_3D('',#1583,#1182,#1183);
#1039=AXIS2_PLACEMENT_3D('',#1587,#1186,#1187);
#1040=AXIS2_PLACEMENT_3D('',#1590,#1189,#1190);
#1041=AXIS2_PLACEMENT_3D('',#1591,#1191,#1192);
#1042=AXIS2_PLACEMENT_3D('',#1595,#1195,#1196);
#1043=AXIS2_PLACEMENT_3D('',#1596,#1197,#1198);
#1044=AXIS2_PLACEMENT_3D('',#1598,#1199,#1200);
#1045=AXIS2_PLACEMENT_3D('',#1599,#1201,#1202);
#1046=AXIS2_PLACEMENT_3D('',#1601,#1203,#1204);
#1047=AXIS2_PLACEMENT_3D('',#1602,#1205,#1206);
#1048=AXIS2_PLACEMENT_3D('',#1604,#1207,#1208);
#1049=AXIS2_PLACEMENT_3D('',#1605,#1209,#1210);
#1050=AXIS2_PLACEMENT_3D('',#1607,#1211,#1212);
#1051=AXIS2_PLACEMENT_3D('',#1608,#1213,#1214);
#1052=AXIS2_PLACEMENT_3D('',#1609,#1215,#1216);
#1053=AXIS2_PLACEMENT_3D('',#1613,#1218,#1219);
#1054=AXIS2_PLACEMENT_3D('',#1616,#1221,#1222);
#1055=AXIS2_PLACEMENT_3D('',#1620,#1224,#1225);
#1056=AXIS2_PLACEMENT_3D('',#1621,#1226,#1227);
#1057=AXIS2_PLACEMENT_3D('',#1622,#1228,#1229);
#1058=AXIS2_PLACEMENT_3D('',#1624,#1230,#1231);
#1059=AXIS2_PLACEMENT_3D('',#1625,#1232,#1233);
#1060=AXIS2_PLACEMENT_3D('',#1627,#1234,#1235);
#1061=AXIS2_PLACEMENT_3D('',#1630,#1238,#1239);
#1062=AXIS2_PLACEMENT_3D('',#1631,#1240,#1241);
#1063=AXIS2_PLACEMENT_3D('',#1633,#1243,#1244);
#1064=AXIS2_PLACEMENT_3D('',#1635,#1246,#1247);
#1065=AXIS2_PLACEMENT_3D('',#1637,#1249,#1250);
#1066=AXIS2_PLACEMENT_3D('',#1639,#1252,#1253);
#1067=AXIS2_PLACEMENT_3D('',#1640,#1254,#1255);
#1068=AXIS2_PLACEMENT_3D('',#1648,#1260,#1261);
#1069=AXIS2_PLACEMENT_3D('',#1649,#1262,#1263);
#1070=AXIS2_PLACEMENT_3D('',#1651,#1264,#1265);
#1071=AXIS2_PLACEMENT_3D('',#1654,#1267,#1268);
#1072=AXIS2_PLACEMENT_3D('',#1657,#1270,#1271);
#1073=AXIS2_PLACEMENT_3D('',#1658,#1272,#1273);
#1074=AXIS2_PLACEMENT_3D('',#1664,#1277,#1278);
#1075=AXIS2_PLACEMENT_3D('',#1668,#1281,#1282);
#1076=AXIS2_PLACEMENT_3D('',#1669,#1283,#1284);
#1077=AXIS2_PLACEMENT_3D('',#1671,#1285,#1286);
#1078=AXIS2_PLACEMENT_3D('',#1674,#1288,#1289);
#1079=AXIS2_PLACEMENT_3D('',#1677,#1291,#1292);
#1080=AXIS2_PLACEMENT_3D('',#1678,#1293,#1294);
#1081=AXIS2_PLACEMENT_3D('',#1684,#1298,#1299);
#1082=AXIS2_PLACEMENT_3D('',#1690,#1303,#1304);
#1083=AXIS2_PLACEMENT_3D('',#1691,#1305,#1306);
#1084=AXIS2_PLACEMENT_3D('',#1693,#1307,#1308);
#1085=AXIS2_PLACEMENT_3D('',#1696,#1310,#1311);
#1086=AXIS2_PLACEMENT_3D('',#1702,#1315,#1316);
#1087=AXIS2_PLACEMENT_3D('',#1703,#1317,#1318);
#1088=AXIS2_PLACEMENT_3D('',#1705,#1319,#1320);
#1089=AXIS2_PLACEMENT_3D('',#1708,#1322,#1323);
#1090=AXIS2_PLACEMENT_3D('',#1713,#1327,#1328);
#1091=AXIS2_PLACEMENT_3D('',#1714,#1329,#1330);
#1092=AXIS2_PLACEMENT_3D('',#1715,#1331,#1332);
#1093=AXIS2_PLACEMENT_3D('',#1718,#1334,#1335);
#1094=AXIS2_PLACEMENT_3D('',#1719,#1336,#1337);
#1095=AXIS2_PLACEMENT_3D('',#1722,#1339,#1340);
#1096=AXIS2_PLACEMENT_3D('',#1723,#1341,#1342);
#1097=AXIS2_PLACEMENT_3D('',#1725,#1344,#1345);
#1098=AXIS2_PLACEMENT_3D('DATUM_CSYS(13)',#1726,#1346,#1347);
#1099=DIRECTION('',(0.,0.,1.));
#1100=DIRECTION('',(1.,0.,0.));
#1101=DIRECTION('',(0.,0.,1.));
#1102=DIRECTION('',(1.,0.,0.));
#1103=DIRECTION('',(0.,1.,0.));
#1104=DIRECTION('',(0.,0.,1.));
#1105=DIRECTION('',(1.,0.,0.));
#1106=DIRECTION('',(1.,0.,0.));
#1107=DIRECTION('',(0.,0.,1.));
#1108=DIRECTION('',(1.,0.,0.));
#1109=DIRECTION('',(0.,1.,0.));
#1110=DIRECTION('',(0.,0.,1.));
#1111=DIRECTION('',(1.,0.,0.));
#1112=DIRECTION('',(1.,0.,0.));
#1113=DIRECTION('',(0.,0.,1.));
#1114=DIRECTION('',(1.,0.,0.));
#1115=DIRECTION('',(0.,0.,1.));
#1116=DIRECTION('',(1.,0.,0.));
#1117=DIRECTION('',(1.,0.,0.));
#1118=DIRECTION('',(-0.108186983499862,-0.994130563156168,0.));
#1119=DIRECTION('',(0.,0.,1.));
#1120=DIRECTION('',(1.,0.,0.));
#1121=DIRECTION('',(0.,1.,0.));
#1122=DIRECTION('',(0.,0.,1.));
#1123=DIRECTION('',(1.,0.,0.));
#1124=DIRECTION('',(1.,0.,0.));
#1125=DIRECTION('',(-0.108186983499862,-0.994130563156168,0.));
#1126=DIRECTION('',(1.,0.,0.));
#1127=DIRECTION('',(0.,0.,1.));
#1128=DIRECTION('',(1.,0.,0.));
#1129=DIRECTION('',(0.,1.,0.));
#1130=DIRECTION('',(0.,0.,1.));
#1131=DIRECTION('',(1.,0.,0.));
#1132=DIRECTION('',(0.,0.,1.));
#1133=DIRECTION('',(1.,0.,0.));
#1134=DIRECTION('',(0.,1.,0.));
#1135=DIRECTION('',(0.,0.,1.));
#1136=DIRECTION('',(1.,0.,0.));
#1137=DIRECTION('',(1.,0.,0.));
#1138=DIRECTION('',(0.,0.,1.));
#1139=DIRECTION('',(1.,0.,0.));
#1140=DIRECTION('',(0.,1.,0.));
#1141=DIRECTION('',(0.,0.,1.));
#1142=DIRECTION('',(1.,0.,0.));
#1143=DIRECTION('',(1.,0.,0.));
#1144=DIRECTION('',(1.,0.,0.));
#1145=DIRECTION('',(0.,0.,1.));
#1146=DIRECTION('',(0.,0.,-1.));
#1147=DIRECTION('',(0.,0.,1.));
#1148=DIRECTION('',(0.,1.,0.));
#1149=DIRECTION('',(0.,0.,1.));
#1150=DIRECTION('',(0.,0.,1.));
#1151=DIRECTION('',(0.514495755427674,0.857492925712456,0.));
#1152=DIRECTION('',(1.,0.,0.));
#1153=DIRECTION('',(0.,1.,0.));
#1154=DIRECTION('',(1.,0.,0.));
#1155=DIRECTION('',(0.,1.,0.));
#1156=DIRECTION('',(0.,0.,1.));
#1157=DIRECTION('',(0.514495755427674,0.857492925712456,0.));
#1158=DIRECTION('',(1.,0.,0.));
#1159=DIRECTION('',(0.,1.,0.));
#1160=DIRECTION('',(1.,0.,0.));
#1161=DIRECTION('',(0.,1.,0.));
#1162=DIRECTION('',(0.,0.,1.));
#1163=DIRECTION('',(0.514495755427674,0.857492925712456,0.));
#1164=DIRECTION('',(1.,0.,0.));
#1165=DIRECTION('',(0.,1.,0.));
#1166=DIRECTION('',(1.,0.,0.));
#1167=DIRECTION('',(0.,1.,0.));
#1168=DIRECTION('',(0.,-1.,2.22044604925E-16));
#1169=DIRECTION('',(1.,0.,0.));
#1170=DIRECTION('',(0.,-1.,2.22044604925E-16));
#1171=DIRECTION('',(0.,-2.22044604925E-16,-1.));
#1172=DIRECTION('',(0.,-1.,2.22044604925E-16));
#1173=DIRECTION('',(1.,0.,0.));
#1174=DIRECTION('',(0.,-1.,2.22044604925E-16));
#1175=DIRECTION('',(0.,-2.22044604925E-16,-1.));
#1176=DIRECTION('',(0.,0.,1.));
#1177=DIRECTION('',(1.,0.,0.));
#1178=DIRECTION('',(0.,0.,1.));
#1179=DIRECTION('',(0.,0.,1.));
#1180=DIRECTION('',(1.,0.,0.));
#1181=DIRECTION('',(0.,0.,-1.));
#1182=DIRECTION('',(1.,0.,0.));
#1183=DIRECTION('',(0.,0.,1.));
#1184=DIRECTION('',(0.,1.,0.));
#1185=DIRECTION('',(0.,0.,-1.));
#1186=DIRECTION('',(0.,0.,-1.));
#1187=DIRECTION('',(-1.,0.,0.));
#1188=DIRECTION('',(0.,0.,1.));
#1189=DIRECTION('',(0.,0.,1.));
#1190=DIRECTION('',(1.,0.,0.));
#1191=DIRECTION('',(0.,1.,0.));
#1192=DIRECTION('',(0.,0.,1.));
#1193=DIRECTION('',(0.,0.,-1.));
#1194=DIRECTION('',(1.,0.,0.));
#1195=DIRECTION('',(0.,-1.,2.22044604925E-16));
#1196=DIRECTION('',(1.,0.,0.));
#1197=DIRECTION('',(0.,-1.,2.22044604925E-16));
#1198=DIRECTION('',(0.,-2.22044604925E-16,-1.));
#1199=DIRECTION('',(0.,-1.,2.22044604925E-16));
#1200=DIRECTION('',(1.,0.,0.));
#1201=DIRECTION('',(0.,-1.,2.22044604925E-16));
#1202=DIRECTION('',(1.,0.,0.));
#1203=DIRECTION('',(0.,-1.,2.22044604925E-16));
#1204=DIRECTION('',(1.,0.,0.));
#1205=DIRECTION('',(0.,1.,0.));
#1206=DIRECTION('',(0.,0.,1.));
#1207=DIRECTION('',(0.,-1.,2.22044604925E-16));
#1208=DIRECTION('',(1.,0.,0.));
#1209=DIRECTION('',(0.,1.,0.));
#1210=DIRECTION('',(0.,0.,1.));
#1211=DIRECTION('',(0.,0.,1.));
#1212=DIRECTION('',(1.,0.,0.));
#1213=DIRECTION('',(0.,0.,1.));
#1214=DIRECTION('',(1.,0.,0.));
#1215=DIRECTION('',(0.,0.,1.));
#1216=DIRECTION('',(1.,0.,0.));
#1217=DIRECTION('',(0.,1.,0.));
#1218=DIRECTION('',(0.,0.,1.));
#1219=DIRECTION('',(1.,0.,0.));
#1220=DIRECTION('',(1.,0.,0.));
#1221=DIRECTION('',(0.,0.,1.));
#1222=DIRECTION('',(1.,0.,0.));
#1223=DIRECTION('',(1.,0.,0.));
#1224=DIRECTION('',(0.,0.,1.));
#1225=DIRECTION('',(1.,0.,0.));
#1226=DIRECTION('',(0.,-1.,2.22044604925E-16));
#1227=DIRECTION('',(1.,0.,0.));
#1228=DIRECTION('',(0.,1.,0.));
#1229=DIRECTION('',(0.,0.,1.));
#1230=DIRECTION('',(0.,-1.,2.22044604925E-16));
#1231=DIRECTION('',(1.,0.,0.));
#1232=DIRECTION('',(0.,1.,0.));
#1233=DIRECTION('',(0.,0.,1.));
#1234=DIRECTION('',(0.,1.,0.));
#1235=DIRECTION('',(0.,0.,1.));
#1236=DIRECTION('',(0.,0.,-1.));
#1237=DIRECTION('',(0.,0.,1.));
#1238=DIRECTION('',(0.,0.,1.));
#1239=DIRECTION('',(1.,0.,0.));
#1240=DIRECTION('',(0.,0.,-1.));
#1241=DIRECTION('',(-1.,0.,0.));
#1242=DIRECTION('',(0.,0.,-1.));
#1243=DIRECTION('',(1.,0.,0.));
#1244=DIRECTION('',(0.,0.,1.));
#1245=DIRECTION('',(0.,0.,1.));
#1246=DIRECTION('',(0.,0.,-1.));
#1247=DIRECTION('',(-1.,0.,0.));
#1248=DIRECTION('',(0.,0.,1.));
#1249=DIRECTION('',(0.,0.,1.));
#1250=DIRECTION('',(1.,0.,0.));
#1251=DIRECTION('',(0.,0.,-1.));
#1252=DIRECTION('',(0.,1.,0.));
#1253=DIRECTION('',(0.,0.,1.));
#1254=DIRECTION('',(0.,-1.,0.));
#1255=DIRECTION('',(1.,0.,0.));
#1256=DIRECTION('',(0.,0.,-1.));
#1257=DIRECTION('',(-0.963550869036011,0.,-0.267525181581003));
#1258=DIRECTION('',(0.,0.,1.));
#1259=DIRECTION('',(-0.963550869036011,0.,-0.267525181581003));
#1260=DIRECTION('',(0.,0.,1.));
#1261=DIRECTION('',(1.,0.,0.));
#1262=DIRECTION('',(-0.267411876025117,0.0291012924171127,0.963142774120421));
#1263=DIRECTION('',(0.957489668436109,-0.104199511412012,0.268990699950031));
#1264=DIRECTION('',(-0.267411876025117,0.0291012924171127,0.963142774120421));
#1265=DIRECTION('',(0.957489668436109,-0.104199511412012,0.268990699950031));
#1266=DIRECTION('',(0.,0.,1.));
#1267=DIRECTION('',(0.,0.,-1.));
#1268=DIRECTION('',(-1.,0.,0.));
#1269=DIRECTION('',(0.,0.,-1.));
#1270=DIRECTION('',(0.267411876025117,-0.0291012924171127,-0.963142774120421));
#1271=DIRECTION('',(-0.957489668436109,0.104199511412012,-0.268990699950031));
#1272=DIRECTION('',(1.,0.,0.));
#1273=DIRECTION('',(0.,1.,0.));
#1274=DIRECTION('',(0.,-0.999543841284883,0.0302011481480465));
#1275=DIRECTION('',(0.,0.,1.));
#1276=DIRECTION('',(0.,-0.999543841284883,0.0302011481480465));
#1277=DIRECTION('',(1.,0.,0.));
#1278=DIRECTION('',(0.,1.,0.));
#1279=DIRECTION('',(0.,0.,-1.));
#1280=DIRECTION('',(0.,-0.999543841284882,0.0302011481480716));
#1281=DIRECTION('',(0.,0.,1.));
#1282=DIRECTION('',(0.,-1.,0.));
#1283=DIRECTION('',(-0.267411876025117,0.0291012924171127,0.963142774120421));
#1284=DIRECTION('',(0.957489668436109,-0.104199511412012,0.268990699950031));
#1285=DIRECTION('',(-0.267411876025117,0.0291012924171127,0.963142774120421));
#1286=DIRECTION('',(0.957489668436109,-0.104199511412012,0.268990699950031));
#1287=DIRECTION('',(0.,0.,1.));
#1288=DIRECTION('',(0.,0.,-1.));
#1289=DIRECTION('',(0.,-1.,0.));
#1290=DIRECTION('',(0.,0.,-1.));
#1291=DIRECTION('',(0.267411876025117,-0.0291012924171127,-0.963142774120421));
#1292=DIRECTION('',(-0.957489668436109,0.104199511412012,-0.268990699950031));
#1293=DIRECTION('',(0.,-1.,0.));
#1294=DIRECTION('',(1.,0.,0.));
#1295=DIRECTION('',(-0.963550869036011,0.,-0.267525181581003));
#1296=DIRECTION('',(0.,0.,1.));
#1297=DIRECTION('',(-0.963550869036011,0.,-0.267525181581003));
#1298=DIRECTION('',(0.,-1.,0.));
#1299=DIRECTION('',(1.,0.,0.));
#1300=DIRECTION('',(-0.963550869036011,0.,-0.267525181581003));
#1301=DIRECTION('',(0.,0.,-1.));
#1302=DIRECTION('',(-0.963550869036011,0.,-0.267525181581003));
#1303=DIRECTION('',(0.,0.,-1.));
#1304=DIRECTION('',(1.,0.,0.));
#1305=DIRECTION('',(-0.267411876025117,0.0291012924171127,0.963142774120421));
#1306=DIRECTION('',(-0.957489668436109,0.104199511412012,-0.268990699950031));
#1307=DIRECTION('',(-0.267411876025117,0.0291012924171127,0.963142774120421));
#1308=DIRECTION('',(-0.957489668436109,0.104199511412012,-0.268990699950031));
#1309=DIRECTION('',(0.,0.,-1.));
#1310=DIRECTION('',(1.,0.,0.));
#1311=DIRECTION('',(0.,1.,0.));
#1312=DIRECTION('',(0.,-0.999543841284883,0.0302011481480465));
#1313=DIRECTION('',(0.,0.,-1.));
#1314=DIRECTION('',(0.,-0.999543841284883,0.0302011481480465));
#1315=DIRECTION('',(0.,0.,-1.));
#1316=DIRECTION('',(0.,-1.,0.));
#1317=DIRECTION('',(-0.267411876025117,0.0291012924171127,0.963142774120421));
#1318=DIRECTION('',(-0.957489668436109,0.104199511412012,-0.268990699950031));
#1319=DIRECTION('',(-0.267411876025117,0.0291012924171127,0.963142774120421));
#1320=DIRECTION('',(-0.957489668436109,0.104199511412012,-0.268990699950031));
#1321=DIRECTION('',(0.,0.,-1.));
#1322=DIRECTION('',(0.,-1.,0.));
#1323=DIRECTION('',(1.,0.,0.));
#1324=DIRECTION('',(0.,0.,-1.));
#1325=DIRECTION('',(-0.963550869036011,0.,-0.267525181581003));
#1326=DIRECTION('',(-0.963550869036011,0.,-0.267525181581003));
#1327=DIRECTION('',(-0.267411876025117,0.0291012924171127,0.963142774120421));
#1328=DIRECTION('',(0.963550869036011,-3.46944695195404E-18,0.267525181581003));
#1329=DIRECTION('',(-0.267411876025117,0.0291012924171127,0.963142774120421));
#1330=DIRECTION('',(0.957489668436109,-0.104199511412012,0.268990699950031));
#1331=DIRECTION('',(0.,0.,1.));
#1332=DIRECTION('',(-1.,0.,0.));
#1333=DIRECTION('',(0.,0.,1.));
#1334=DIRECTION('',(-0.267411876025117,0.0291012924171127,0.963142774120421));
#1335=DIRECTION('',(0.957489668436109,-0.104199511412012,0.268990699950031));
#1336=DIRECTION('',(0.,0.,-1.));
#1337=DIRECTION('',(-1.,0.,0.));
#1338=DIRECTION('',(0.,0.,-1.));
#1339=DIRECTION('',(0.267411876025117,-0.0291012924171127,-0.963142774120421));
#1340=DIRECTION('',(-0.957489668436109,0.104199511412012,-0.268990699950031));
#1341=DIRECTION('',(-0.267411876025117,0.0291012924171127,0.963142774120421));
#1342=DIRECTION('',(0.963550869036011,-3.46944695195404E-18,0.267525181581003));
#1343=DIRECTION('',(0.,-0.999543841284883,0.0302011481480465));
#1344=DIRECTION('',(1.,0.,0.));
#1345=DIRECTION('',(0.,1.,0.));
#1346=DIRECTION('',(0.,0.,1.));
#1347=DIRECTION('',(1.,0.,0.));
#1348=CARTESIAN_POINT('',(0.,0.,0.));
#1349=CARTESIAN_POINT('',(-7.175,-5.7529,2.97517928022));
#1350=CARTESIAN_POINT('',(-7.175,-5.7529,2.97517928022));
#1351=CARTESIAN_POINT('',(-7.175,-4.725,2.97517928022));
#1352=CARTESIAN_POINT('',(-7.175,0.0750000000000013,2.97517928022));
#1353=CARTESIAN_POINT('',(-6.725,-4.725,2.97517928022));
#1354=CARTESIAN_POINT('',(-6.725,-5.175,2.97517928022));
#1355=CARTESIAN_POINT('',(-7.175,-5.175,2.97517928022));
#1356=CARTESIAN_POINT('',(5.125,-5.175,2.97517928022));
#1357=CARTESIAN_POINT('',(5.125,-4.725,2.97517928022));
#1358=CARTESIAN_POINT('',(5.575,-4.725,2.97517928022));
#1359=CARTESIAN_POINT('',(5.575,-5.7529,2.97517928022));
#1360=CARTESIAN_POINT('',(5.575,0.0750000000000013,2.97517928022));
#1361=CARTESIAN_POINT('',(5.125,0.0750000000000013,2.97517928022));
#1362=CARTESIAN_POINT('',(5.125,0.525000000000001,2.97517928022));
#1363=CARTESIAN_POINT('',(-7.175,0.525000000000001,2.97517928022));
#1364=CARTESIAN_POINT('',(-6.725,0.525000000000001,2.97517928022));
#1365=CARTESIAN_POINT('',(-6.725,0.0750000000000013,2.97517928022));
#1366=CARTESIAN_POINT('',(-5.8521,-3.7137,2.97517928022));
#1367=CARTESIAN_POINT('',(-5.8521,-3.4137,2.97517928022));
#1368=CARTESIAN_POINT('',(-6.1521,-3.7137,2.97517928022));
#1369=CARTESIAN_POINT('',(-7.175,-3.4137,2.97517928022));
#1370=CARTESIAN_POINT('',(-5.8459359031443,-3.41370000000019,2.97517928022618));
#1371=CARTESIAN_POINT('',(-6.1130774396558,-5.8684644970308,2.97517928022));
#1372=CARTESIAN_POINT('',(-5.99926318662569,-4.82262493473682,2.97517928022));
#1373=CARTESIAN_POINT('',(-5.8521,-4.5612,2.97517928022));
#1374=CARTESIAN_POINT('',(-6.1521,-4.5612,2.97517928022));
#1375=CARTESIAN_POINT('',(-6.1521,-5.7529,2.97517928022));
#1376=CARTESIAN_POINT('',(-5.8521,-1.4177,2.97517928022));
#1377=CARTESIAN_POINT('',(-5.8521,-1.1177,2.97517928022));
#1378=CARTESIAN_POINT('',(-6.1521,-1.4177,2.97517928022));
#1379=CARTESIAN_POINT('',(-7.175,-1.1177,2.97517928022));
#1380=CARTESIAN_POINT('',(-5.59607202879863,-1.11770000000019,2.97517928022634));
#1381=CARTESIAN_POINT('',(-6.1130774396558,-5.8684644970308,2.97517928022));
#1382=CARTESIAN_POINT('',(-5.73928668848443,-2.43370000000017,2.97517928022579));
#1383=CARTESIAN_POINT('',(-7.175,-2.4337,2.97517928022));
#1384=CARTESIAN_POINT('',(-5.8521,-2.4337,2.97517928022));
#1385=CARTESIAN_POINT('',(-5.8521,-2.1337,2.97517928022));
#1386=CARTESIAN_POINT('',(-6.1521,-2.1337,2.97517928022));
#1387=CARTESIAN_POINT('',(-6.1521,-5.7529,2.97517928022));
#1388=CARTESIAN_POINT('',(-7.175,-5.7529,-5.17482071978));
#1389=CARTESIAN_POINT('',(-6.725,-4.725,-5.17482071978));
#1390=CARTESIAN_POINT('',(-7.175,-4.725,-5.17482071978));
#1391=CARTESIAN_POINT('',(-6.725,-5.175,-5.17482071978));
#1392=CARTESIAN_POINT('',(-7.175,-5.7529,-5.17482071978));
#1393=CARTESIAN_POINT('',(-7.175,4.875,-5.17482071978));
#1394=CARTESIAN_POINT('',(-6.875,4.875,-5.17482071978));
#1395=CARTESIAN_POINT('',(-6.875,5.175,-5.17482071978));
#1396=CARTESIAN_POINT('',(-7.175,5.175,-5.17482071978));
#1397=CARTESIAN_POINT('',(5.625,5.175,-5.17482071978));
#1398=CARTESIAN_POINT('',(5.625,3.625,-5.17482071978));
#1399=CARTESIAN_POINT('',(7.175,3.625,-5.17482071978));
#1400=CARTESIAN_POINT('',(7.175,-5.7529,-5.17482071978));
#1401=CARTESIAN_POINT('',(7.175,-3.625,-5.17482071978));
#1402=CARTESIAN_POINT('',(5.625,-3.625,-5.17482071978));
#1403=CARTESIAN_POINT('',(5.625,-5.175,-5.17482071978));
#1404=CARTESIAN_POINT('',(-7.175,-5.175,-5.17482071978));
#1405=CARTESIAN_POINT('',(-5.221825,-3.9044125,-5.17482071978));
#1406=CARTESIAN_POINT('',(-5.221825,-2.9907375,-5.17482071978));
#1407=CARTESIAN_POINT('',(-5.221825,-2.0770625,-5.17482071978));
#1408=CARTESIAN_POINT('',(-5.221825,-1.1633875,-5.17482071978));
#1409=CARTESIAN_POINT('',(-5.221825,-3.9044125,-5.17482071978));
#1410=CARTESIAN_POINT('',(-5.221825,-1.1633875,-5.17482071978));
#1411=CARTESIAN_POINT('',(-6.949175,-1.1633875,-5.17482071978));
#1412=CARTESIAN_POINT('',(-6.37339166666667,-1.1633875,-5.17482071978));
#1413=CARTESIAN_POINT('',(-5.79760833333333,-1.1633875,-5.17482071978));
#1414=CARTESIAN_POINT('',(-5.221825,-1.1633875,-5.17482071978));
#1415=CARTESIAN_POINT('',(-6.949175,-1.1633875,-5.17482071978));
#1416=CARTESIAN_POINT('',(-6.949175,-3.9044125,-5.17482071978));
#1417=CARTESIAN_POINT('',(-6.949175,-2.9907375,-5.17482071978));
#1418=CARTESIAN_POINT('',(-6.949175,-2.0770625,-5.17482071978));
#1419=CARTESIAN_POINT('',(-6.949175,-1.1633875,-5.17482071978));
#1420=CARTESIAN_POINT('',(-6.949175,-3.9044125,-5.17482071978));
#1421=CARTESIAN_POINT('',(-6.949175,-3.9044125,-5.17482071978));
#1422=CARTESIAN_POINT('',(-6.37339166666667,-3.9044125,-5.17482071978));
#1423=CARTESIAN_POINT('',(-5.79760833333333,-3.9044125,-5.17482071978));
#1424=CARTESIAN_POINT('',(-5.221825,-3.9044125,-5.17482071978));
#1425=CARTESIAN_POINT('',(0.0611750000000001,-3.9044125,-5.17482071978));
#1426=CARTESIAN_POINT('',(0.0611750000000001,-2.9907375,-5.17482071978));
#1427=CARTESIAN_POINT('',(0.0611750000000001,-2.0770625,-5.17482071978));
#1428=CARTESIAN_POINT('',(0.0611750000000001,-1.1633875,-5.17482071978));
#1429=CARTESIAN_POINT('',(0.0611750000000001,-3.9044125,-5.17482071978));
#1430=CARTESIAN_POINT('',(0.0611750000000001,-1.1633875,-5.17482071978));
#1431=CARTESIAN_POINT('',(-1.666175,-1.1633875,-5.17482071978));
#1432=CARTESIAN_POINT('',(-1.09039166666667,-1.1633875,-5.17482071978));
#1433=CARTESIAN_POINT('',(-0.514608333333333,-1.1633875,-5.17482071978));
#1434=CARTESIAN_POINT('',(0.0611750000000001,-1.1633875,-5.17482071978));
#1435=CARTESIAN_POINT('',(-1.666175,-1.1633875,-5.17482071978));
#1436=CARTESIAN_POINT('',(-1.666175,-3.9044125,-5.17482071978));
#1437=CARTESIAN_POINT('',(-1.666175,-2.9907375,-5.17482071978));
#1438=CARTESIAN_POINT('',(-1.666175,-2.0770625,-5.17482071978));
#1439=CARTESIAN_POINT('',(-1.666175,-1.1633875,-5.17482071978));
#1440=CARTESIAN_POINT('',(-1.666175,-3.9044125,-5.17482071978));
#1441=CARTESIAN_POINT('',(-1.666175,-3.9044125,-5.17482071978));
#1442=CARTESIAN_POINT('',(-1.09039166666667,-3.9044125,-5.17482071978));
#1443=CARTESIAN_POINT('',(-0.514608333333333,-3.9044125,-5.17482071978));
#1444=CARTESIAN_POINT('',(0.0611750000000001,-3.9044125,-5.17482071978));
#1445=CARTESIAN_POINT('',(5.344175,-3.9044125,-5.17482071978));
#1446=CARTESIAN_POINT('',(5.344175,-2.9907375,-5.17482071978));
#1447=CARTESIAN_POINT('',(5.344175,-2.0770625,-5.17482071978));
#1448=CARTESIAN_POINT('',(5.344175,-1.1633875,-5.17482071978));
#1449=CARTESIAN_POINT('',(5.344175,-3.9044125,-5.17482071978));
#1450=CARTESIAN_POINT('',(5.344175,-1.1633875,-5.17482071978));
#1451=CARTESIAN_POINT('',(3.616825,-1.1633875,-5.17482071978));
#1452=CARTESIAN_POINT('',(4.19260833333333,-1.1633875,-5.17482071978));
#1453=CARTESIAN_POINT('',(4.76839166666667,-1.1633875,-5.17482071978));
#1454=CARTESIAN_POINT('',(5.344175,-1.1633875,-5.17482071978));
#1455=CARTESIAN_POINT('',(3.616825,-1.1633875,-5.17482071978));
#1456=CARTESIAN_POINT('',(3.616825,-3.9044125,-5.17482071978));
#1457=CARTESIAN_POINT('',(3.616825,-2.9907375,-5.17482071978));
#1458=CARTESIAN_POINT('',(3.616825,-2.0770625,-5.17482071978));
#1459=CARTESIAN_POINT('',(3.616825,-1.1633875,-5.17482071978));
#1460=CARTESIAN_POINT('',(3.616825,-3.9044125,-5.17482071978));
#1461=CARTESIAN_POINT('',(3.616825,-3.9044125,-5.17482071978));
#1462=CARTESIAN_POINT('',(4.19260833333333,-3.9044125,-5.17482071978));
#1463=CARTESIAN_POINT('',(4.76839166666667,-3.9044125,-5.17482071978));
#1464=CARTESIAN_POINT('',(5.344175,-3.9044125,-5.17482071978));
#1465=CARTESIAN_POINT('',(-7.175,-5.7529,-3.92482071978));
#1466=CARTESIAN_POINT('',(-7.175,-4.725,-3.92482071978));
#1467=CARTESIAN_POINT('',(-7.175,0.0750000000000013,-3.92482071978));
#1468=CARTESIAN_POINT('',(-7.175,0.0750000000000013,-3.92482071978));
#1469=CARTESIAN_POINT('',(-7.175,-5.7529,-3.92482071978));
#1470=CARTESIAN_POINT('',(-7.175,4.875,-3.92482071978));
#1471=CARTESIAN_POINT('',(-7.175,4.875,-3.92482071978));
#1472=CARTESIAN_POINT('',(-6.5355,-3.2839,-6.82952071978));
#1473=CARTESIAN_POINT('',(4.4805,-1.7839,-6.82952071978));
#1474=CARTESIAN_POINT('',(4.0305,-1.7839,-6.82952071978));
#1475=CARTESIAN_POINT('',(4.9305,-1.7839,-6.82952071978));
#1476=CARTESIAN_POINT('',(4.9305,-2.5339,-6.82952071978));
#1477=CARTESIAN_POINT('',(4.9305,-3.2839,-6.82952071978));
#1478=CARTESIAN_POINT('',(4.4805,-3.2839,-6.82952071978));
#1479=CARTESIAN_POINT('',(4.0305,-3.2839,-6.82952071978));
#1480=CARTESIAN_POINT('',(4.0305,-2.5339,-6.82952071978));
#1481=CARTESIAN_POINT('',(-6.5355,-3.2839,-6.82952071978));
#1482=CARTESIAN_POINT('',(-0.8025,-1.7839,-6.82952071978));
#1483=CARTESIAN_POINT('',(-1.2525,-1.7839,-6.82952071978));
#1484=CARTESIAN_POINT('',(-0.3525,-1.7839,-6.82952071978));
#1485=CARTESIAN_POINT('',(-0.3525,-2.5339,-6.82952071978));
#1486=CARTESIAN_POINT('',(-0.3525,-3.2839,-6.82952071978));
#1487=CARTESIAN_POINT('',(-0.8025,-3.2839,-6.82952071978));
#1488=CARTESIAN_POINT('',(-1.2525,-3.2839,-6.82952071978));
#1489=CARTESIAN_POINT('',(-1.2525,-2.5339,-6.82952071978));
#1490=CARTESIAN_POINT('',(-6.5355,-3.2839,-6.82952071978));
#1491=CARTESIAN_POINT('',(-6.0855,-1.7839,-6.82952071978));
#1492=CARTESIAN_POINT('',(-6.5355,-1.7839,-6.82952071978));
#1493=CARTESIAN_POINT('',(-5.6355,-1.7839,-6.82952071978));
#1494=CARTESIAN_POINT('',(-5.6355,-2.5339,-6.82952071978));
#1495=CARTESIAN_POINT('',(-5.6355,-3.2839,-6.82952071978));
#1496=CARTESIAN_POINT('',(-6.0855,-3.2839,-6.82952071978));
#1497=CARTESIAN_POINT('',(-6.5355,-3.2839,-6.82952071978));
#1498=CARTESIAN_POINT('',(-6.5355,-2.5339,-6.82952071978));
#1499=CARTESIAN_POINT('',(-3.8625,-0.753899999999999,-2.56252071978));
#1500=CARTESIAN_POINT('',(2.7065,-0.753899999999999,-2.56252071978));
#1501=CARTESIAN_POINT('',(2.7065,-0.753899999999999,-3.40152071978));
#1502=CARTESIAN_POINT('',(-3.8625,-0.753899999999999,-2.56252071978));
#1503=CARTESIAN_POINT('',(-3.8625,-0.753899999999999,-2.56252071978));
#1504=CARTESIAN_POINT('',(-3.8625,-0.753899999999999,-3.40152071978));
#1505=CARTESIAN_POINT('',(3.5805,-1.1089,-5.02952071978));
#1506=CARTESIAN_POINT('',(4.0305,-1.7839,-6.82952071978));
#1507=CARTESIAN_POINT('',(3.5805,-3.9589,-5.02952071978));
#1508=CARTESIAN_POINT('',(4.0305,-3.2839,-6.82952071978));
#1509=CARTESIAN_POINT('',(3.5805,-1.1089,-5.02952071978));
#1510=CARTESIAN_POINT('',(4.0305,-1.7839,-6.82952071978));
#1511=CARTESIAN_POINT('',(3.5805,-3.9589,-5.02952071978));
#1512=CARTESIAN_POINT('',(4.0305,-3.2839,-6.82952071978));
#1513=CARTESIAN_POINT('',(5.3805,-1.1089,-5.02952071978));
#1514=CARTESIAN_POINT('',(4.9305,-1.7839,-6.82952071978));
#1515=CARTESIAN_POINT('',(3.5805,-1.1089,-5.02952071978));
#1516=CARTESIAN_POINT('',(4.0305,-1.7839,-6.82952071978));
#1517=CARTESIAN_POINT('',(5.3805,-1.1089,-5.02952071978));
#1518=CARTESIAN_POINT('',(4.9305,-1.7839,-6.82952071978));
#1519=CARTESIAN_POINT('',(5.3805,-3.9589,-5.02952071978));
#1520=CARTESIAN_POINT('',(4.9305,-3.2839,-6.82952071978));
#1521=CARTESIAN_POINT('',(5.3805,-1.1089,-5.02952071978));
#1522=CARTESIAN_POINT('',(4.9305,-1.7839,-6.82952071978));
#1523=CARTESIAN_POINT('',(5.3805,-3.9589,-5.02952071978));
#1524=CARTESIAN_POINT('',(4.9305,-3.2839,-6.82952071978));
#1525=CARTESIAN_POINT('',(3.5805,-3.9589,-5.02952071978));
#1526=CARTESIAN_POINT('',(4.0305,-3.2839,-6.82952071978));
#1527=CARTESIAN_POINT('',(5.3805,-3.9589,-5.02952071978));
#1528=CARTESIAN_POINT('',(4.9305,-3.2839,-6.82952071978));
#1529=CARTESIAN_POINT('',(0.0975000000000004,-1.1089,-5.02952071978));
#1530=CARTESIAN_POINT('',(-0.3525,-1.7839,-6.82952071978));
#1531=CARTESIAN_POINT('',(-1.7025,-1.1089,-5.02952071978));
#1532=CARTESIAN_POINT('',(-1.2525,-1.7839,-6.82952071978));
#1533=CARTESIAN_POINT('',(0.0975000000000004,-1.1089,-5.02952071978));
#1534=CARTESIAN_POINT('',(-0.3525,-1.7839,-6.82952071978));
#1535=CARTESIAN_POINT('',(-1.7025,-1.1089,-5.02952071978));
#1536=CARTESIAN_POINT('',(-1.2525,-1.7839,-6.82952071978));
#1537=CARTESIAN_POINT('',(0.0975000000000004,-3.9589,-5.02952071978));
#1538=CARTESIAN_POINT('',(-0.3525,-3.2839,-6.82952071978));
#1539=CARTESIAN_POINT('',(0.0975000000000004,-1.1089,-5.02952071978));
#1540=CARTESIAN_POINT('',(-0.3525,-1.7839,-6.82952071978));
#1541=CARTESIAN_POINT('',(0.0975000000000004,-3.9589,-5.02952071978));
#1542=CARTESIAN_POINT('',(-0.3525,-3.2839,-6.82952071978));
#1543=CARTESIAN_POINT('',(-1.7025,-1.1089,-5.02952071978));
#1544=CARTESIAN_POINT('',(-1.2525,-1.7839,-6.82952071978));
#1545=CARTESIAN_POINT('',(-1.7025,-3.9589,-5.02952071978));
#1546=CARTESIAN_POINT('',(-1.2525,-3.2839,-6.82952071978));
#1547=CARTESIAN_POINT('',(-1.7025,-3.9589,-5.02952071978));
#1548=CARTESIAN_POINT('',(-1.2525,-3.2839,-6.82952071978));
#1549=CARTESIAN_POINT('',(-1.7025,-3.9589,-5.02952071978));
#1550=CARTESIAN_POINT('',(-1.2525,-3.2839,-6.82952071978));
#1551=CARTESIAN_POINT('',(0.0975000000000004,-3.9589,-5.02952071978));
#1552=CARTESIAN_POINT('',(-0.3525,-3.2839,-6.82952071978));
#1553=CARTESIAN_POINT('',(-5.1855,-1.1089,-5.02952071978));
#1554=CARTESIAN_POINT('',(-5.6355,-1.7839,-6.82952071978));
#1555=CARTESIAN_POINT('',(-6.9855,-1.1089,-5.02952071978));
#1556=CARTESIAN_POINT('',(-6.5355,-1.7839,-6.82952071978));
#1557=CARTESIAN_POINT('',(-5.1855,-1.1089,-5.02952071978));
#1558=CARTESIAN_POINT('',(-5.6355,-1.7839,-6.82952071978));
#1559=CARTESIAN_POINT('',(-6.9855,-1.1089,-5.02952071978));
#1560=CARTESIAN_POINT('',(-6.5355,-1.7839,-6.82952071978));
#1561=CARTESIAN_POINT('',(-5.1855,-3.9589,-5.02952071978));
#1562=CARTESIAN_POINT('',(-5.6355,-3.2839,-6.82952071978));
#1563=CARTESIAN_POINT('',(-5.1855,-1.1089,-5.02952071978));
#1564=CARTESIAN_POINT('',(-5.6355,-1.7839,-6.82952071978));
#1565=CARTESIAN_POINT('',(-5.1855,-3.9589,-5.02952071978));
#1566=CARTESIAN_POINT('',(-5.6355,-3.2839,-6.82952071978));
#1567=CARTESIAN_POINT('',(-6.9855,-1.1089,-5.02952071978));
#1568=CARTESIAN_POINT('',(-6.5355,-1.7839,-6.82952071978));
#1569=CARTESIAN_POINT('',(-6.9855,-3.9589,-5.02952071978));
#1570=CARTESIAN_POINT('',(-6.5355,-3.2839,-6.82952071978));
#1571=CARTESIAN_POINT('',(-6.9855,-3.9589,-5.02952071978));
#1572=CARTESIAN_POINT('',(-6.5355,-3.2839,-6.82952071978));
#1573=CARTESIAN_POINT('',(-6.9855,-3.9589,-5.02952071978));
#1574=CARTESIAN_POINT('',(-6.5355,-3.2839,-6.82952071978));
#1575=CARTESIAN_POINT('',(-5.1855,-3.9589,-5.02952071978));
#1576=CARTESIAN_POINT('',(-5.6355,-3.2839,-6.82952071978));
#1577=CARTESIAN_POINT('',(5.625,-3.625,-3.92482071978));
#1578=CARTESIAN_POINT('',(7.175,-3.625,-3.92482071978));
#1579=CARTESIAN_POINT('',(7.175,-3.625,-3.92482071978));
#1580=CARTESIAN_POINT('',(5.625,-3.625,-3.92482071978));
#1581=CARTESIAN_POINT('',(5.625,-5.175,-3.92482071978));
#1582=CARTESIAN_POINT('',(5.625,-5.175,-3.92482071978));
#1583=CARTESIAN_POINT('',(7.175,-5.7529,-3.92482071978));
#1584=CARTESIAN_POINT('',(7.175,-5.7529,-3.92482071978));
#1585=CARTESIAN_POINT('',(7.175,3.625,-3.92482071978));
#1586=CARTESIAN_POINT('',(7.175,3.625,-3.92482071978));
#1587=CARTESIAN_POINT('',(5.625,3.625,-5.02952071978));
#1588=CARTESIAN_POINT('',(5.625,5.175,-5.02952071978));
#1589=CARTESIAN_POINT('',(5.625,5.175,-3.92482071978));
#1590=CARTESIAN_POINT('',(5.625,3.625,-3.92482071978));
#1591=CARTESIAN_POINT('',(-7.175,5.175,-5.02952071978));
#1592=CARTESIAN_POINT('',(-6.875,5.175,-3.92482071978));
#1593=CARTESIAN_POINT('',(-6.875,5.175,-3.92482071978));
#1594=CARTESIAN_POINT('',(-7.175,5.175,-3.92482071978));
#1595=CARTESIAN_POINT('',(-3.8625,-5.0529,-2.56252071978));
#1596=CARTESIAN_POINT('',(2.7065,-5.0529,-2.56252071978));
#1597=CARTESIAN_POINT('',(2.7065,-5.0529,-3.40152071978));
#1598=CARTESIAN_POINT('',(-3.8625,-5.0529,-2.56252071978));
#1599=CARTESIAN_POINT('',(-3.8625,-5.0529,-2.56252071978));
#1600=CARTESIAN_POINT('',(-3.0235,-5.0529,-2.56252071978));
#1601=CARTESIAN_POINT('',(2.7065,-5.0529,-2.56252071978));
#1602=CARTESIAN_POINT('',(2.7065,0.525000000000001,-2.56252071978));
#1603=CARTESIAN_POINT('',(2.7065,0.525000000000001,-1.72352071978));
#1604=CARTESIAN_POINT('',(-3.8625,-5.0529,-2.56252071978));
#1605=CARTESIAN_POINT('',(-3.8625,0.525000000000001,-2.56252071978));
#1606=CARTESIAN_POINT('',(-3.8625,0.525000000000001,-1.72352071978));
#1607=CARTESIAN_POINT('',(-6.875,4.875,-3.92482071978));
#1608=CARTESIAN_POINT('',(-6.875,4.875,-3.92482071978));
#1609=CARTESIAN_POINT('',(-7.175,-5.7529,-3.92482071978));
#1610=CARTESIAN_POINT('',(5.575,-5.7529,-3.92482071978));
#1611=CARTESIAN_POINT('',(5.575,-4.725,-3.92482071978));
#1612=CARTESIAN_POINT('',(5.575,0.0750000000000013,-3.92482071978));
#1613=CARTESIAN_POINT('',(5.125,-4.725,-3.92482071978));
#1614=CARTESIAN_POINT('',(5.125,-5.175,-3.92482071978));
#1615=CARTESIAN_POINT('',(-7.175,-5.175,-3.92482071978));
#1616=CARTESIAN_POINT('',(-6.725,0.0750000000000013,-3.92482071978));
#1617=CARTESIAN_POINT('',(-6.725,0.525000000000001,-3.92482071978));
#1618=CARTESIAN_POINT('',(-7.175,0.525000000000001,-3.92482071978));
#1619=CARTESIAN_POINT('',(5.125,0.525000000000001,-3.92482071978));
#1620=CARTESIAN_POINT('',(5.125,0.0750000000000013,-3.92482071978));
#1621=CARTESIAN_POINT('',(2.7065,-5.0529,-2.56252071978));
#1622=CARTESIAN_POINT('',(2.7065,-5.175,-2.56252071978));
#1623=CARTESIAN_POINT('',(2.7065,-5.175,-1.72352071978));
#1624=CARTESIAN_POINT('',(-3.8625,-5.0529,-2.56252071978));
#1625=CARTESIAN_POINT('',(-3.8625,-5.175,-2.56252071978));
#1626=CARTESIAN_POINT('',(-3.8625,-5.175,-1.72352071978));
#1627=CARTESIAN_POINT('',(-7.175,0.525000000000001,-5.02952071978));
#1628=CARTESIAN_POINT('',(-6.725,0.525000000000001,-3.92482071978));
#1629=CARTESIAN_POINT('',(5.125,0.525000000000001,-5.02952071978));
#1630=CARTESIAN_POINT('',(-6.725,0.0750000000000013,-3.92482071978));
#1631=CARTESIAN_POINT('',(5.125,0.0750000000000013,-5.02952071978));
#1632=CARTESIAN_POINT('',(5.575,0.0750000000000013,-3.92482071978));
#1633=CARTESIAN_POINT('',(5.575,-5.7529,-3.92482071978));
#1634=CARTESIAN_POINT('',(5.575,-4.725,-3.92482071978));
#1635=CARTESIAN_POINT('',(-6.725,-4.725,-5.02952071978));
#1636=CARTESIAN_POINT('',(-6.725,-5.175,-5.02952071978));
#1637=CARTESIAN_POINT('',(5.125,-4.725,-3.92482071978));
#1638=CARTESIAN_POINT('',(5.125,-5.175,-3.92482071978));
#1639=CARTESIAN_POINT('',(-7.175,-5.175,-5.02952071978));
#1640=CARTESIAN_POINT('',(-6.1521,-1.1177,-5.02952071978));
#1641=CARTESIAN_POINT('',(-5.8521,-1.1177,3.129166332904));
#1642=CARTESIAN_POINT('',(-5.8521,-1.1177,3.212459864209));
#1643=CARTESIAN_POINT('',(-32.86466108211,-1.1177,-4.28744547621));
#1644=CARTESIAN_POINT('',(6.5008,-1.1177,6.642182073741));
#1645=CARTESIAN_POINT('',(6.5008,-1.1177,6.417110108278));
#1646=CARTESIAN_POINT('',(6.5008,-1.1177,6.333816576973));
#1647=CARTESIAN_POINT('',(-32.78517243717,-1.1177,-4.573741339859));
#1648=CARTESIAN_POINT('',(6.5008,-1.4177,6.417110108278));
#1649=CARTESIAN_POINT('',(6.5008,-1.4177,6.342881056258));
#1650=CARTESIAN_POINT('',(6.8008,-1.4177,6.426174587564));
#1651=CARTESIAN_POINT('',(6.5008,-1.4177,6.651246553026));
#1652=CARTESIAN_POINT('',(6.8008,-1.4177,6.734540084331));
#1653=CARTESIAN_POINT('',(6.8008,-1.4177,6.417110108278));
#1654=CARTESIAN_POINT('',(-5.8521,-1.4177,3.129166332904));
#1655=CARTESIAN_POINT('',(-6.1521,-1.4177,3.129166332904));
#1656=CARTESIAN_POINT('',(-6.15209999999984,-1.41769999999998,3.13823081218957));
#1657=CARTESIAN_POINT('',(-5.8521,-1.4177,3.221524343495));
#1658=CARTESIAN_POINT('',(6.8008,-4.8612,-5.02952071978));
#1659=CARTESIAN_POINT('',(6.8008,-33.46211077263,7.702759743229));
#1660=CARTESIAN_POINT('',(6.8008,-4.5612,6.82952071978));
#1661=CARTESIAN_POINT('',(6.8008,-4.5612,6.530219702297));
#1662=CARTESIAN_POINT('',(6.8008,-4.5612,6.521155223012));
#1663=CARTESIAN_POINT('',(6.8008,-33.47141951648,7.394675509513));
#1664=CARTESIAN_POINT('',(-6.1521,-4.8612,-5.02952071978));
#1665=CARTESIAN_POINT('',(-6.1521,-2.1337,3.168929182037));
#1666=CARTESIAN_POINT('',(-6.1521,-2.1337,3.15986470275114));
#1667=CARTESIAN_POINT('',(-6.1521,-62.529851593705,4.98473025292736));
#1668=CARTESIAN_POINT('',(6.5008,-4.5612,6.530219702297));
#1669=CARTESIAN_POINT('',(6.5008,-4.5612,6.437861691707));
#1670=CARTESIAN_POINT('',(6.5008,-4.8612,6.446926170992));
#1671=CARTESIAN_POINT('',(6.5008,-4.5612,6.746227188474));
#1672=CARTESIAN_POINT('',(6.5008,-4.8612,6.75529166776));
#1673=CARTESIAN_POINT('',(6.5008,-4.8612,6.530219702297));
#1674=CARTESIAN_POINT('',(-5.8521,-2.1337,3.168929182037));
#1675=CARTESIAN_POINT('',(-5.8521,-2.4337,3.168929182037));
#1676=CARTESIAN_POINT('',(-5.8521,-2.4337,3.252222713342));
#1677=CARTESIAN_POINT('',(-5.8521,-2.1337,3.243158234056));
#1678=CARTESIAN_POINT('',(-6.1521,-4.8612,-5.02952071978));
#1679=CARTESIAN_POINT('',(-32.89381780831,-4.8612,-4.182431104478));
#1680=CARTESIAN_POINT('',(-5.8521,-4.8612,3.325569458228));
#1681=CARTESIAN_POINT('',(-5.8521,-4.8612,2.933910430155));
#1682=CARTESIAN_POINT('',(-5.8521,-4.8612,3.01720396146));
#1683=CARTESIAN_POINT('',(-32.81432916337,-4.8612,-4.468726968128));
#1684=CARTESIAN_POINT('',(-6.1521,-2.4337,-5.02952071978));
#1685=CARTESIAN_POINT('',(-32.79542227066,-2.4337,-4.536824306816));
#1686=CARTESIAN_POINT('',(-3.793,-2.4337,3.515556250942));
#1687=CARTESIAN_POINT('',(-3.793,-2.4337,3.907215279015));
#1688=CARTESIAN_POINT('',(-3.793,-2.4337,3.82392174771));
#1689=CARTESIAN_POINT('',(-32.8749109156,-2.4337,-4.250528443166));
#1690=CARTESIAN_POINT('',(-3.793,-2.7337,3.907215279015));
#1691=CARTESIAN_POINT('',(-3.793,-2.7337,3.832986226996));
#1692=CARTESIAN_POINT('',(-3.493,-2.7337,3.916279758301));
#1693=CARTESIAN_POINT('',(-3.793,-2.7337,3.524620730228));
#1694=CARTESIAN_POINT('',(-3.493,-2.7337,3.607914261533));
#1695=CARTESIAN_POINT('',(-3.493,-2.7337,3.907215279015));
#1696=CARTESIAN_POINT('',(-3.493,-3.4137,-5.02952071978));
#1697=CARTESIAN_POINT('',(-3.493,-32.83460586334,4.517411053791));
#1698=CARTESIAN_POINT('',(-3.493,-3.1137,3.619395935295));
#1699=CARTESIAN_POINT('',(-3.493,-3.1137,3.936825911348));
#1700=CARTESIAN_POINT('',(-3.493,-3.1137,3.927761432063));
#1701=CARTESIAN_POINT('',(-3.493,-32.8252971195,4.825495287506));
#1702=CARTESIAN_POINT('',(-3.793,-3.1137,3.936825911348));
#1703=CARTESIAN_POINT('',(-3.793,-3.1137,3.844467900758));
#1704=CARTESIAN_POINT('',(-3.793,-3.4137,3.853532380043));
#1705=CARTESIAN_POINT('',(-3.793,-3.1137,3.53610240399));
#1706=CARTESIAN_POINT('',(-3.793,-3.4137,3.545166883275));
#1707=CARTESIAN_POINT('',(-3.793,-3.4137,3.936825911348));
#1708=CARTESIAN_POINT('',(-6.1521,-3.4137,-5.02952071978));
#1709=CARTESIAN_POINT('',(-5.8521,-3.4137,3.19853981437));
#1710=CARTESIAN_POINT('',(-5.8521,-3.4137,3.281833345675));
#1711=CARTESIAN_POINT('',(-32.88254377033,-3.4137,-4.223037035581));
#1712=CARTESIAN_POINT('',(-32.80305512539,-3.4137,-4.50933289923));
#1713=CARTESIAN_POINT('',(-57.87640052727,-62.97268114584,-9.67125399685));
#1714=CARTESIAN_POINT('',(-5.8521,-4.5612,3.008139482175));
#1715=CARTESIAN_POINT('',(-5.8521,-4.5612,2.933910430155));
#1716=CARTESIAN_POINT('',(-6.1521,-4.5612,2.933910430155));
#1717=CARTESIAN_POINT('',(-6.1521,-4.5612,3.233211447637));
#1718=CARTESIAN_POINT('',(-5.8521,-4.5612,3.316504978943));
#1719=CARTESIAN_POINT('',(-5.8521,-3.7137,3.19853981437));
#1720=CARTESIAN_POINT('',(-6.1521,-3.7137,3.19853981437));
#1721=CARTESIAN_POINT('',(-6.1521,-3.7137,3.207604293656));
#1722=CARTESIAN_POINT('',(-5.8521,-3.7137,3.290897824961));
#1723=CARTESIAN_POINT('',(-57.95582185445,-62.964038062,-9.385200592937));
#1724=CARTESIAN_POINT('',(-6.1521,-33.57067389713,4.109730698397));
#1725=CARTESIAN_POINT('',(-6.1521,-4.8612,-5.02952071978));
#1726=CARTESIAN_POINT('',(0.,0.,0.));
#1727=MECHANICAL_DESIGN_GEOMETRIC_PRESENTATION_REPRESENTATION('',(#1002),
#1728);
#1728=(
GEOMETRIC_REPRESENTATION_CONTEXT(3)
GLOBAL_UNCERTAINTY_ASSIGNED_CONTEXT((#1729))
GLOBAL_UNIT_ASSIGNED_CONTEXT((#1732,#1731,#1730))
REPRESENTATION_CONTEXT('OOM-W01-02','TOP_LEVEL_ASSEMBLY_PART')
);
#1729=UNCERTAINTY_MEASURE_WITH_UNIT(LENGTH_MEASURE(0.005),#1732,
'DISTANCE_ACCURACY_VALUE','Maximum Tolerance applied to model');
#1730=(
NAMED_UNIT(*)
SI_UNIT($,.STERADIAN.)
SOLID_ANGLE_UNIT()
);
#1731=(
NAMED_UNIT(*)
PLANE_ANGLE_UNIT()
SI_UNIT($,.RADIAN.)
);
#1732=(
LENGTH_UNIT()
NAMED_UNIT(*)
SI_UNIT(.MILLI.,.METRE.)
);
#1733=PRODUCT_DEFINITION_SHAPE('','',#1734);
#1734=PRODUCT_DEFINITION('','',#1736,#1735);
#1735=PRODUCT_DEFINITION_CONTEXT('',#1742,'design');
#1736=PRODUCT_DEFINITION_FORMATION_WITH_SPECIFIED_SOURCE('','',#1738,
 .NOT_KNOWN.);
#1737=PRODUCT_RELATED_PRODUCT_CATEGORY('','',(#1738));
#1738=PRODUCT('OOM-W01-02','OOM-W01-02','OOM-W01-02',(#1740));
#1739=PRODUCT_CATEGORY('','');
#1740=PRODUCT_CONTEXT('',#1742,'mechanical');
#1741=APPLICATION_PROTOCOL_DEFINITION('international standard',
'ap242_managed_model_based_3d_engineering',2020,#1742);
#1742=APPLICATION_CONTEXT('managed model based 3d engineering');
ENDSEC;
END-ISO-10303-21;
