ISO-10303-21;
HEADER;
/* Generated by software containing ST-Developer
 * from STEP Tools, Inc. (www.steptools.com) 
 */
/* OPTION: using custom renumber hook */

FILE_DESCRIPTION(
/* description */ (
'CAx-IF Rec.Pracs.---Representation and Presentation of Product Manufa
cturing Information (PMI)---4.0---2014-10-13',
'CAx-IF Rec.Pracs.---3D Tessellated Geometry---0.4---2014-09-14','2;1'),

/* implementation_level */ '2;1');

FILE_NAME(
/* name */ 'OOM-E01-Exported',
/* time_stamp */ '2026-07-29T11:38:07+03:00',
/* author */ (''),
/* organization */ (''),
/* preprocessor_version */ 'ST-DEVELOPER v18.102',
/* originating_system */ 'SIEMENS PLM Software NX2206.9140',
/* authorisation */ $);

FILE_SCHEMA (('AP242_MANAGED_MODEL_BASED_3D_ENGINEERING_MIM_LF { 1 0 10303 442 3 1 4 }'));
ENDSEC;

DATA;
#10=DEFAULT_MODEL_GEOMETRIC_VIEW('','',#53,#27,'','',#1524,*);
#11=MECHANICAL_DESIGN_AND_DRAUGHTING_RELATIONSHIP('','',#19,#20);
#12=MECHANICAL_DESIGN_AND_DRAUGHTING_RELATIONSHIP('','',#21,#20);
#13=MECHANICAL_DESIGN_AND_DRAUGHTING_RELATIONSHIP('','',#22,#20);
#14=MECHANICAL_DESIGN_AND_DRAUGHTING_RELATIONSHIP('','',#23,#20);
#15=MECHANICAL_DESIGN_AND_DRAUGHTING_RELATIONSHIP('','',#24,#20);
#16=MECHANICAL_DESIGN_AND_DRAUGHTING_RELATIONSHIP('','',#25,#20);
#17=MECHANICAL_DESIGN_AND_DRAUGHTING_RELATIONSHIP('','',#26,#20);
#18=MECHANICAL_DESIGN_AND_DRAUGHTING_RELATIONSHIP('','',#27,#20);
#19=DRAUGHTING_MODEL('Top',(#46,#37),#1519);
#20=DRAUGHTING_MODEL('',(#38),#1519);
#21=DRAUGHTING_MODEL('Front',(#47,#39),#1519);
#22=DRAUGHTING_MODEL('Right',(#48,#40),#1519);
#23=DRAUGHTING_MODEL('Back',(#49,#41),#1519);
#24=DRAUGHTING_MODEL('Bottom',(#50,#42),#1519);
#25=DRAUGHTING_MODEL('Left',(#51,#43),#1519);
#26=DRAUGHTING_MODEL('Isometric',(#52,#44),#1519);
#27=DRAUGHTING_MODEL('Trimetric',(#53,#45),#1519);
#28=REPRESENTATION_MAP(#829,#71);
#29=REPRESENTATION_MAP(#829,#71);
#30=REPRESENTATION_MAP(#829,#71);
#31=REPRESENTATION_MAP(#829,#71);
#32=REPRESENTATION_MAP(#829,#71);
#33=REPRESENTATION_MAP(#829,#71);
#34=REPRESENTATION_MAP(#829,#71);
#35=REPRESENTATION_MAP(#829,#71);
#36=REPRESENTATION_MAP(#829,#71);
#37=MAPPED_ITEM('',#28,#829);
#38=MAPPED_ITEM('',#29,#829);
#39=MAPPED_ITEM('',#30,#829);
#40=MAPPED_ITEM('',#31,#829);
#41=MAPPED_ITEM('',#32,#829);
#42=MAPPED_ITEM('',#33,#829);
#43=MAPPED_ITEM('',#34,#829);
#44=MAPPED_ITEM('',#35,#829);
#45=MAPPED_ITEM('',#36,#829);
#46=CAMERA_MODEL_D3('Top',#906,#54);
#47=CAMERA_MODEL_D3('Front',#908,#55);
#48=CAMERA_MODEL_D3('Right',#910,#56);
#49=CAMERA_MODEL_D3('Back',#912,#57);
#50=CAMERA_MODEL_D3('Bottom',#914,#58);
#51=CAMERA_MODEL_D3('Left',#916,#59);
#52=CAMERA_MODEL_D3('Isometric',#918,#60);
#53=CAMERA_MODEL_D3('Trimetric',#920,#61);
#54=VIEW_VOLUME(.PARALLEL.,#1495,229.46484375,0.,.F.,0.,.F.,.F.,#62);
#55=VIEW_VOLUME(.PARALLEL.,#1498,69.880744934082,0.,.F.,0.,.F.,.F.,#63);
#56=VIEW_VOLUME(.PARALLEL.,#1501,146.382751464844,0.,.F.,0.,.F.,.F.,#64);
#57=VIEW_VOLUME(.PARALLEL.,#1504,69.880744934082,0.,.F.,0.,.F.,.F.,#65);
#58=VIEW_VOLUME(.PARALLEL.,#1507,229.46484375,0.,.F.,0.,.F.,.F.,#66);
#59=VIEW_VOLUME(.PARALLEL.,#1510,146.382751464844,0.,.F.,0.,.F.,.F.,#67);
#60=VIEW_VOLUME(.PARALLEL.,#1513,179.854961311295,0.,.F.,0.,.F.,.F.,#68);
#61=VIEW_VOLUME(.PARALLEL.,#1516,142.256492511703,0.,.F.,0.,.F.,.F.,#69);
#62=PLANAR_BOX('',114.424022195977,114.424022195977,#907);
#63=PLANAR_BOX('',34.8464530720028,34.8464530720028,#909);
#64=PLANAR_BOX('',72.9946379976627,72.9946379976627,#911);
#65=PLANAR_BOX('',34.8464530720028,34.8464530720028,#913);
#66=PLANAR_BOX('',114.424022195977,114.424022195977,#915);
#67=PLANAR_BOX('',72.9946379976627,72.9946379976627,#917);
#68=PLANAR_BOX('',89.6857564270788,89.6857564270788,#919);
#69=PLANAR_BOX('',70.937054193867,70.937054193867,#921);
#70=SHAPE_REPRESENTATION_RELATIONSHIP('','',#828,#71);
#71=ADVANCED_BREP_SHAPE_REPRESENTATION('',(#826),#1519);
#72=B_SPLINE_SURFACE_WITH_KNOTS('',3,1,((#1369,#1370),(#1371,#1372),(#1373,
#1374),(#1375,#1376)),.SURF_OF_LINEAR_EXTRUSION.,.F.,.F.,.F.,(4,4),(2,2),
(0.,1.),(0.,1.),.PIECEWISE_BEZIER_KNOTS.);
#73=B_SPLINE_SURFACE_WITH_KNOTS('',3,1,((#1385,#1386),(#1387,#1388),(#1389,
#1390),(#1391,#1392)),.SURF_OF_LINEAR_EXTRUSION.,.F.,.F.,.F.,(4,4),(2,2),
(0.,1.),(0.,1.),.PIECEWISE_BEZIER_KNOTS.);
#74=B_SPLINE_SURFACE_WITH_KNOTS('',3,1,((#1400,#1401),(#1402,#1403),(#1404,
#1405),(#1406,#1407)),.SURF_OF_LINEAR_EXTRUSION.,.F.,.F.,.F.,(4,4),(2,2),
(0.,1.),(0.,1.),.PIECEWISE_BEZIER_KNOTS.);
#75=B_SPLINE_SURFACE_WITH_KNOTS('',3,1,((#1414,#1415),(#1416,#1417),(#1418,
#1419),(#1420,#1421)),.SURF_OF_LINEAR_EXTRUSION.,.F.,.F.,.F.,(4,4),(2,2),
(0.,1.),(0.,1.),.PIECEWISE_BEZIER_KNOTS.);
#76=B_SPLINE_SURFACE_WITH_KNOTS('',3,1,((#1429,#1430),(#1431,#1432),(#1433,
#1434),(#1435,#1436),(#1437,#1438)),.SURF_OF_LINEAR_EXTRUSION.,.F.,.F.,
 .F.,(4,1,4),(2,2),(0.,0.5,1.),(0.,1.),.UNSPECIFIED.);
#77=B_SPLINE_SURFACE_WITH_KNOTS('',3,1,((#1448,#1449),(#1450,#1451),(#1452,
#1453),(#1454,#1455)),.SURF_OF_LINEAR_EXTRUSION.,.F.,.F.,.F.,(4,4),(2,2),
(0.,1.),(0.,1.),.PIECEWISE_BEZIER_KNOTS.);
#78=DEGENERATE_TOROIDAL_SURFACE('',#887,0.999999999999997,3.,.T.);
#79=TOROIDAL_SURFACE('',#862,8.,3.);
#80=TOROIDAL_SURFACE('',#868,8.,3.);
#81=TOROIDAL_SURFACE('',#871,8.,3.);
#82=TOROIDAL_SURFACE('',#875,8.,3.);
#83=TOROIDAL_SURFACE('',#891,24.3,3.);
#84=CYLINDRICAL_SURFACE('',#853,11.);
#85=CYLINDRICAL_SURFACE('',#857,11.);
#86=CYLINDRICAL_SURFACE('',#860,3.);
#87=CYLINDRICAL_SURFACE('',#864,3.);
#88=CYLINDRICAL_SURFACE('',#866,3.);
#89=CYLINDRICAL_SURFACE('',#869,3.);
#90=CYLINDRICAL_SURFACE('',#873,3.);
#91=CYLINDRICAL_SURFACE('',#877,3.);
#92=CYLINDRICAL_SURFACE('',#878,2.20248023000699);
#93=CYLINDRICAL_SURFACE('',#879,4.);
#94=CYLINDRICAL_SURFACE('',#882,27.3);
#95=CYLINDRICAL_SURFACE('',#889,3.);
#96=CYLINDRICAL_SURFACE('',#894,2.);
#97=CYLINDRICAL_SURFACE('',#897,2.);
#98=CYLINDRICAL_SURFACE('',#900,2.);
#99=CYLINDRICAL_SURFACE('',#903,2.);
#100=ELLIPSE('',#852,3.03761361322762,3.);
#101=B_SPLINE_CURVE_WITH_KNOTS('',3,(#1179,#1180,#1181,#1182,#1183),
 .UNSPECIFIED.,.F.,.F.,(4,1,4),(0.,0.5,1.),.QUASI_UNIFORM_KNOTS.);
#102=B_SPLINE_CURVE_WITH_KNOTS('',3,(#1186,#1187,#1188,#1189),
 .UNSPECIFIED.,.F.,.F.,(4,4),(0.,1.),.PIECEWISE_BEZIER_KNOTS.);
#103=B_SPLINE_CURVE_WITH_KNOTS('',3,(#1191,#1192,#1193,#1194),
 .UNSPECIFIED.,.F.,.F.,(4,4),(0.,1.),.PIECEWISE_BEZIER_KNOTS.);
#104=B_SPLINE_CURVE_WITH_KNOTS('',3,(#1196,#1197,#1198,#1199,#1200,#1201,
#1202),.UNSPECIFIED.,.F.,.F.,(4,1,1,1,4),(0.,0.124917046077186,0.499668184308743,
0.749834092154372,1.),.UNSPECIFIED.);
#105=B_SPLINE_CURVE_WITH_KNOTS('',3,(#1204,#1205,#1206,#1207,#1208),
 .UNSPECIFIED.,.F.,.F.,(4,1,4),(0.,0.5,1.),.QUASI_UNIFORM_KNOTS.);
#106=B_SPLINE_CURVE_WITH_KNOTS('',3,(#1210,#1211,#1212,#1213),
 .UNSPECIFIED.,.F.,.F.,(4,4),(0.,1.),.PIECEWISE_BEZIER_KNOTS.);
#107=B_SPLINE_CURVE_WITH_KNOTS('',3,(#1285,#1286,#1287,#1288),
 .UNSPECIFIED.,.F.,.F.,(4,4),(0.,0.00292668854670353),.UNSPECIFIED.);
#108=B_SPLINE_CURVE_WITH_KNOTS('',3,(#1326,#1327,#1328,#1329,#1330),
 .UNSPECIFIED.,.F.,.F.,(4,1,4),(0.,0.00102285753222326,0.00204571506444652),
 .UNSPECIFIED.);
#109=B_SPLINE_CURVE_WITH_KNOTS('',3,(#1332,#1333,#1334,#1335),
 .UNSPECIFIED.,.F.,.F.,(4,4),(0.,0.00280794485104761),.UNSPECIFIED.);
#110=B_SPLINE_CURVE_WITH_KNOTS('',3,(#1339,#1340,#1341,#1342),
 .UNSPECIFIED.,.F.,.F.,(4,4),(8.50943311923026E-18,0.00271443395623167),
 .UNSPECIFIED.);
#111=B_SPLINE_CURVE_WITH_KNOTS('',3,(#1356,#1357,#1358,#1359),
 .UNSPECIFIED.,.F.,.F.,(4,4),(1.35624133560365E-18,0.00237382573766865),
 .UNSPECIFIED.);
#112=B_SPLINE_CURVE_WITH_KNOTS('',3,(#1377,#1378,#1379,#1380),
 .UNSPECIFIED.,.F.,.F.,(4,4),(0.,1.),.PIECEWISE_BEZIER_KNOTS.);
#113=B_SPLINE_CURVE_WITH_KNOTS('',3,(#1393,#1394,#1395,#1396,#1397),
 .UNSPECIFIED.,.F.,.F.,(4,1,4),(0.,0.5,1.),.QUASI_UNIFORM_KNOTS.);
#114=B_SPLINE_CURVE_WITH_KNOTS('',3,(#1408,#1409,#1410,#1411),
 .UNSPECIFIED.,.F.,.F.,(4,4),(0.,1.),.PIECEWISE_BEZIER_KNOTS.);
#115=B_SPLINE_CURVE_WITH_KNOTS('',3,(#1422,#1423,#1424,#1425,#1426),
 .UNSPECIFIED.,.F.,.F.,(4,1,4),(0.,0.5,1.),.QUASI_UNIFORM_KNOTS.);
#116=B_SPLINE_CURVE_WITH_KNOTS('',3,(#1439,#1440,#1441,#1442,#1443,#1444,
#1445),.UNSPECIFIED.,.F.,.F.,(4,1,1,1,4),(0.,0.124917046077186,0.499668184308743,
0.749834092154372,1.),.UNSPECIFIED.);
#117=B_SPLINE_CURVE_WITH_KNOTS('',3,(#1456,#1457,#1458,#1459),
 .UNSPECIFIED.,.F.,.F.,(4,4),(0.,1.),.PIECEWISE_BEZIER_KNOTS.);
#118=LINE('',#1170,#173);
#119=LINE('',#1176,#174);
#120=LINE('',#1178,#175);
#121=LINE('',#1215,#176);
#122=LINE('',#1218,#177);
#123=LINE('',#1220,#178);
#124=LINE('',#1222,#179);
#125=LINE('',#1224,#180);
#126=LINE('',#1227,#181);
#127=LINE('',#1231,#182);
#128=LINE('',#1235,#183);
#129=LINE('',#1237,#184);
#130=LINE('',#1240,#185);
#131=LINE('',#1242,#186);
#132=LINE('',#1244,#187);
#133=LINE('',#1250,#188);
#134=LINE('',#1254,#189);
#135=LINE('',#1259,#190);
#136=LINE('',#1263,#191);
#137=LINE('',#1267,#192);
#138=LINE('',#1270,#193);
#139=LINE('',#1271,#194);
#140=LINE('',#1275,#195);
#141=LINE('',#1279,#196);
#142=LINE('',#1283,#197);
#143=LINE('',#1290,#198);
#144=LINE('',#1292,#199);
#145=LINE('',#1298,#200);
#146=LINE('',#1301,#201);
#147=LINE('',#1302,#202);
#148=LINE('',#1324,#203);
#149=LINE('',#1337,#204);
#150=LINE('',#1344,#205);
#151=LINE('',#1348,#206);
#152=LINE('',#1350,#207);
#153=LINE('',#1352,#208);
#154=LINE('',#1361,#209);
#155=LINE('',#1383,#210);
#156=LINE('',#1384,#211);
#157=LINE('',#1399,#212);
#158=LINE('',#1413,#213);
#159=LINE('',#1428,#214);
#160=LINE('',#1447,#215);
#161=LINE('',#1462,#216);
#162=LINE('',#1465,#217);
#163=LINE('',#1466,#218);
#164=LINE('',#1470,#219);
#165=LINE('',#1472,#220);
#166=LINE('',#1474,#221);
#167=LINE('',#1478,#222);
#168=LINE('',#1480,#223);
#169=LINE('',#1482,#224);
#170=LINE('',#1486,#225);
#171=LINE('',#1488,#226);
#172=LINE('',#1490,#227);
#173=VECTOR('',#930,1000.);
#174=VECTOR('',#935,1000.);
#175=VECTOR('',#936,1000.);
#176=VECTOR('',#939,1000.);
#177=VECTOR('',#940,1000.);
#178=VECTOR('',#941,1000.);
#179=VECTOR('',#942,1000.);
#180=VECTOR('',#945,1000.);
#181=VECTOR('',#946,1000.);
#182=VECTOR('',#949,1000.);
#183=VECTOR('',#952,1000.);
#184=VECTOR('',#955,1000.);
#185=VECTOR('',#956,1000.);
#186=VECTOR('',#957,1000.);
#187=VECTOR('',#958,1000.);
#188=VECTOR('',#967,1000.);
#189=VECTOR('',#972,1000.);
#190=VECTOR('',#975,1000.);
#191=VECTOR('',#978,1000.);
#192=VECTOR('',#981,1000.);
#193=VECTOR('',#984,1000.);
#194=VECTOR('',#985,1000.);
#195=VECTOR('',#988,1000.);
#196=VECTOR('',#991,1000.);
#197=VECTOR('',#994,1000.);
#198=VECTOR('',#995,1000.);
#199=VECTOR('',#998,1000.);
#200=VECTOR('',#1005,1000.);
#201=VECTOR('',#1006,1000.);
#202=VECTOR('',#1007,1000.);
#203=VECTOR('',#1050,1000.);
#204=VECTOR('',#1053,1000.);
#205=VECTOR('',#1054,1000.);
#206=VECTOR('',#1059,1000.);
#207=VECTOR('',#1062,1000.);
#208=VECTOR('',#1063,1000.);
#209=VECTOR('',#1072,1000.);
#210=VECTOR('',#1085,1000.);
#211=VECTOR('',#1086,1000.);
#212=VECTOR('',#1087,1000.);
#213=VECTOR('',#1088,1000.);
#214=VECTOR('',#1089,1000.);
#215=VECTOR('',#1090,1000.);
#216=VECTOR('',#1095,1000.);
#217=VECTOR('',#1096,1000.);
#218=VECTOR('',#1097,1000.);
#219=VECTOR('',#1102,1000.);
#220=VECTOR('',#1105,1000.);
#221=VECTOR('',#1106,1000.);
#222=VECTOR('',#1111,1000.);
#223=VECTOR('',#1114,1000.);
#224=VECTOR('',#1115,1000.);
#225=VECTOR('',#1120,1000.);
#226=VECTOR('',#1123,1000.);
#227=VECTOR('',#1124,1000.);
#228=ORIENTED_EDGE('',*,*,#448,.T.);
#229=ORIENTED_EDGE('',*,*,#449,.T.);
#230=ORIENTED_EDGE('',*,*,#450,.T.);
#231=ORIENTED_EDGE('',*,*,#451,.T.);
#232=ORIENTED_EDGE('',*,*,#452,.T.);
#233=ORIENTED_EDGE('',*,*,#453,.T.);
#234=ORIENTED_EDGE('',*,*,#454,.T.);
#235=ORIENTED_EDGE('',*,*,#455,.F.);
#236=ORIENTED_EDGE('',*,*,#456,.F.);
#237=ORIENTED_EDGE('',*,*,#457,.F.);
#238=ORIENTED_EDGE('',*,*,#458,.F.);
#239=ORIENTED_EDGE('',*,*,#459,.F.);
#240=ORIENTED_EDGE('',*,*,#460,.F.);
#241=ORIENTED_EDGE('',*,*,#461,.F.);
#242=ORIENTED_EDGE('',*,*,#462,.T.);
#243=ORIENTED_EDGE('',*,*,#463,.T.);
#244=ORIENTED_EDGE('',*,*,#464,.T.);
#245=ORIENTED_EDGE('',*,*,#465,.F.);
#246=ORIENTED_EDGE('',*,*,#466,.T.);
#247=ORIENTED_EDGE('',*,*,#467,.T.);
#248=ORIENTED_EDGE('',*,*,#468,.T.);
#249=ORIENTED_EDGE('',*,*,#469,.T.);
#250=ORIENTED_EDGE('',*,*,#470,.T.);
#251=ORIENTED_EDGE('',*,*,#471,.F.);
#252=ORIENTED_EDGE('',*,*,#472,.T.);
#253=ORIENTED_EDGE('',*,*,#473,.T.);
#254=ORIENTED_EDGE('',*,*,#474,.T.);
#255=ORIENTED_EDGE('',*,*,#473,.F.);
#256=ORIENTED_EDGE('',*,*,#475,.T.);
#257=ORIENTED_EDGE('',*,*,#465,.T.);
#258=ORIENTED_EDGE('',*,*,#476,.T.);
#259=ORIENTED_EDGE('',*,*,#461,.T.);
#260=ORIENTED_EDGE('',*,*,#477,.T.);
#261=ORIENTED_EDGE('',*,*,#478,.T.);
#262=ORIENTED_EDGE('',*,*,#479,.T.);
#263=ORIENTED_EDGE('',*,*,#480,.F.);
#264=ORIENTED_EDGE('',*,*,#481,.F.);
#265=ORIENTED_EDGE('',*,*,#482,.F.);
#266=ORIENTED_EDGE('',*,*,#483,.F.);
#267=ORIENTED_EDGE('',*,*,#484,.F.);
#268=ORIENTED_EDGE('',*,*,#485,.F.);
#269=ORIENTED_EDGE('',*,*,#486,.F.);
#270=ORIENTED_EDGE('',*,*,#487,.F.);
#271=ORIENTED_EDGE('',*,*,#453,.F.);
#272=ORIENTED_EDGE('',*,*,#488,.T.);
#273=ORIENTED_EDGE('',*,*,#478,.F.);
#274=ORIENTED_EDGE('',*,*,#489,.T.);
#275=ORIENTED_EDGE('',*,*,#490,.T.);
#276=ORIENTED_EDGE('',*,*,#491,.T.);
#277=ORIENTED_EDGE('',*,*,#492,.T.);
#278=ORIENTED_EDGE('',*,*,#493,.T.);
#279=ORIENTED_EDGE('',*,*,#494,.T.);
#280=ORIENTED_EDGE('',*,*,#495,.T.);
#281=ORIENTED_EDGE('',*,*,#496,.T.);
#282=ORIENTED_EDGE('',*,*,#497,.F.);
#283=ORIENTED_EDGE('',*,*,#498,.F.);
#284=ORIENTED_EDGE('',*,*,#499,.T.);
#285=ORIENTED_EDGE('',*,*,#471,.T.);
#286=ORIENTED_EDGE('',*,*,#500,.T.);
#287=ORIENTED_EDGE('',*,*,#501,.F.);
#288=ORIENTED_EDGE('',*,*,#502,.T.);
#289=ORIENTED_EDGE('',*,*,#498,.T.);
#290=ORIENTED_EDGE('',*,*,#503,.T.);
#291=ORIENTED_EDGE('',*,*,#463,.F.);
#292=ORIENTED_EDGE('',*,*,#504,.T.);
#293=ORIENTED_EDGE('',*,*,#501,.T.);
#294=ORIENTED_EDGE('',*,*,#505,.T.);
#295=ORIENTED_EDGE('',*,*,#476,.F.);
#296=ORIENTED_EDGE('',*,*,#470,.F.);
#297=ORIENTED_EDGE('',*,*,#506,.F.);
#298=ORIENTED_EDGE('',*,*,#462,.F.);
#299=ORIENTED_EDGE('',*,*,#506,.T.);
#300=ORIENTED_EDGE('',*,*,#469,.F.);
#301=ORIENTED_EDGE('',*,*,#507,.F.);
#302=ORIENTED_EDGE('',*,*,#504,.F.);
#303=ORIENTED_EDGE('',*,*,#475,.F.);
#304=ORIENTED_EDGE('',*,*,#472,.F.);
#305=ORIENTED_EDGE('',*,*,#508,.F.);
#306=ORIENTED_EDGE('',*,*,#466,.F.);
#307=ORIENTED_EDGE('',*,*,#507,.T.);
#308=ORIENTED_EDGE('',*,*,#468,.F.);
#309=ORIENTED_EDGE('',*,*,#509,.F.);
#310=ORIENTED_EDGE('',*,*,#502,.F.);
#311=ORIENTED_EDGE('',*,*,#508,.T.);
#312=ORIENTED_EDGE('',*,*,#499,.F.);
#313=ORIENTED_EDGE('',*,*,#509,.T.);
#314=ORIENTED_EDGE('',*,*,#467,.F.);
#315=ORIENTED_EDGE('',*,*,#477,.F.);
#316=ORIENTED_EDGE('',*,*,#464,.F.);
#317=ORIENTED_EDGE('',*,*,#510,.F.);
#318=ORIENTED_EDGE('',*,*,#489,.F.);
#319=ORIENTED_EDGE('',*,*,#510,.T.);
#320=ORIENTED_EDGE('',*,*,#505,.F.);
#321=ORIENTED_EDGE('',*,*,#511,.F.);
#322=ORIENTED_EDGE('',*,*,#490,.F.);
#323=ORIENTED_EDGE('',*,*,#511,.T.);
#324=ORIENTED_EDGE('',*,*,#503,.F.);
#325=ORIENTED_EDGE('',*,*,#512,.F.);
#326=ORIENTED_EDGE('',*,*,#491,.F.);
#327=ORIENTED_EDGE('',*,*,#512,.T.);
#328=ORIENTED_EDGE('',*,*,#500,.F.);
#329=ORIENTED_EDGE('',*,*,#513,.F.);
#330=ORIENTED_EDGE('',*,*,#492,.F.);
#331=ORIENTED_EDGE('',*,*,#452,.F.);
#332=ORIENTED_EDGE('',*,*,#514,.T.);
#333=ORIENTED_EDGE('',*,*,#515,.T.);
#334=ORIENTED_EDGE('',*,*,#516,.T.);
#335=ORIENTED_EDGE('',*,*,#493,.F.);
#336=ORIENTED_EDGE('',*,*,#513,.T.);
#337=ORIENTED_EDGE('',*,*,#474,.F.);
#338=ORIENTED_EDGE('',*,*,#479,.F.);
#339=ORIENTED_EDGE('',*,*,#488,.F.);
#340=ORIENTED_EDGE('',*,*,#517,.T.);
#341=ORIENTED_EDGE('',*,*,#518,.T.);
#342=ORIENTED_EDGE('',*,*,#519,.F.);
#343=ORIENTED_EDGE('',*,*,#448,.F.);
#344=ORIENTED_EDGE('',*,*,#519,.T.);
#345=ORIENTED_EDGE('',*,*,#520,.T.);
#346=ORIENTED_EDGE('',*,*,#521,.F.);
#347=ORIENTED_EDGE('',*,*,#449,.F.);
#348=ORIENTED_EDGE('',*,*,#521,.T.);
#349=ORIENTED_EDGE('',*,*,#522,.T.);
#350=ORIENTED_EDGE('',*,*,#523,.F.);
#351=ORIENTED_EDGE('',*,*,#450,.F.);
#352=ORIENTED_EDGE('',*,*,#523,.T.);
#353=ORIENTED_EDGE('',*,*,#524,.T.);
#354=ORIENTED_EDGE('',*,*,#514,.F.);
#355=ORIENTED_EDGE('',*,*,#451,.F.);
#356=ORIENTED_EDGE('',*,*,#497,.T.);
#357=ORIENTED_EDGE('',*,*,#525,.T.);
#358=ORIENTED_EDGE('',*,*,#517,.F.);
#359=ORIENTED_EDGE('',*,*,#454,.F.);
#360=ORIENTED_EDGE('',*,*,#495,.F.);
#361=ORIENTED_EDGE('',*,*,#526,.T.);
#362=ORIENTED_EDGE('',*,*,#527,.T.);
#363=ORIENTED_EDGE('',*,*,#496,.F.);
#364=ORIENTED_EDGE('',*,*,#527,.F.);
#365=ORIENTED_EDGE('',*,*,#528,.F.);
#366=ORIENTED_EDGE('',*,*,#520,.F.);
#367=ORIENTED_EDGE('',*,*,#518,.F.);
#368=ORIENTED_EDGE('',*,*,#525,.F.);
#369=ORIENTED_EDGE('',*,*,#529,.F.);
#370=ORIENTED_EDGE('',*,*,#522,.F.);
#371=ORIENTED_EDGE('',*,*,#528,.T.);
#372=ORIENTED_EDGE('',*,*,#526,.F.);
#373=ORIENTED_EDGE('',*,*,#494,.F.);
#374=ORIENTED_EDGE('',*,*,#516,.F.);
#375=ORIENTED_EDGE('',*,*,#524,.F.);
#376=ORIENTED_EDGE('',*,*,#529,.T.);
#377=ORIENTED_EDGE('',*,*,#515,.F.);
#378=ORIENTED_EDGE('',*,*,#530,.T.);
#379=ORIENTED_EDGE('',*,*,#531,.T.);
#380=ORIENTED_EDGE('',*,*,#456,.T.);
#381=ORIENTED_EDGE('',*,*,#532,.F.);
#382=ORIENTED_EDGE('',*,*,#533,.T.);
#383=ORIENTED_EDGE('',*,*,#532,.T.);
#384=ORIENTED_EDGE('',*,*,#455,.T.);
#385=ORIENTED_EDGE('',*,*,#534,.F.);
#386=ORIENTED_EDGE('',*,*,#535,.T.);
#387=ORIENTED_EDGE('',*,*,#534,.T.);
#388=ORIENTED_EDGE('',*,*,#460,.T.);
#389=ORIENTED_EDGE('',*,*,#536,.F.);
#390=ORIENTED_EDGE('',*,*,#537,.T.);
#391=ORIENTED_EDGE('',*,*,#536,.T.);
#392=ORIENTED_EDGE('',*,*,#459,.T.);
#393=ORIENTED_EDGE('',*,*,#538,.F.);
#394=ORIENTED_EDGE('',*,*,#539,.T.);
#395=ORIENTED_EDGE('',*,*,#538,.T.);
#396=ORIENTED_EDGE('',*,*,#458,.T.);
#397=ORIENTED_EDGE('',*,*,#540,.F.);
#398=ORIENTED_EDGE('',*,*,#541,.T.);
#399=ORIENTED_EDGE('',*,*,#540,.T.);
#400=ORIENTED_EDGE('',*,*,#457,.T.);
#401=ORIENTED_EDGE('',*,*,#531,.F.);
#402=ORIENTED_EDGE('',*,*,#530,.F.);
#403=ORIENTED_EDGE('',*,*,#533,.F.);
#404=ORIENTED_EDGE('',*,*,#535,.F.);
#405=ORIENTED_EDGE('',*,*,#537,.F.);
#406=ORIENTED_EDGE('',*,*,#539,.F.);
#407=ORIENTED_EDGE('',*,*,#541,.F.);
#408=ORIENTED_EDGE('',*,*,#542,.F.);
#409=ORIENTED_EDGE('',*,*,#543,.F.);
#410=ORIENTED_EDGE('',*,*,#480,.T.);
#411=ORIENTED_EDGE('',*,*,#544,.T.);
#412=ORIENTED_EDGE('',*,*,#545,.F.);
#413=ORIENTED_EDGE('',*,*,#544,.F.);
#414=ORIENTED_EDGE('',*,*,#487,.T.);
#415=ORIENTED_EDGE('',*,*,#546,.T.);
#416=ORIENTED_EDGE('',*,*,#547,.F.);
#417=ORIENTED_EDGE('',*,*,#546,.F.);
#418=ORIENTED_EDGE('',*,*,#486,.T.);
#419=ORIENTED_EDGE('',*,*,#548,.T.);
#420=ORIENTED_EDGE('',*,*,#549,.F.);
#421=ORIENTED_EDGE('',*,*,#548,.F.);
#422=ORIENTED_EDGE('',*,*,#485,.T.);
#423=ORIENTED_EDGE('',*,*,#550,.T.);
#424=ORIENTED_EDGE('',*,*,#551,.F.);
#425=ORIENTED_EDGE('',*,*,#550,.F.);
#426=ORIENTED_EDGE('',*,*,#484,.T.);
#427=ORIENTED_EDGE('',*,*,#552,.T.);
#428=ORIENTED_EDGE('',*,*,#553,.F.);
#429=ORIENTED_EDGE('',*,*,#552,.F.);
#430=ORIENTED_EDGE('',*,*,#483,.T.);
#431=ORIENTED_EDGE('',*,*,#554,.T.);
#432=ORIENTED_EDGE('',*,*,#555,.F.);
#433=ORIENTED_EDGE('',*,*,#554,.F.);
#434=ORIENTED_EDGE('',*,*,#482,.T.);
#435=ORIENTED_EDGE('',*,*,#556,.T.);
#436=ORIENTED_EDGE('',*,*,#557,.F.);
#437=ORIENTED_EDGE('',*,*,#556,.F.);
#438=ORIENTED_EDGE('',*,*,#481,.T.);
#439=ORIENTED_EDGE('',*,*,#543,.T.);
#440=ORIENTED_EDGE('',*,*,#542,.T.);
#441=ORIENTED_EDGE('',*,*,#545,.T.);
#442=ORIENTED_EDGE('',*,*,#547,.T.);
#443=ORIENTED_EDGE('',*,*,#549,.T.);
#444=ORIENTED_EDGE('',*,*,#551,.T.);
#445=ORIENTED_EDGE('',*,*,#553,.T.);
#446=ORIENTED_EDGE('',*,*,#555,.T.);
#447=ORIENTED_EDGE('',*,*,#557,.T.);
#448=EDGE_CURVE('',#558,#559,#628,.T.);
#449=EDGE_CURVE('',#559,#560,#629,.T.);
#450=EDGE_CURVE('',#560,#561,#118,.T.);
#451=EDGE_CURVE('',#561,#562,#630,.T.);
#452=EDGE_CURVE('',#562,#563,#631,.T.);
#453=EDGE_CURVE('',#563,#564,#119,.T.);
#454=EDGE_CURVE('',#564,#558,#120,.T.);
#455=EDGE_CURVE('',#565,#566,#101,.T.);
#456=EDGE_CURVE('',#567,#565,#102,.T.);
#457=EDGE_CURVE('',#568,#567,#103,.T.);
#458=EDGE_CURVE('',#569,#568,#104,.T.);
#459=EDGE_CURVE('',#570,#569,#105,.T.);
#460=EDGE_CURVE('',#566,#570,#106,.T.);
#461=EDGE_CURVE('',#571,#572,#121,.T.);
#462=EDGE_CURVE('',#571,#573,#122,.F.);
#463=EDGE_CURVE('',#573,#574,#123,.T.);
#464=EDGE_CURVE('',#574,#572,#124,.T.);
#465=EDGE_CURVE('',#575,#576,#125,.T.);
#466=EDGE_CURVE('',#575,#577,#126,.T.);
#467=EDGE_CURVE('',#577,#578,#632,.F.);
#468=EDGE_CURVE('',#578,#579,#127,.T.);
#469=EDGE_CURVE('',#579,#580,#633,.F.);
#470=EDGE_CURVE('',#580,#576,#128,.T.);
#471=EDGE_CURVE('',#581,#582,#129,.T.);
#472=EDGE_CURVE('',#581,#583,#130,.F.);
#473=EDGE_CURVE('',#583,#584,#131,.T.);
#474=EDGE_CURVE('',#584,#582,#132,.T.);
#475=EDGE_CURVE('',#583,#575,#634,.F.);
#476=EDGE_CURVE('',#576,#571,#635,.F.);
#477=EDGE_CURVE('',#572,#585,#636,.F.);
#478=EDGE_CURVE('',#585,#586,#133,.T.);
#479=EDGE_CURVE('',#586,#584,#637,.F.);
#480=EDGE_CURVE('',#587,#588,#134,.T.);
#481=EDGE_CURVE('',#589,#587,#638,.T.);
#482=EDGE_CURVE('',#590,#589,#135,.T.);
#483=EDGE_CURVE('',#591,#590,#639,.T.);
#484=EDGE_CURVE('',#592,#591,#136,.T.);
#485=EDGE_CURVE('',#593,#592,#640,.T.);
#486=EDGE_CURVE('',#594,#593,#137,.T.);
#487=EDGE_CURVE('',#588,#594,#641,.T.);
#488=EDGE_CURVE('',#563,#586,#138,.F.);
#489=EDGE_CURVE('',#585,#595,#139,.F.);
#490=EDGE_CURVE('',#595,#596,#642,.T.);
#491=EDGE_CURVE('',#596,#597,#140,.F.);
#492=EDGE_CURVE('',#597,#598,#643,.T.);
#493=EDGE_CURVE('',#598,#599,#141,.F.);
#494=EDGE_CURVE('',#599,#600,#100,.F.);
#495=EDGE_CURVE('',#600,#601,#142,.T.);
#496=EDGE_CURVE('',#601,#602,#107,.T.);
#497=EDGE_CURVE('',#564,#602,#143,.T.);
#498=EDGE_CURVE('',#603,#604,#144,.T.);
#499=EDGE_CURVE('',#603,#581,#644,.T.);
#500=EDGE_CURVE('',#582,#604,#645,.F.);
#501=EDGE_CURVE('',#605,#606,#145,.T.);
#502=EDGE_CURVE('',#605,#603,#146,.F.);
#503=EDGE_CURVE('',#604,#606,#147,.T.);
#504=EDGE_CURVE('',#573,#605,#646,.T.);
#505=EDGE_CURVE('',#606,#574,#647,.F.);
#506=EDGE_CURVE('',#573,#580,#648,.T.);
#507=EDGE_CURVE('',#605,#579,#649,.T.);
#508=EDGE_CURVE('',#577,#581,#650,.T.);
#509=EDGE_CURVE('',#603,#578,#651,.T.);
#510=EDGE_CURVE('',#595,#574,#652,.T.);
#511=EDGE_CURVE('',#596,#606,#653,.T.);
#512=EDGE_CURVE('',#597,#604,#654,.T.);
#513=EDGE_CURVE('',#598,#582,#655,.T.);
#514=EDGE_CURVE('',#562,#607,#148,.T.);
#515=EDGE_CURVE('',#607,#608,#108,.F.);
#516=EDGE_CURVE('',#608,#599,#109,.F.);
#517=EDGE_CURVE('',#558,#609,#149,.T.);
#518=EDGE_CURVE('',#609,#610,#110,.T.);
#519=EDGE_CURVE('',#559,#610,#150,.T.);
#520=EDGE_CURVE('',#610,#611,#656,.T.);
#521=EDGE_CURVE('',#560,#611,#151,.T.);
#522=EDGE_CURVE('',#611,#612,#152,.T.);
#523=EDGE_CURVE('',#561,#612,#153,.T.);
#524=EDGE_CURVE('',#612,#607,#657,.T.);
#525=EDGE_CURVE('',#602,#609,#111,.T.);
#526=EDGE_CURVE('',#600,#613,#154,.F.);
#527=EDGE_CURVE('',#613,#601,#658,.F.);
#528=EDGE_CURVE('',#611,#613,#659,.T.);
#529=EDGE_CURVE('',#612,#608,#660,.T.);
#530=EDGE_CURVE('',#614,#615,#112,.F.);
#531=EDGE_CURVE('',#615,#567,#155,.F.);
#532=EDGE_CURVE('',#614,#565,#156,.F.);
#533=EDGE_CURVE('',#616,#614,#113,.F.);
#534=EDGE_CURVE('',#616,#566,#157,.F.);
#535=EDGE_CURVE('',#617,#616,#114,.F.);
#536=EDGE_CURVE('',#617,#570,#158,.F.);
#537=EDGE_CURVE('',#618,#617,#115,.F.);
#538=EDGE_CURVE('',#618,#569,#159,.F.);
#539=EDGE_CURVE('',#619,#618,#116,.F.);
#540=EDGE_CURVE('',#619,#568,#160,.F.);
#541=EDGE_CURVE('',#615,#619,#117,.F.);
#542=EDGE_CURVE('',#620,#621,#161,.T.);
#543=EDGE_CURVE('',#587,#620,#162,.T.);
#544=EDGE_CURVE('',#588,#621,#163,.T.);
#545=EDGE_CURVE('',#621,#622,#661,.T.);
#546=EDGE_CURVE('',#594,#622,#164,.T.);
#547=EDGE_CURVE('',#622,#623,#165,.T.);
#548=EDGE_CURVE('',#593,#623,#166,.T.);
#549=EDGE_CURVE('',#623,#624,#662,.T.);
#550=EDGE_CURVE('',#592,#624,#167,.T.);
#551=EDGE_CURVE('',#624,#625,#168,.T.);
#552=EDGE_CURVE('',#591,#625,#169,.T.);
#553=EDGE_CURVE('',#625,#626,#663,.T.);
#554=EDGE_CURVE('',#590,#626,#170,.T.);
#555=EDGE_CURVE('',#626,#627,#171,.T.);
#556=EDGE_CURVE('',#589,#627,#172,.T.);
#557=EDGE_CURVE('',#627,#620,#664,.T.);
#558=VERTEX_POINT('',#1166);
#559=VERTEX_POINT('',#1167);
#560=VERTEX_POINT('',#1169);
#561=VERTEX_POINT('',#1171);
#562=VERTEX_POINT('',#1173);
#563=VERTEX_POINT('',#1175);
#564=VERTEX_POINT('',#1177);
#565=VERTEX_POINT('',#1184);
#566=VERTEX_POINT('',#1185);
#567=VERTEX_POINT('',#1190);
#568=VERTEX_POINT('',#1195);
#569=VERTEX_POINT('',#1203);
#570=VERTEX_POINT('',#1209);
#571=VERTEX_POINT('',#1216);
#572=VERTEX_POINT('',#1217);
#573=VERTEX_POINT('',#1219);
#574=VERTEX_POINT('',#1221);
#575=VERTEX_POINT('',#1225);
#576=VERTEX_POINT('',#1226);
#577=VERTEX_POINT('',#1228);
#578=VERTEX_POINT('',#1230);
#579=VERTEX_POINT('',#1232);
#580=VERTEX_POINT('',#1234);
#581=VERTEX_POINT('',#1238);
#582=VERTEX_POINT('',#1239);
#583=VERTEX_POINT('',#1241);
#584=VERTEX_POINT('',#1243);
#585=VERTEX_POINT('',#1249);
#586=VERTEX_POINT('',#1251);
#587=VERTEX_POINT('',#1255);
#588=VERTEX_POINT('',#1256);
#589=VERTEX_POINT('',#1258);
#590=VERTEX_POINT('',#1260);
#591=VERTEX_POINT('',#1262);
#592=VERTEX_POINT('',#1264);
#593=VERTEX_POINT('',#1266);
#594=VERTEX_POINT('',#1268);
#595=VERTEX_POINT('',#1272);
#596=VERTEX_POINT('',#1274);
#597=VERTEX_POINT('',#1276);
#598=VERTEX_POINT('',#1278);
#599=VERTEX_POINT('',#1280);
#600=VERTEX_POINT('',#1282);
#601=VERTEX_POINT('',#1284);
#602=VERTEX_POINT('',#1289);
#603=VERTEX_POINT('',#1293);
#604=VERTEX_POINT('',#1294);
#605=VERTEX_POINT('',#1299);
#606=VERTEX_POINT('',#1300);
#607=VERTEX_POINT('',#1325);
#608=VERTEX_POINT('',#1331);
#609=VERTEX_POINT('',#1338);
#610=VERTEX_POINT('',#1343);
#611=VERTEX_POINT('',#1347);
#612=VERTEX_POINT('',#1351);
#613=VERTEX_POINT('',#1362);
#614=VERTEX_POINT('',#1381);
#615=VERTEX_POINT('',#1382);
#616=VERTEX_POINT('',#1398);
#617=VERTEX_POINT('',#1412);
#618=VERTEX_POINT('',#1427);
#619=VERTEX_POINT('',#1446);
#620=VERTEX_POINT('',#1463);
#621=VERTEX_POINT('',#1464);
#622=VERTEX_POINT('',#1469);
#623=VERTEX_POINT('',#1473);
#624=VERTEX_POINT('',#1477);
#625=VERTEX_POINT('',#1481);
#626=VERTEX_POINT('',#1485);
#627=VERTEX_POINT('',#1489);
#628=CIRCLE('',#831,2.20248023000699);
#629=CIRCLE('',#832,4.);
#630=CIRCLE('',#833,27.3);
#631=CIRCLE('',#834,3.);
#632=CIRCLE('',#837,8.);
#633=CIRCLE('',#838,8.);
#634=CIRCLE('',#841,3.);
#635=CIRCLE('',#842,3.);
#636=CIRCLE('',#843,3.);
#637=CIRCLE('',#844,3.);
#638=CIRCLE('',#846,2.);
#639=CIRCLE('',#847,2.);
#640=CIRCLE('',#848,2.);
#641=CIRCLE('',#849,2.);
#642=CIRCLE('',#850,8.);
#643=CIRCLE('',#851,8.);
#644=CIRCLE('',#854,11.);
#645=CIRCLE('',#855,11.);
#646=CIRCLE('',#858,11.);
#647=CIRCLE('',#859,11.);
#648=CIRCLE('',#861,3.);
#649=CIRCLE('',#863,3.);
#650=CIRCLE('',#865,3.);
#651=CIRCLE('',#867,3.);
#652=CIRCLE('',#870,3.);
#653=CIRCLE('',#872,3.);
#654=CIRCLE('',#874,3.);
#655=CIRCLE('',#876,3.);
#656=CIRCLE('',#880,4.);
#657=CIRCLE('',#883,27.3);
#658=CIRCLE('',#886,0.999999999999997);
#659=CIRCLE('',#888,3.);
#660=CIRCLE('',#890,3.);
#661=CIRCLE('',#895,2.);
#662=CIRCLE('',#898,2.);
#663=CIRCLE('',#901,2.);
#664=CIRCLE('',#904,2.);
#665=EDGE_LOOP('',(#228,#229,#230,#231,#232,#233,#234));
#666=EDGE_LOOP('',(#235,#236,#237,#238,#239,#240));
#667=EDGE_LOOP('',(#241,#242,#243,#244));
#668=EDGE_LOOP('',(#245,#246,#247,#248,#249,#250));
#669=EDGE_LOOP('',(#251,#252,#253,#254));
#670=EDGE_LOOP('',(#255,#256,#257,#258,#259,#260,#261,#262));
#671=EDGE_LOOP('',(#263,#264,#265,#266,#267,#268,#269,#270));
#672=EDGE_LOOP('',(#271,#272,#273,#274,#275,#276,#277,#278,#279,#280,#281,
#282));
#673=EDGE_LOOP('',(#283,#284,#285,#286));
#674=EDGE_LOOP('',(#287,#288,#289,#290));
#675=EDGE_LOOP('',(#291,#292,#293,#294));
#676=EDGE_LOOP('',(#295,#296,#297,#298));
#677=EDGE_LOOP('',(#299,#300,#301,#302));
#678=EDGE_LOOP('',(#303,#304,#305,#306));
#679=EDGE_LOOP('',(#307,#308,#309,#310));
#680=EDGE_LOOP('',(#311,#312,#313,#314));
#681=EDGE_LOOP('',(#315,#316,#317,#318));
#682=EDGE_LOOP('',(#319,#320,#321,#322));
#683=EDGE_LOOP('',(#323,#324,#325,#326));
#684=EDGE_LOOP('',(#327,#328,#329,#330));
#685=EDGE_LOOP('',(#331,#332,#333,#334,#335,#336,#337,#338,#339));
#686=EDGE_LOOP('',(#340,#341,#342,#343));
#687=EDGE_LOOP('',(#344,#345,#346,#347));
#688=EDGE_LOOP('',(#348,#349,#350,#351));
#689=EDGE_LOOP('',(#352,#353,#354,#355));
#690=EDGE_LOOP('',(#356,#357,#358,#359));
#691=EDGE_LOOP('',(#360,#361,#362));
#692=EDGE_LOOP('',(#363,#364,#365,#366,#367,#368));
#693=EDGE_LOOP('',(#369,#370,#371,#372,#373,#374));
#694=EDGE_LOOP('',(#375,#376,#377));
#695=EDGE_LOOP('',(#378,#379,#380,#381));
#696=EDGE_LOOP('',(#382,#383,#384,#385));
#697=EDGE_LOOP('',(#386,#387,#388,#389));
#698=EDGE_LOOP('',(#390,#391,#392,#393));
#699=EDGE_LOOP('',(#394,#395,#396,#397));
#700=EDGE_LOOP('',(#398,#399,#400,#401));
#701=EDGE_LOOP('',(#402,#403,#404,#405,#406,#407));
#702=EDGE_LOOP('',(#408,#409,#410,#411));
#703=EDGE_LOOP('',(#412,#413,#414,#415));
#704=EDGE_LOOP('',(#416,#417,#418,#419));
#705=EDGE_LOOP('',(#420,#421,#422,#423));
#706=EDGE_LOOP('',(#424,#425,#426,#427));
#707=EDGE_LOOP('',(#428,#429,#430,#431));
#708=EDGE_LOOP('',(#432,#433,#434,#435));
#709=EDGE_LOOP('',(#436,#437,#438,#439));
#710=EDGE_LOOP('',(#440,#441,#442,#443,#444,#445,#446,#447));
#711=FACE_BOUND('',#665,.T.);
#712=FACE_BOUND('',#666,.T.);
#713=FACE_BOUND('',#667,.T.);
#714=FACE_BOUND('',#668,.T.);
#715=FACE_BOUND('',#669,.T.);
#716=FACE_BOUND('',#670,.T.);
#717=FACE_BOUND('',#671,.T.);
#718=FACE_BOUND('',#672,.T.);
#719=FACE_BOUND('',#673,.T.);
#720=FACE_BOUND('',#674,.T.);
#721=FACE_BOUND('',#675,.T.);
#722=FACE_BOUND('',#676,.T.);
#723=FACE_BOUND('',#677,.T.);
#724=FACE_BOUND('',#678,.T.);
#725=FACE_BOUND('',#679,.T.);
#726=FACE_BOUND('',#680,.T.);
#727=FACE_BOUND('',#681,.T.);
#728=FACE_BOUND('',#682,.T.);
#729=FACE_BOUND('',#683,.T.);
#730=FACE_BOUND('',#684,.T.);
#731=FACE_BOUND('',#685,.T.);
#732=FACE_BOUND('',#686,.T.);
#733=FACE_BOUND('',#687,.T.);
#734=FACE_BOUND('',#688,.T.);
#735=FACE_BOUND('',#689,.T.);
#736=FACE_BOUND('',#690,.T.);
#737=FACE_BOUND('',#691,.T.);
#738=FACE_BOUND('',#692,.T.);
#739=FACE_BOUND('',#693,.T.);
#740=FACE_BOUND('',#694,.T.);
#741=FACE_BOUND('',#695,.T.);
#742=FACE_BOUND('',#696,.T.);
#743=FACE_BOUND('',#697,.T.);
#744=FACE_BOUND('',#698,.T.);
#745=FACE_BOUND('',#699,.T.);
#746=FACE_BOUND('',#700,.T.);
#747=FACE_BOUND('',#701,.T.);
#748=FACE_BOUND('',#702,.T.);
#749=FACE_BOUND('',#703,.T.);
#750=FACE_BOUND('',#704,.T.);
#751=FACE_BOUND('',#705,.T.);
#752=FACE_BOUND('',#706,.T.);
#753=FACE_BOUND('',#707,.T.);
#754=FACE_BOUND('',#708,.T.);
#755=FACE_BOUND('',#709,.T.);
#756=FACE_BOUND('',#710,.T.);
#757=PLANE('',#830);
#758=PLANE('',#835);
#759=PLANE('',#836);
#760=PLANE('',#839);
#761=PLANE('',#840);
#762=PLANE('',#845);
#763=PLANE('',#856);
#764=PLANE('',#881);
#765=PLANE('',#884);
#766=PLANE('',#885);
#767=PLANE('',#892);
#768=PLANE('',#893);
#769=PLANE('',#896);
#770=PLANE('',#899);
#771=PLANE('',#902);
#772=PLANE('',#905);
#773=ADVANCED_FACE('',(#711,#712),#757,.T.);
#774=ADVANCED_FACE('',(#713),#758,.F.);
#775=ADVANCED_FACE('',(#714),#759,.F.);
#776=ADVANCED_FACE('',(#715),#760,.T.);
#777=ADVANCED_FACE('',(#716),#761,.F.);
#778=ADVANCED_FACE('',(#717,#718),#762,.T.);
#779=ADVANCED_FACE('',(#719),#84,.T.);
#780=ADVANCED_FACE('',(#720),#763,.T.);
#781=ADVANCED_FACE('',(#721),#85,.T.);
#782=ADVANCED_FACE('',(#722),#86,.T.);
#783=ADVANCED_FACE('',(#723),#79,.T.);
#784=ADVANCED_FACE('',(#724),#87,.T.);
#785=ADVANCED_FACE('',(#725),#88,.T.);
#786=ADVANCED_FACE('',(#726),#80,.T.);
#787=ADVANCED_FACE('',(#727),#89,.T.);
#788=ADVANCED_FACE('',(#728),#81,.T.);
#789=ADVANCED_FACE('',(#729),#90,.T.);
#790=ADVANCED_FACE('',(#730),#82,.T.);
#791=ADVANCED_FACE('',(#731),#91,.T.);
#792=ADVANCED_FACE('',(#732),#92,.T.);
#793=ADVANCED_FACE('',(#733),#93,.T.);
#794=ADVANCED_FACE('',(#734),#764,.F.);
#795=ADVANCED_FACE('',(#735),#94,.T.);
#796=ADVANCED_FACE('',(#736),#765,.F.);
#797=ADVANCED_FACE('',(#737),#766,.F.);
#798=ADVANCED_FACE('',(#738),#78,.T.);
#799=ADVANCED_FACE('',(#739),#95,.T.);
#800=ADVANCED_FACE('',(#740),#83,.T.);
#801=ADVANCED_FACE('',(#741),#72,.T.);
#802=ADVANCED_FACE('',(#742),#73,.T.);
#803=ADVANCED_FACE('',(#743),#74,.T.);
#804=ADVANCED_FACE('',(#744),#75,.T.);
#805=ADVANCED_FACE('',(#745),#76,.T.);
#806=ADVANCED_FACE('',(#746),#77,.T.);
#807=ADVANCED_FACE('',(#747),#767,.T.);
#808=ADVANCED_FACE('',(#748),#768,.T.);
#809=ADVANCED_FACE('',(#749),#96,.T.);
#810=ADVANCED_FACE('',(#750),#769,.T.);
#811=ADVANCED_FACE('',(#751),#97,.T.);
#812=ADVANCED_FACE('',(#752),#770,.T.);
#813=ADVANCED_FACE('',(#753),#98,.T.);
#814=ADVANCED_FACE('',(#754),#771,.T.);
#815=ADVANCED_FACE('',(#755),#99,.T.);
#816=ADVANCED_FACE('',(#756),#772,.T.);
#817=CLOSED_SHELL('',(#773,#774,#775,#776,#777,#778,#779,#780,#781,#782,
#783,#784,#785,#786,#787,#788,#789,#790,#791,#792,#793,#794,#795,#796,#797,
#798,#799,#800,#801,#802,#803,#804,#805,#806,#807,#808,#809,#810,#811,#812,
#813,#814,#815,#816));
#818=STYLED_ITEM('',(#819),#826);
#819=PRESENTATION_STYLE_ASSIGNMENT((#820));
#820=SURFACE_STYLE_USAGE(.BOTH.,#821);
#821=SURFACE_SIDE_STYLE('',(#822));
#822=SURFACE_STYLE_FILL_AREA(#823);
#823=FILL_AREA_STYLE('',(#824));
#824=FILL_AREA_STYLE_COLOUR('',#825);
#825=COLOUR_RGB('',0.611764705882353,0.658823529411765,0.670588235294118);
#826=MANIFOLD_SOLID_BREP('Body (0)',#817);
#827=SHAPE_DEFINITION_REPRESENTATION(#1524,#828);
#828=SHAPE_REPRESENTATION('OOM-E01-Exported',(#829),#1519);
#829=AXIS2_PLACEMENT_3D('',#1163,#922,#923);
#830=AXIS2_PLACEMENT_3D('',#1164,#924,#925);
#831=AXIS2_PLACEMENT_3D('',#1165,#926,#927);
#832=AXIS2_PLACEMENT_3D('',#1168,#928,#929);
#833=AXIS2_PLACEMENT_3D('',#1172,#931,#932);
#834=AXIS2_PLACEMENT_3D('',#1174,#933,#934);
#835=AXIS2_PLACEMENT_3D('',#1214,#937,#938);
#836=AXIS2_PLACEMENT_3D('',#1223,#943,#944);
#837=AXIS2_PLACEMENT_3D('',#1229,#947,#948);
#838=AXIS2_PLACEMENT_3D('',#1233,#950,#951);
#839=AXIS2_PLACEMENT_3D('',#1236,#953,#954);
#840=AXIS2_PLACEMENT_3D('',#1245,#959,#960);
#841=AXIS2_PLACEMENT_3D('',#1246,#961,#962);
#842=AXIS2_PLACEMENT_3D('',#1247,#963,#964);
#843=AXIS2_PLACEMENT_3D('',#1248,#965,#966);
#844=AXIS2_PLACEMENT_3D('',#1252,#968,#969);
#845=AXIS2_PLACEMENT_3D('',#1253,#970,#971);
#846=AXIS2_PLACEMENT_3D('',#1257,#973,#974);
#847=AXIS2_PLACEMENT_3D('',#1261,#976,#977);
#848=AXIS2_PLACEMENT_3D('',#1265,#979,#980);
#849=AXIS2_PLACEMENT_3D('',#1269,#982,#983);
#850=AXIS2_PLACEMENT_3D('',#1273,#986,#987);
#851=AXIS2_PLACEMENT_3D('',#1277,#989,#990);
#852=AXIS2_PLACEMENT_3D('',#1281,#992,#993);
#853=AXIS2_PLACEMENT_3D('',#1291,#996,#997);
#854=AXIS2_PLACEMENT_3D('',#1295,#999,#1000);
#855=AXIS2_PLACEMENT_3D('',#1296,#1001,#1002);
#856=AXIS2_PLACEMENT_3D('',#1297,#1003,#1004);
#857=AXIS2_PLACEMENT_3D('',#1303,#1008,#1009);
#858=AXIS2_PLACEMENT_3D('',#1304,#1010,#1011);
#859=AXIS2_PLACEMENT_3D('',#1305,#1012,#1013);
#860=AXIS2_PLACEMENT_3D('',#1306,#1014,#1015);
#861=AXIS2_PLACEMENT_3D('',#1307,#1016,#1017);
#862=AXIS2_PLACEMENT_3D('',#1308,#1018,#1019);
#863=AXIS2_PLACEMENT_3D('',#1309,#1020,#1021);
#864=AXIS2_PLACEMENT_3D('',#1310,#1022,#1023);
#865=AXIS2_PLACEMENT_3D('',#1311,#1024,#1025);
#866=AXIS2_PLACEMENT_3D('',#1312,#1026,#1027);
#867=AXIS2_PLACEMENT_3D('',#1313,#1028,#1029);
#868=AXIS2_PLACEMENT_3D('',#1314,#1030,#1031);
#869=AXIS2_PLACEMENT_3D('',#1315,#1032,#1033);
#870=AXIS2_PLACEMENT_3D('',#1316,#1034,#1035);
#871=AXIS2_PLACEMENT_3D('',#1317,#1036,#1037);
#872=AXIS2_PLACEMENT_3D('',#1318,#1038,#1039);
#873=AXIS2_PLACEMENT_3D('',#1319,#1040,#1041);
#874=AXIS2_PLACEMENT_3D('',#1320,#1042,#1043);
#875=AXIS2_PLACEMENT_3D('',#1321,#1044,#1045);
#876=AXIS2_PLACEMENT_3D('',#1322,#1046,#1047);
#877=AXIS2_PLACEMENT_3D('',#1323,#1048,#1049);
#878=AXIS2_PLACEMENT_3D('',#1336,#1051,#1052);
#879=AXIS2_PLACEMENT_3D('',#1345,#1055,#1056);
#880=AXIS2_PLACEMENT_3D('',#1346,#1057,#1058);
#881=AXIS2_PLACEMENT_3D('',#1349,#1060,#1061);
#882=AXIS2_PLACEMENT_3D('',#1353,#1064,#1065);
#883=AXIS2_PLACEMENT_3D('',#1354,#1066,#1067);
#884=AXIS2_PLACEMENT_3D('',#1355,#1068,#1069);
#885=AXIS2_PLACEMENT_3D('',#1360,#1070,#1071);
#886=AXIS2_PLACEMENT_3D('',#1363,#1073,#1074);
#887=AXIS2_PLACEMENT_3D('',#1364,#1075,#1076);
#888=AXIS2_PLACEMENT_3D('',#1365,#1077,#1078);
#889=AXIS2_PLACEMENT_3D('',#1366,#1079,#1080);
#890=AXIS2_PLACEMENT_3D('',#1367,#1081,#1082);
#891=AXIS2_PLACEMENT_3D('',#1368,#1083,#1084);
#892=AXIS2_PLACEMENT_3D('',#1460,#1091,#1092);
#893=AXIS2_PLACEMENT_3D('',#1461,#1093,#1094);
#894=AXIS2_PLACEMENT_3D('',#1467,#1098,#1099);
#895=AXIS2_PLACEMENT_3D('',#1468,#1100,#1101);
#896=AXIS2_PLACEMENT_3D('',#1471,#1103,#1104);
#897=AXIS2_PLACEMENT_3D('',#1475,#1107,#1108);
#898=AXIS2_PLACEMENT_3D('',#1476,#1109,#1110);
#899=AXIS2_PLACEMENT_3D('',#1479,#1112,#1113);
#900=AXIS2_PLACEMENT_3D('',#1483,#1116,#1117);
#901=AXIS2_PLACEMENT_3D('',#1484,#1118,#1119);
#902=AXIS2_PLACEMENT_3D('',#1487,#1121,#1122);
#903=AXIS2_PLACEMENT_3D('',#1491,#1125,#1126);
#904=AXIS2_PLACEMENT_3D('',#1492,#1127,#1128);
#905=AXIS2_PLACEMENT_3D('',#1493,#1129,#1130);
#906=AXIS2_PLACEMENT_3D('',#1494,#1131,#1132);
#907=AXIS2_PLACEMENT_3D('',#1496,#1133,#1134);
#908=AXIS2_PLACEMENT_3D('',#1497,#1135,#1136);
#909=AXIS2_PLACEMENT_3D('',#1499,#1137,#1138);
#910=AXIS2_PLACEMENT_3D('',#1500,#1139,#1140);
#911=AXIS2_PLACEMENT_3D('',#1502,#1141,#1142);
#912=AXIS2_PLACEMENT_3D('',#1503,#1143,#1144);
#913=AXIS2_PLACEMENT_3D('',#1505,#1145,#1146);
#914=AXIS2_PLACEMENT_3D('',#1506,#1147,#1148);
#915=AXIS2_PLACEMENT_3D('',#1508,#1149,#1150);
#916=AXIS2_PLACEMENT_3D('',#1509,#1151,#1152);
#917=AXIS2_PLACEMENT_3D('',#1511,#1153,#1154);
#918=AXIS2_PLACEMENT_3D('',#1512,#1155,#1156);
#919=AXIS2_PLACEMENT_3D('',#1514,#1157,#1158);
#920=AXIS2_PLACEMENT_3D('',#1515,#1159,#1160);
#921=AXIS2_PLACEMENT_3D('',#1517,#1161,#1162);
#922=DIRECTION('',(0.,0.,1.));
#923=DIRECTION('',(1.,0.,0.));
#924=DIRECTION('',(1.,-1.38050658413677E-30,-1.17145536458252E-15));
#925=DIRECTION('',(-1.17145536458252E-15,-1.17145536458252E-15,-1.));
#926=DIRECTION('',(1.,-1.38050658413677E-30,-1.17145536458252E-15));
#927=DIRECTION('',(-6.3532040201403E-32,1.,-1.23268770453989E-15));
#928=DIRECTION('',(1.,-1.38050658413677E-30,-1.17145536458252E-15));
#929=DIRECTION('',(1.13633840667492E-15,0.243013945421249,0.97002279474804));
#930=DIRECTION('',(-1.83780064844813E-16,0.987617380609623,-0.156881832975607));
#931=DIRECTION('',(1.,-1.38050658413677E-30,-1.17145536458252E-15));
#932=DIRECTION('',(-6.3532040201403E-32,1.,-1.23268770453989E-15));
#933=DIRECTION('',(-1.,1.38050658413677E-30,1.17145536458252E-15));
#934=DIRECTION('',(-1.17145536458252E-15,-1.04899068466779E-15,-1.));
#935=DIRECTION('',(1.17145536458252E-15,-3.44369138372356E-16,1.));
#936=DIRECTION('',(2.2831013089046E-17,-0.999810062758813,0.0194894434558194));
#937=DIRECTION('',(0.,0.,-1.));
#938=DIRECTION('',(1.,0.,0.));
#939=DIRECTION('',(0.,-1.,0.));
#940=DIRECTION('',(1.,0.,0.));
#941=DIRECTION('',(0.,-1.,0.));
#942=DIRECTION('',(1.,0.,0.));
#943=DIRECTION('',(0.,-1.,0.));
#944=DIRECTION('',(0.,0.,-1.));
#945=DIRECTION('',(0.,0.,1.));
#946=DIRECTION('',(-1.,0.,0.));
#947=DIRECTION('',(0.,-1.,0.));
#948=DIRECTION('',(-1.,0.,0.));
#949=DIRECTION('',(0.,0.,1.));
#950=DIRECTION('',(0.,-1.,0.));
#951=DIRECTION('',(-1.,0.,0.));
#952=DIRECTION('',(1.,0.,0.));
#953=DIRECTION('',(0.,0.,-1.));
#954=DIRECTION('',(1.,0.,0.));
#955=DIRECTION('',(0.,-1.,0.));
#956=DIRECTION('',(-1.,0.,0.));
#957=DIRECTION('',(0.,-1.,0.));
#958=DIRECTION('',(-1.,0.,0.));
#959=DIRECTION('',(-1.,0.,0.));
#960=DIRECTION('',(0.,0.,-1.));
#961=DIRECTION('',(-1.,0.,0.));
#962=DIRECTION('',(0.,1.,0.));
#963=DIRECTION('',(-1.,0.,0.));
#964=DIRECTION('',(0.,1.,0.));
#965=DIRECTION('',(-1.,0.,0.));
#966=DIRECTION('',(0.,1.,0.));
#967=DIRECTION('',(0.,0.,-1.));
#968=DIRECTION('',(-1.,0.,0.));
#969=DIRECTION('',(0.,1.,0.));
#970=DIRECTION('',(0.,-1.,0.));
#971=DIRECTION('',(0.,0.,-1.));
#972=DIRECTION('',(-1.47170964439972E-15,0.,-1.));
#973=DIRECTION('',(0.,-1.,0.));
#974=DIRECTION('',(1.29392004449726E-15,0.,1.));
#975=DIRECTION('',(-1.,3.8647822574336E-31,1.17145536458252E-15));
#976=DIRECTION('',(0.,-1.,0.));
#977=DIRECTION('',(1.29392004449726E-15,0.,1.));
#978=DIRECTION('',(1.77196392421692E-15,0.,1.));
#979=DIRECTION('',(0.,-1.,0.));
#980=DIRECTION('',(1.29392004449726E-15,0.,1.));
#981=DIRECTION('',(1.,-3.86478225743358E-31,-1.17145536458252E-15));
#982=DIRECTION('',(0.,-1.,0.));
#983=DIRECTION('',(1.29392004449726E-15,0.,1.));
#984=DIRECTION('',(-1.,0.,0.));
#985=DIRECTION('',(1.,0.,0.));
#986=DIRECTION('',(0.,-1.,0.));
#987=DIRECTION('',(-1.,0.,0.));
#988=DIRECTION('',(0.,0.,1.));
#989=DIRECTION('',(0.,-1.,0.));
#990=DIRECTION('',(-1.,0.,0.));
#991=DIRECTION('',(-1.,0.,0.));
#992=DIRECTION('',(0.,-1.,0.));
#993=DIRECTION('',(-1.17145536458252E-15,0.,-1.));
#994=DIRECTION('',(1.17145536458252E-15,-3.44369138372356E-16,1.));
#995=DIRECTION('',(-1.,1.38050658413677E-30,1.17145536458252E-15));
#996=DIRECTION('',(0.,-1.,0.));
#997=DIRECTION('',(0.,0.,-1.));
#998=DIRECTION('',(0.,-1.,0.));
#999=DIRECTION('',(0.,-1.,0.));
#1000=DIRECTION('',(-1.,0.,0.));
#1001=DIRECTION('',(0.,-1.,0.));
#1002=DIRECTION('',(-1.,0.,0.));
#1003=DIRECTION('',(-1.,0.,0.));
#1004=DIRECTION('',(0.,0.,-1.));
#1005=DIRECTION('',(0.,-1.,0.));
#1006=DIRECTION('',(0.,0.,1.));
#1007=DIRECTION('',(0.,0.,1.));
#1008=DIRECTION('',(0.,-1.,0.));
#1009=DIRECTION('',(0.,0.,-1.));
#1010=DIRECTION('',(0.,-1.,0.));
#1011=DIRECTION('',(-1.,0.,0.));
#1012=DIRECTION('',(0.,-1.,0.));
#1013=DIRECTION('',(-1.,0.,0.));
#1014=DIRECTION('',(1.,0.,0.));
#1015=DIRECTION('',(0.,-1.,0.));
#1016=DIRECTION('',(-1.,0.,0.));
#1017=DIRECTION('',(0.,1.,0.));
#1018=DIRECTION('',(0.,-1.,0.));
#1019=DIRECTION('',(-1.,0.,0.));
#1020=DIRECTION('',(0.,0.,-1.));
#1021=DIRECTION('',(1.,0.,0.));
#1022=DIRECTION('',(1.,0.,0.));
#1023=DIRECTION('',(0.,-1.,0.));
#1024=DIRECTION('',(-1.,0.,0.));
#1025=DIRECTION('',(0.,1.,0.));
#1026=DIRECTION('',(0.,0.,-1.));
#1027=DIRECTION('',(1.,0.,0.));
#1028=DIRECTION('',(0.,0.,-1.));
#1029=DIRECTION('',(1.,0.,0.));
#1030=DIRECTION('',(0.,-1.,0.));
#1031=DIRECTION('',(-1.,0.,0.));
#1032=DIRECTION('',(-1.,0.,0.));
#1033=DIRECTION('',(0.,1.,0.));
#1034=DIRECTION('',(-1.,0.,0.));
#1035=DIRECTION('',(0.,1.,0.));
#1036=DIRECTION('',(0.,-1.,0.));
#1037=DIRECTION('',(-1.,0.,0.));
#1038=DIRECTION('',(0.,0.,-1.));
#1039=DIRECTION('',(1.,0.,0.));
#1040=DIRECTION('',(0.,0.,1.));
#1041=DIRECTION('',(-1.,0.,0.));
#1042=DIRECTION('',(0.,0.,-1.));
#1043=DIRECTION('',(1.,0.,0.));
#1044=DIRECTION('',(0.,-1.,0.));
#1045=DIRECTION('',(-1.,0.,0.));
#1046=DIRECTION('',(1.,0.,0.));
#1047=DIRECTION('',(0.,-1.,0.));
#1048=DIRECTION('',(-1.,0.,0.));
#1049=DIRECTION('',(0.,1.,0.));
#1050=DIRECTION('',(-1.,1.38050658413677E-30,1.17145536458252E-15));
#1051=DIRECTION('',(-1.,1.38050658413677E-30,1.17145536458252E-15));
#1052=DIRECTION('',(1.17145536458252E-15,1.17145536458252E-15,1.));
#1053=DIRECTION('',(-1.,1.38050658413677E-30,1.17145536458252E-15));
#1054=DIRECTION('',(-1.,1.38050658413677E-30,1.17145536458252E-15));
#1055=DIRECTION('',(-1.,1.38050658413677E-30,1.17145536458252E-15));
#1056=DIRECTION('',(1.17145536458252E-15,1.17145536458252E-15,1.));
#1057=DIRECTION('',(1.,-1.38050658413677E-30,-1.17145536458252E-15));
#1058=DIRECTION('',(1.17145536458252E-15,0.,1.));
#1059=DIRECTION('',(-1.,1.38050658413677E-30,1.17145536458252E-15));
#1060=DIRECTION('',(1.15694967867008E-15,0.156881832975607,0.987617380609623));
#1061=DIRECTION('',(1.83780064844813E-16,-0.987617380609623,0.156881832975607));
#1062=DIRECTION('',(-1.83780064844813E-16,0.987617380609624,-0.156881832975607));
#1063=DIRECTION('',(-1.,1.38050658413677E-30,1.17145536458252E-15));
#1064=DIRECTION('',(-1.,1.38050658413677E-30,1.17145536458252E-15));
#1065=DIRECTION('',(1.17145536458252E-15,1.17145536458252E-15,1.));
#1066=DIRECTION('',(1.,-1.38050658413677E-30,-1.17145536458252E-15));
#1067=DIRECTION('',(1.17145536458252E-15,0.,1.));
#1068=DIRECTION('',(-1.1712328615824E-15,-0.0194894434558194,-0.999810062758813));
#1069=DIRECTION('',(-2.2831013089046E-17,0.999810062758814,-0.0194894434558194));
#1070=DIRECTION('',(1.,-1.38050658413677E-30,-1.17145536458252E-15));
#1071=DIRECTION('',(-1.17145536458252E-15,-1.17145536458252E-15,-1.));
#1072=DIRECTION('',(-1.83780064844813E-16,0.987617380609624,-0.156881832975607));
#1073=DIRECTION('',(1.,-1.38050658413677E-30,-1.17145536458252E-15));
#1074=DIRECTION('',(1.17145536458252E-15,0.,1.));
#1075=DIRECTION('',(1.,-1.38050658413677E-30,-1.17145536458252E-15));
#1076=DIRECTION('',(1.17145536458252E-15,0.,1.));
#1077=DIRECTION('',(5.61845107667251E-13,0.987617380609712,-0.156881832975052));
#1078=DIRECTION('',(0.,0.156881832975052,0.987617380609711));
#1079=DIRECTION('',(-1.83780064844813E-16,0.987617380609624,-0.156881832975607));
#1080=DIRECTION('',(0.,0.156881832975607,0.987617380609623));
#1081=DIRECTION('',(-1.81431065744706E-16,0.987617380609623,-0.156881832975607));
#1082=DIRECTION('',(0.,0.156881832975607,0.987617380609623));
#1083=DIRECTION('',(1.,-1.38050658413677E-30,-1.17145536458252E-15));
#1084=DIRECTION('',(1.17145536458252E-15,0.,1.));
#1085=DIRECTION('',(-1.,1.38050658413677E-30,1.17145536458252E-15));
#1086=DIRECTION('',(-1.,1.38050658413677E-30,1.17145536458252E-15));
#1087=DIRECTION('',(-1.,1.38050658413677E-30,1.17145536458252E-15));
#1088=DIRECTION('',(-1.,1.38050658413677E-30,1.17145536458252E-15));
#1089=DIRECTION('',(-1.,1.38050658413677E-30,1.17145536458252E-15));
#1090=DIRECTION('',(-1.,1.38050658413677E-30,1.17145536458252E-15));
#1091=DIRECTION('',(1.,5.08265370311073E-15,-1.37413631788115E-14));
#1092=DIRECTION('',(1.37413631788115E-14,0.,1.));
#1093=DIRECTION('',(-1.,-4.37905770101505E-47,1.47170964439972E-15));
#1094=DIRECTION('',(1.47170964439972E-15,1.17145536458252E-15,1.));
#1095=DIRECTION('',(-1.47170964439972E-15,0.,-1.));
#1096=DIRECTION('',(0.,-1.,0.));
#1097=DIRECTION('',(0.,-1.,0.));
#1098=DIRECTION('',(0.,-1.,0.));
#1099=DIRECTION('',(-1.17145536458252E-15,0.,-1.));
#1100=DIRECTION('',(0.,-1.,0.));
#1101=DIRECTION('',(-1.,0.,0.));
#1102=DIRECTION('',(0.,-1.,0.));
#1103=DIRECTION('',(-1.17145536458252E-15,0.,-1.));
#1104=DIRECTION('',(1.38050658413677E-30,1.,0.));
#1105=DIRECTION('',(1.,0.,-1.17145536458252E-15));
#1106=DIRECTION('',(0.,-1.,0.));
#1107=DIRECTION('',(0.,-1.,0.));
#1108=DIRECTION('',(-1.17145536458252E-15,0.,-1.));
#1109=DIRECTION('',(0.,-1.,0.));
#1110=DIRECTION('',(-1.,0.,0.));
#1111=DIRECTION('',(0.,-1.,0.));
#1112=DIRECTION('',(1.,8.75811540203011E-47,-1.77196392421692E-15));
#1113=DIRECTION('',(-1.77196392421692E-15,-1.17145536458252E-15,-1.));
#1114=DIRECTION('',(1.77196392421692E-15,0.,1.));
#1115=DIRECTION('',(0.,-1.,0.));
#1116=DIRECTION('',(0.,-1.,0.));
#1117=DIRECTION('',(-1.17145536458252E-15,0.,-1.));
#1118=DIRECTION('',(0.,-1.,0.));
#1119=DIRECTION('',(-1.,0.,0.));
#1120=DIRECTION('',(0.,-1.,0.));
#1121=DIRECTION('',(1.17145536458252E-15,0.,1.));
#1122=DIRECTION('',(-1.38050658413677E-30,-1.,0.));
#1123=DIRECTION('',(-1.,0.,1.17145536458252E-15));
#1124=DIRECTION('',(0.,-1.,0.));
#1125=DIRECTION('',(0.,-1.,0.));
#1126=DIRECTION('',(-1.17145536458252E-15,0.,-1.));
#1127=DIRECTION('',(0.,-1.,0.));
#1128=DIRECTION('',(-1.,0.,0.));
#1129=DIRECTION('',(0.,-1.,0.));
#1130=DIRECTION('',(-1.17145536458252E-15,0.,-1.));
#1131=DIRECTION('',(0.,0.,-1.));
#1132=DIRECTION('',(-1.,0.,0.));
#1133=DIRECTION('',(0.,0.,1.));
#1134=DIRECTION('',(1.,0.,0.));
#1135=DIRECTION('',(0.,1.,0.));
#1136=DIRECTION('',(-1.,0.,0.));
#1137=DIRECTION('',(0.,0.,1.));
#1138=DIRECTION('',(1.,0.,0.));
#1139=DIRECTION('',(-1.,0.,0.));
#1140=DIRECTION('',(0.,-1.,0.));
#1141=DIRECTION('',(0.,0.,1.));
#1142=DIRECTION('',(1.,0.,0.));
#1143=DIRECTION('',(0.,-1.,0.));
#1144=DIRECTION('',(1.,0.,0.));
#1145=DIRECTION('',(0.,0.,1.));
#1146=DIRECTION('',(1.,0.,0.));
#1147=DIRECTION('',(0.,0.,1.));
#1148=DIRECTION('',(-1.,0.,0.));
#1149=DIRECTION('',(0.,0.,1.));
#1150=DIRECTION('',(1.,0.,0.));
#1151=DIRECTION('',(1.,0.,0.));
#1152=DIRECTION('',(0.,1.,0.));
#1153=DIRECTION('',(0.,0.,1.));
#1154=DIRECTION('',(1.,0.,0.));
#1155=DIRECTION('',(-0.577350269189626,0.577350269189626,-0.577350269189626));
#1156=DIRECTION('',(-0.707106783351269,-0.707106779021826,4.32944322059647E-9));
#1157=DIRECTION('',(0.,0.,1.));
#1158=DIRECTION('',(1.,0.,0.));
#1159=DIRECTION('',(-0.718873086818576,0.585048618558824,-0.375419230954334));
#1160=DIRECTION('',(-0.631219061417312,-0.775604600620347,-1.33211470465522E-8));
#1161=DIRECTION('',(0.,0.,1.));
#1162=DIRECTION('',(1.,0.,0.));
#1163=CARTESIAN_POINT('',(0.,0.,0.));
#1164=CARTESIAN_POINT('',(13.9,-2.33862350809605,-16.0818115392253));
#1165=CARTESIAN_POINT('',(13.9,-2.33862350809605,-16.0818115392253));
#1166=CARTESIAN_POINT('',(13.9,-2.29569839419076,-13.879749642237));
#1167=CARTESIAN_POINT('',(13.9,-4.16339599814278,-14.8484727685948));
#1168=CARTESIAN_POINT('',(13.9,-0.849363998789154,-17.0883816746131));
#1169=CARTESIAN_POINT('',(13.9,-1.47689133068936,-21.038851197052));
#1170=CARTESIAN_POINT('',(13.9,-1.47689133068936,-21.038851197052));
#1171=CARTESIAN_POINT('',(13.9,0.871903877294661,-21.4119544906427));
#1172=CARTESIAN_POINT('',(13.9,5.1547779175287,5.55000000000004));
#1173=CARTESIAN_POINT('',(13.9,1.9538949947925,-21.5617013209229));
#1174=CARTESIAN_POINT('',(13.9,2.99999999999999,-18.75));
#1175=CARTESIAN_POINT('',(13.9,-1.38777878078145E-14,-18.75));
#1176=CARTESIAN_POINT('',(13.9,0.,-18.75));
#1177=CARTESIAN_POINT('',(13.9,0.,-13.9245000260466));
#1178=CARTESIAN_POINT('',(13.9,0.,-13.9245000260466));
#1179=CARTESIAN_POINT('',(13.9,-1.00226322245822,-18.7499920064987));
#1180=CARTESIAN_POINT('',(13.9,-1.00000000000003,-18.1091994755732));
#1181=CARTESIAN_POINT('',(13.9,-1.00000000000001,-16.8275984267198));
#1182=CARTESIAN_POINT('',(13.9,-0.999999999999807,-15.5459973778666));
#1183=CARTESIAN_POINT('',(13.9,-0.999999999999612,-14.9051968534401));
#1184=CARTESIAN_POINT('',(13.9,-1.00226322245822,-18.7499920064987));
#1185=CARTESIAN_POINT('',(13.9,-0.999999999999612,-14.9051968534401));
#1186=CARTESIAN_POINT('',(13.9,-0.752315025695879,-20.1414114004828));
#1187=CARTESIAN_POINT('',(13.9,-0.917460372251933,-19.6975313270642));
#1188=CARTESIAN_POINT('',(13.9,-1.00393933388068,-19.224554140975));
#1189=CARTESIAN_POINT('',(13.9,-1.00226322245822,-18.7499920064987));
#1190=CARTESIAN_POINT('',(13.9,-0.752315025695879,-20.1414114004828));
#1191=CARTESIAN_POINT('',(13.9,-1.32035452470966,-20.0535953523731));
#1192=CARTESIAN_POINT('',(13.9,-1.13077800704152,-20.0812930111226));
#1193=CARTESIAN_POINT('',(13.9,-0.941546516369282,-20.1113522058029));
#1194=CARTESIAN_POINT('',(13.9,-0.752315025695879,-20.1414114004828));
#1195=CARTESIAN_POINT('',(13.9,-1.32035452470966,-20.0535953523731));
#1196=CARTESIAN_POINT('',(13.9,-3.3374358378639,-15.4067149315969));
#1197=CARTESIAN_POINT('',(13.9,-3.47906139055935,-15.6146837957196));
#1198=CARTESIAN_POINT('',(13.9,-3.93442698214339,-16.5157576474299));
#1199=CARTESIAN_POINT('',(13.9,-3.88810755020511,-18.1316675886473));
#1200=CARTESIAN_POINT('',(13.9,-2.76300398189995,-19.555831028175));
#1201=CARTESIAN_POINT('',(13.9,-1.81939996210718,-19.980683420054));
#1202=CARTESIAN_POINT('',(13.9,-1.32035452470966,-20.0535953523731));
#1203=CARTESIAN_POINT('',(13.9,-3.3374358378639,-15.4067149315969));
#1204=CARTESIAN_POINT('',(13.9,-2.31513642234546,-14.8774454720137));
#1205=CARTESIAN_POINT('',(13.9,-2.51516691814481,-14.8725809995246));
#1206=CARTESIAN_POINT('',(13.9,-2.9148693381451,-14.9708236785202));
#1207=CARTESIAN_POINT('',(13.9,-3.22471463032521,-15.2411904125521));
#1208=CARTESIAN_POINT('',(13.9,-3.3374358378639,-15.4067149315969));
#1209=CARTESIAN_POINT('',(13.9,-2.31513642234546,-14.8774454720137));
#1210=CARTESIAN_POINT('',(13.9,-0.999999999999612,-14.9051968534401));
#1211=CARTESIAN_POINT('',(13.9,-1.43839594588166,-14.8966511372924));
#1212=CARTESIAN_POINT('',(13.9,-1.87679189176412,-14.8881054211441));
#1213=CARTESIAN_POINT('',(13.9,-2.31513642234546,-14.8774454720137));
#1214=CARTESIAN_POINT('',(-16.4,68.995,21.75));
#1215=CARTESIAN_POINT('',(17.,68.995,21.75));
#1216=CARTESIAN_POINT('',(17.,134.99,21.75));
#1217=CARTESIAN_POINT('',(17.,3.,21.75));
#1218=CARTESIAN_POINT('',(-16.4,134.99,21.75));
#1219=CARTESIAN_POINT('',(-16.4,134.99,21.75));
#1220=CARTESIAN_POINT('',(-16.4,137.99,21.75));
#1221=CARTESIAN_POINT('',(-16.4,3.,21.75));
#1222=CARTESIAN_POINT('',(17.,3.,21.75));
#1223=CARTESIAN_POINT('',(-4.69999999999998,137.99,4.01362630762293E-14));
#1224=CARTESIAN_POINT('',(17.,137.99,16.55));
#1225=CARTESIAN_POINT('',(17.,137.99,-18.75));
#1226=CARTESIAN_POINT('',(17.,137.99,18.75));
#1227=CARTESIAN_POINT('',(-16.4,137.99,-18.75));
#1228=CARTESIAN_POINT('',(-16.4,137.99,-18.75));
#1229=CARTESIAN_POINT('',(-16.4,137.99,-10.75));
#1230=CARTESIAN_POINT('',(-24.4,137.99,-10.75));
#1231=CARTESIAN_POINT('',(-24.4,137.99,10.75));
#1232=CARTESIAN_POINT('',(-24.4,137.99,10.75));
#1233=CARTESIAN_POINT('',(-16.4,137.99,10.75));
#1234=CARTESIAN_POINT('',(-16.4,137.99,18.75));
#1235=CARTESIAN_POINT('',(-4.69999999999998,137.99,18.75));
#1236=CARTESIAN_POINT('',(-16.4,68.995,-21.75));
#1237=CARTESIAN_POINT('',(-16.4,137.99,-21.75));
#1238=CARTESIAN_POINT('',(-16.4,134.99,-21.75));
#1239=CARTESIAN_POINT('',(-16.4,3.,-21.75));
#1240=CARTESIAN_POINT('',(17.,134.99,-21.75));
#1241=CARTESIAN_POINT('',(17.,134.99,-21.75));
#1242=CARTESIAN_POINT('',(17.,68.995,-21.75));
#1243=CARTESIAN_POINT('',(17.,3.,-21.75));
#1244=CARTESIAN_POINT('',(-16.4,3.,-21.75));
#1245=CARTESIAN_POINT('',(17.,68.995,16.55));
#1246=CARTESIAN_POINT('',(17.,134.99,-18.75));
#1247=CARTESIAN_POINT('',(17.,134.99,18.75));
#1248=CARTESIAN_POINT('',(17.,3.,18.75));
#1249=CARTESIAN_POINT('',(17.,0.,18.75));
#1250=CARTESIAN_POINT('',(17.,0.,4.01362630762293E-14));
#1251=CARTESIAN_POINT('',(17.,0.,-18.75));
#1252=CARTESIAN_POINT('',(17.,3.,-18.75));
#1253=CARTESIAN_POINT('',(-4.69999999999998,0.,4.01362630762293E-14));
#1254=CARTESIAN_POINT('',(9.27931685738536,0.,5.93614828353199));
#1255=CARTESIAN_POINT('',(9.27931685738536,0.,5.93614828353199));
#1256=CARTESIAN_POINT('',(9.27931685738534,0.,-5.61888085399063));
#1257=CARTESIAN_POINT('',(11.2793168573854,0.,5.93614828353198));
#1258=CARTESIAN_POINT('',(11.2793168573854,0.,7.93614828353198));
#1259=CARTESIAN_POINT('',(14.3793168573854,0.,7.93614828353198));
#1260=CARTESIAN_POINT('',(14.3793168573854,0.,7.93614828353198));
#1261=CARTESIAN_POINT('',(14.3793168573854,0.,5.93614828353198));
#1262=CARTESIAN_POINT('',(16.3793168573854,0.,5.93614828353197));
#1263=CARTESIAN_POINT('',(16.3793168573853,0.,-5.61888085399063));
#1264=CARTESIAN_POINT('',(16.3793168573853,0.,-5.61888085399064));
#1265=CARTESIAN_POINT('',(14.3793168573853,0.,-5.61888085399063));
#1266=CARTESIAN_POINT('',(14.3793168573853,0.,-7.61888085399063));
#1267=CARTESIAN_POINT('',(11.2793168573853,0.,-7.61888085399063));
#1268=CARTESIAN_POINT('',(11.2793168573853,0.,-7.61888085399063));
#1269=CARTESIAN_POINT('',(11.2793168573853,0.,-5.61888085399063));
#1270=CARTESIAN_POINT('',(-4.69999999999998,0.,-18.75));
#1271=CARTESIAN_POINT('',(-16.4,0.,18.75));
#1272=CARTESIAN_POINT('',(-16.4,0.,18.75));
#1273=CARTESIAN_POINT('',(-16.4,0.,10.75));
#1274=CARTESIAN_POINT('',(-24.4,0.,10.75));
#1275=CARTESIAN_POINT('',(-24.4,0.,4.01362630762293E-14));
#1276=CARTESIAN_POINT('',(-24.4,0.,-10.75));
#1277=CARTESIAN_POINT('',(-16.4,0.,-10.75));
#1278=CARTESIAN_POINT('',(-16.4,0.,-18.75));
#1279=CARTESIAN_POINT('',(-4.69999999999998,0.,-18.75));
#1280=CARTESIAN_POINT('',(-12.9567120093928,0.,-18.75));
#1281=CARTESIAN_POINT('',(-10.,0.,-18.2358399952575));
#1282=CARTESIAN_POINT('',(-13.,0.,-18.2358399952575));
#1283=CARTESIAN_POINT('',(-13.,0.,-18.7499999999999));
#1284=CARTESIAN_POINT('',(-13.,0.,-16.5605741362424));
#1285=CARTESIAN_POINT('',(-13.,0.,-16.5605741362424));
#1286=CARTESIAN_POINT('',(-13.,0.,-15.5806415228359));
#1287=CARTESIAN_POINT('',(-12.6903121191262,0.,-14.5787485334098));
#1288=CARTESIAN_POINT('',(-11.9545453676451,0.,-13.9245000260466));
#1289=CARTESIAN_POINT('',(-11.9545453676451,0.,-13.9245000260466));
#1290=CARTESIAN_POINT('',(13.9,0.,-13.9245000260466));
#1291=CARTESIAN_POINT('',(-16.4,68.995,-10.75));
#1292=CARTESIAN_POINT('',(-27.4,137.99,-10.75));
#1293=CARTESIAN_POINT('',(-27.4,134.99,-10.75));
#1294=CARTESIAN_POINT('',(-27.4,3.,-10.75));
#1295=CARTESIAN_POINT('',(-16.4,134.99,-10.75));
#1296=CARTESIAN_POINT('',(-16.4,3.,-10.75));
#1297=CARTESIAN_POINT('',(-27.4,68.995,10.75));
#1298=CARTESIAN_POINT('',(-27.4,137.99,10.75));
#1299=CARTESIAN_POINT('',(-27.4,134.99,10.75));
#1300=CARTESIAN_POINT('',(-27.4,3.,10.75));
#1301=CARTESIAN_POINT('',(-27.4,134.99,-10.75));
#1302=CARTESIAN_POINT('',(-27.4,3.,10.75));
#1303=CARTESIAN_POINT('',(-16.4,68.995,10.75));
#1304=CARTESIAN_POINT('',(-16.4,134.99,10.75));
#1305=CARTESIAN_POINT('',(-16.4,3.,10.75));
#1306=CARTESIAN_POINT('',(-4.69999999999998,134.99,18.75));
#1307=CARTESIAN_POINT('',(-16.4,134.99,18.75));
#1308=CARTESIAN_POINT('',(-16.4,134.99,10.75));
#1309=CARTESIAN_POINT('',(-24.4,134.99,10.75));
#1310=CARTESIAN_POINT('',(-4.69999999999998,134.99,-18.75));
#1311=CARTESIAN_POINT('',(-16.4,134.99,-18.75));
#1312=CARTESIAN_POINT('',(-24.4,134.99,4.01362630762293E-14));
#1313=CARTESIAN_POINT('',(-24.4,134.99,-10.75));
#1314=CARTESIAN_POINT('',(-16.4,134.99,-10.75));
#1315=CARTESIAN_POINT('',(-16.4,3.,18.75));
#1316=CARTESIAN_POINT('',(-16.4,3.,18.75));
#1317=CARTESIAN_POINT('',(-16.4,3.,10.75));
#1318=CARTESIAN_POINT('',(-24.4,3.,10.75));
#1319=CARTESIAN_POINT('',(-24.4,3.,10.75));
#1320=CARTESIAN_POINT('',(-24.4,3.,-10.75));
#1321=CARTESIAN_POINT('',(-16.4,3.,-10.75));
#1322=CARTESIAN_POINT('',(-16.4,3.,-18.75));
#1323=CARTESIAN_POINT('',(-16.4,3.,-18.75));
#1324=CARTESIAN_POINT('',(13.9,1.9538949947925,-21.5617013209229));
#1325=CARTESIAN_POINT('',(-10.,1.9538949947925,-21.5617013209229));
#1326=CARTESIAN_POINT('',(-11.6280262837817,0.947234225790031,-20.937727742712));
#1327=CARTESIAN_POINT('',(-11.4011516157173,1.13764593581036,-21.1163928634706));
#1328=CARTESIAN_POINT('',(-10.9370387237109,1.52241750541851,-21.3958815820994));
#1329=CARTESIAN_POINT('',(-10.3492871653097,1.95389499479245,-21.5617013209229));
#1330=CARTESIAN_POINT('',(-10.,1.95389499479244,-21.5617013209229));
#1331=CARTESIAN_POINT('',(-11.6280262837817,0.947234225790031,-20.937727742712));
#1332=CARTESIAN_POINT('',(-12.9567120093928,0.,-18.75));
#1333=CARTESIAN_POINT('',(-12.7972621808475,0.,-19.6900638286879));
#1334=CARTESIAN_POINT('',(-12.2434360065794,0.430732235150052,-20.453089006366));
#1335=CARTESIAN_POINT('',(-11.6280262837817,0.947234225790029,-20.937727742712));
#1336=CARTESIAN_POINT('',(13.9,-2.33862350809605,-16.0818115392253));
#1337=CARTESIAN_POINT('',(13.9,-2.29569839419076,-13.879749642237));
#1338=CARTESIAN_POINT('',(-11.6284621321151,-2.29569839419076,-13.8797496422369));
#1339=CARTESIAN_POINT('',(-11.6284621321151,-2.29569839419076,-13.8797496422369));
#1340=CARTESIAN_POINT('',(-11.1206546313687,-3.06127072220705,-13.8648262291268));
#1341=CARTESIAN_POINT('',(-10.5575386986784,-3.76434108213276,-14.2580555611792));
#1342=CARTESIAN_POINT('',(-10.,-4.16339599814278,-14.8484727685948));
#1343=CARTESIAN_POINT('',(-10.,-4.16339599814278,-14.8484727685948));
#1344=CARTESIAN_POINT('',(13.9,-4.16339599814278,-14.8484727685948));
#1345=CARTESIAN_POINT('',(13.9,-0.849363998789154,-17.0883816746131));
#1346=CARTESIAN_POINT('',(-10.,-0.849363998789154,-17.0883816746131));
#1347=CARTESIAN_POINT('',(-10.,-1.47689133068936,-21.0388511970519));
#1348=CARTESIAN_POINT('',(13.9,-1.47689133068936,-21.038851197052));
#1349=CARTESIAN_POINT('',(13.9,-1.47689133068936,-21.038851197052));
#1350=CARTESIAN_POINT('',(-10.,-1.47689133068936,-21.038851197052));
#1351=CARTESIAN_POINT('',(-10.,0.871903877294661,-21.4119544906427));
#1352=CARTESIAN_POINT('',(13.9,0.871903877294661,-21.4119544906427));
#1353=CARTESIAN_POINT('',(13.9,5.1547779175287,5.55000000000004));
#1354=CARTESIAN_POINT('',(-9.99999999999999,5.1547779175287,5.55000000000007));
#1355=CARTESIAN_POINT('',(13.9,0.,-13.9245000260466));
#1356=CARTESIAN_POINT('',(-11.9545453676451,0.,-13.9245000260466));
#1357=CARTESIAN_POINT('',(-12.1711393925551,-0.773595536773893,-13.9094202153573));
#1358=CARTESIAN_POINT('',(-12.0730572418588,-1.6254252834337,-13.892815373798));
#1359=CARTESIAN_POINT('',(-11.6284621321151,-2.29569839419078,-13.8797496422369));
#1360=CARTESIAN_POINT('',(-13.,-2.33862350809605,-16.0818115392253));
#1361=CARTESIAN_POINT('',(-13.,-2.6148090174135,-17.8204807280079));
#1362=CARTESIAN_POINT('',(-13.,-1.00624583176254,-18.0759990552231));
#1363=CARTESIAN_POINT('',(-13.,-0.849363998789154,-17.0883816746131));
#1364=CARTESIAN_POINT('',(-10.,-0.849363998789154,-17.0883816746131));
#1365=CARTESIAN_POINT('',(-10.,-1.0062458317642,-18.0759990552228));
#1366=CARTESIAN_POINT('',(-10.,-1.00624583176254,-18.0759990552231));
#1367=CARTESIAN_POINT('',(-10.,1.34254937622148,-18.4491023488138));
#1368=CARTESIAN_POINT('',(-9.99999999999999,5.1547779175287,5.55000000000007));
#1369=CARTESIAN_POINT('',(13.9,-0.752315025695879,-20.1414114004828));
#1370=CARTESIAN_POINT('',(-10.1,-0.752315025695879,-20.1414114004827));
#1371=CARTESIAN_POINT('',(13.9,-0.917460372251933,-19.6975313270642));
#1372=CARTESIAN_POINT('',(-10.1,-0.917460372251933,-19.6975313270641));
#1373=CARTESIAN_POINT('',(13.9,-1.00393933388068,-19.224554140975));
#1374=CARTESIAN_POINT('',(-10.1,-1.00393933388068,-19.2245541409749));
#1375=CARTESIAN_POINT('',(13.9,-1.00226322245822,-18.7499920064987));
#1376=CARTESIAN_POINT('',(-10.1,-1.00226322245822,-18.7499920064987));
#1377=CARTESIAN_POINT('',(-10.1,-0.752315025695879,-20.1414114004827));
#1378=CARTESIAN_POINT('',(-10.1,-0.917460372251933,-19.6975313270641));
#1379=CARTESIAN_POINT('',(-10.1,-1.00393933388068,-19.224554140975));
#1380=CARTESIAN_POINT('',(-10.1,-1.00226322245822,-18.7499920064987));
#1381=CARTESIAN_POINT('',(-10.1,-1.00226322245822,-18.7499920064987));
#1382=CARTESIAN_POINT('',(-10.1,-0.752315025695879,-20.1414114004827));
#1383=CARTESIAN_POINT('',(13.9,-0.752315025695879,-20.1414114004828));
#1384=CARTESIAN_POINT('',(13.9,-1.00226322245822,-18.7499920064987));
#1385=CARTESIAN_POINT('',(13.9,-1.00226322245822,-18.7499920064987));
#1386=CARTESIAN_POINT('',(-10.1,-1.00226322245822,-18.7499920064987));
#1387=CARTESIAN_POINT('',(13.9,-0.997736777541836,-17.4684069446477));
#1388=CARTESIAN_POINT('',(-10.1,-0.997736777541836,-17.4684069446477));
#1389=CARTESIAN_POINT('',(13.9,-1.,-16.1867979022931));
#1390=CARTESIAN_POINT('',(-10.1,-1.,-16.186797902293));
#1391=CARTESIAN_POINT('',(13.9,-0.999999999999612,-14.9051968534401));
#1392=CARTESIAN_POINT('',(-10.1,-0.999999999999612,-14.9051968534401));
#1393=CARTESIAN_POINT('',(-10.1,-1.00226322245822,-18.7499920064987));
#1394=CARTESIAN_POINT('',(-10.1,-1.00000000000003,-18.1091994755732));
#1395=CARTESIAN_POINT('',(-10.1,-1.00000000000001,-16.8275984267197));
#1396=CARTESIAN_POINT('',(-10.1,-0.999999999999807,-15.5459973778666));
#1397=CARTESIAN_POINT('',(-10.1,-0.999999999999612,-14.9051968534401));
#1398=CARTESIAN_POINT('',(-10.1,-0.999999999999612,-14.9051968534401));
#1399=CARTESIAN_POINT('',(13.9,-0.999999999999612,-14.9051968534401));
#1400=CARTESIAN_POINT('',(13.9,-0.999999999999612,-14.9051968534401));
#1401=CARTESIAN_POINT('',(-10.1,-0.999999999999612,-14.9051968534401));
#1402=CARTESIAN_POINT('',(13.9,-1.43839594588166,-14.8966511372924));
#1403=CARTESIAN_POINT('',(-10.1,-1.43839594588166,-14.8966511372923));
#1404=CARTESIAN_POINT('',(13.9,-1.87679189176412,-14.8881054211441));
#1405=CARTESIAN_POINT('',(-10.1,-1.87679189176412,-14.888105421144));
#1406=CARTESIAN_POINT('',(13.9,-2.31513642234546,-14.8774454720137));
#1407=CARTESIAN_POINT('',(-10.1,-2.31513642234546,-14.8774454720137));
#1408=CARTESIAN_POINT('',(-10.1,-0.999999999999612,-14.9051968534401));
#1409=CARTESIAN_POINT('',(-10.1,-1.43839594588166,-14.8966511372923));
#1410=CARTESIAN_POINT('',(-10.1,-1.87679189176412,-14.888105421144));
#1411=CARTESIAN_POINT('',(-10.1,-2.31513642234546,-14.8774454720137));
#1412=CARTESIAN_POINT('',(-10.1,-2.31513642234546,-14.8774454720137));
#1413=CARTESIAN_POINT('',(13.9,-2.31513642234546,-14.8774454720137));
#1414=CARTESIAN_POINT('',(13.9,-2.31513642234546,-14.8774454720137));
#1415=CARTESIAN_POINT('',(-10.1,-2.31513642234546,-14.8774454720137));
#1416=CARTESIAN_POINT('',(13.9,-2.71519741394416,-14.8677165270355));
#1417=CARTESIAN_POINT('',(-10.1,-2.71519741394416,-14.8677165270355));
#1418=CARTESIAN_POINT('',(13.9,-3.11199342278652,-15.0756658935074));
#1419=CARTESIAN_POINT('',(-10.1,-3.11199342278652,-15.0756658935074));
#1420=CARTESIAN_POINT('',(13.9,-3.3374358378639,-15.4067149315969));
#1421=CARTESIAN_POINT('',(-10.1,-3.3374358378639,-15.4067149315969));
#1422=CARTESIAN_POINT('',(-10.1,-2.31513642234546,-14.8774454720137));
#1423=CARTESIAN_POINT('',(-10.1,-2.51516691814481,-14.8725809995246));
#1424=CARTESIAN_POINT('',(-10.1,-2.9148693381451,-14.9708236785202));
#1425=CARTESIAN_POINT('',(-10.1,-3.22471463032521,-15.2411904125521));
#1426=CARTESIAN_POINT('',(-10.1,-3.3374358378639,-15.4067149315969));
#1427=CARTESIAN_POINT('',(-10.1,-3.3374358378639,-15.4067149315969));
#1428=CARTESIAN_POINT('',(13.9,-3.3374358378639,-15.4067149315969));
#1429=CARTESIAN_POINT('',(13.9,-3.3374358378639,-15.4067149315969));
#1430=CARTESIAN_POINT('',(-10.1,-3.3374358378639,-15.4067149315969));
#1431=CARTESIAN_POINT('',(13.9,-3.90431424694805,-16.2391428133538));
#1432=CARTESIAN_POINT('',(-10.1,-3.90431424694805,-16.2391428133538));
#1433=CARTESIAN_POINT('',(13.9,-4.09807444600351,-18.4933383436991));
#1434=CARTESIAN_POINT('',(-10.1,-4.09807444600351,-18.4933383436991));
#1435=CARTESIAN_POINT('',(13.9,-2.3177834743519,-19.9078681968484));
#1436=CARTESIAN_POINT('',(-10.1,-2.3177834743519,-19.9078681968484));
#1437=CARTESIAN_POINT('',(13.9,-1.32035452470966,-20.0535953523731));
#1438=CARTESIAN_POINT('',(-10.1,-1.32035452470966,-20.0535953523731));
#1439=CARTESIAN_POINT('',(-10.1,-3.3374358378639,-15.4067149315969));
#1440=CARTESIAN_POINT('',(-10.1,-3.47906139055935,-15.6146837957196));
#1441=CARTESIAN_POINT('',(-10.1,-3.93442698214339,-16.5157576474299));
#1442=CARTESIAN_POINT('',(-10.1,-3.88810755020511,-18.1316675886472));
#1443=CARTESIAN_POINT('',(-10.1,-2.76300398189995,-19.555831028175));
#1444=CARTESIAN_POINT('',(-10.1,-1.81939996210718,-19.9806834200539));
#1445=CARTESIAN_POINT('',(-10.1,-1.32035452470966,-20.0535953523731));
#1446=CARTESIAN_POINT('',(-10.1,-1.32035452470966,-20.0535953523731));
#1447=CARTESIAN_POINT('',(13.9,-1.32035452470966,-20.0535953523731));
#1448=CARTESIAN_POINT('',(13.9,-1.32035452470966,-20.0535953523731));
#1449=CARTESIAN_POINT('',(-10.1,-1.32035452470966,-20.0535953523731));
#1450=CARTESIAN_POINT('',(13.9,-1.13077800704152,-20.0812930111226));
#1451=CARTESIAN_POINT('',(-10.1,-1.13077800704152,-20.0812930111226));
#1452=CARTESIAN_POINT('',(13.9,-0.941546516369282,-20.1113522058029));
#1453=CARTESIAN_POINT('',(-10.1,-0.941546516369282,-20.1113522058029));
#1454=CARTESIAN_POINT('',(13.9,-0.752315025695879,-20.1414114004828));
#1455=CARTESIAN_POINT('',(-10.1,-0.752315025695879,-20.1414114004827));
#1456=CARTESIAN_POINT('',(-10.1,-1.32035452470966,-20.0535953523731));
#1457=CARTESIAN_POINT('',(-10.1,-1.13077800704152,-20.0812930111226));
#1458=CARTESIAN_POINT('',(-10.1,-0.941546516369282,-20.1113522058029));
#1459=CARTESIAN_POINT('',(-10.1,-0.752315025695879,-20.1414114004827));
#1460=CARTESIAN_POINT('',(-10.1,-0.939847170818991,-19.4572074763873));
#1461=CARTESIAN_POINT('',(9.27931685738536,0.,5.93614828353199));
#1462=CARTESIAN_POINT('',(9.27931685738534,-1.5,-5.61888085399062));
#1463=CARTESIAN_POINT('',(9.27931685738536,-1.5,5.93614828353199));
#1464=CARTESIAN_POINT('',(9.27931685738534,-1.5,-5.61888085399062));
#1465=CARTESIAN_POINT('',(9.27931685738536,0.,5.93614828353199));
#1466=CARTESIAN_POINT('',(9.27931685738534,0.,-5.61888085399062));
#1467=CARTESIAN_POINT('',(11.2793168573853,0.,-5.61888085399063));
#1468=CARTESIAN_POINT('',(11.2793168573853,-1.5,-5.61888085399063));
#1469=CARTESIAN_POINT('',(11.2793168573853,-1.5,-7.61888085399063));
#1470=CARTESIAN_POINT('',(11.2793168573853,0.,-7.61888085399063));
#1471=CARTESIAN_POINT('',(11.2793168573853,0.,-7.61888085399063));
#1472=CARTESIAN_POINT('',(11.2793168573853,-1.5,-7.61888085399063));
#1473=CARTESIAN_POINT('',(14.3793168573853,-1.5,-7.61888085399063));
#1474=CARTESIAN_POINT('',(14.3793168573853,0.,-7.61888085399063));
#1475=CARTESIAN_POINT('',(14.3793168573853,0.,-5.61888085399063));
#1476=CARTESIAN_POINT('',(14.3793168573853,-1.5,-5.61888085399063));
#1477=CARTESIAN_POINT('',(16.3793168573853,-1.5,-5.61888085399064));
#1478=CARTESIAN_POINT('',(16.3793168573853,0.,-5.61888085399064));
#1479=CARTESIAN_POINT('',(16.3793168573853,0.,-5.61888085399063));
#1480=CARTESIAN_POINT('',(16.3793168573853,-1.5,-5.61888085399064));
#1481=CARTESIAN_POINT('',(16.3793168573854,-1.5,5.93614828353197));
#1482=CARTESIAN_POINT('',(16.3793168573854,0.,5.93614828353197));
#1483=CARTESIAN_POINT('',(14.3793168573854,0.,5.93614828353198));
#1484=CARTESIAN_POINT('',(14.3793168573854,-1.5,5.93614828353198));
#1485=CARTESIAN_POINT('',(14.3793168573854,-1.5,7.93614828353197));
#1486=CARTESIAN_POINT('',(14.3793168573854,0.,7.93614828353197));
#1487=CARTESIAN_POINT('',(14.3793168573854,0.,7.93614828353198));
#1488=CARTESIAN_POINT('',(11.2793168573854,-1.5,7.93614828353198));
#1489=CARTESIAN_POINT('',(11.2793168573854,-1.5,7.93614828353198));
#1490=CARTESIAN_POINT('',(11.2793168573854,0.,7.93614828353198));
#1491=CARTESIAN_POINT('',(11.2793168573854,0.,5.93614828353198));
#1492=CARTESIAN_POINT('',(11.2793168573854,-1.5,5.93614828353198));
#1493=CARTESIAN_POINT('',(11.2793168573853,-1.5,-5.61888085399063));
#1494=CARTESIAN_POINT('',(-5.19999980926514,66.5703201293945,229.46484375));
#1495=CARTESIAN_POINT('',(0.,0.,0.));
#1496=CARTESIAN_POINT('',(-57.2120110979886,-57.2120110979886,229.46484375));
#1497=CARTESIAN_POINT('',(-5.19999980926514,-69.880744934082,4.2632564145606E-14));
#1498=CARTESIAN_POINT('',(0.,0.,0.));
#1499=CARTESIAN_POINT('',(-17.4232265360014,-17.4232265360014,69.880744934082));
#1500=CARTESIAN_POINT('',(146.382751464844,66.5703201293945,4.61852778244065E-14));
#1501=CARTESIAN_POINT('',(0.,0.,0.));
#1502=CARTESIAN_POINT('',(-36.4973189988314,-36.4973189988314,146.382751464844));
#1503=CARTESIAN_POINT('',(-5.19999980926514,69.880744934082,4.2632564145606E-14));
#1504=CARTESIAN_POINT('',(0.,0.,0.));
#1505=CARTESIAN_POINT('',(-17.4232265360014,-17.4232265360014,69.880744934082));
#1506=CARTESIAN_POINT('',(-5.19999980926514,66.5703201293945,-229.46484375));
#1507=CARTESIAN_POINT('',(0.,0.,0.));
#1508=CARTESIAN_POINT('',(-57.2120110979886,-57.2120110979886,229.46484375));
#1509=CARTESIAN_POINT('',(-146.382751464844,66.5703201293945,4.61852778244065E-14));
#1510=CARTESIAN_POINT('',(0.,0.,0.));
#1511=CARTESIAN_POINT('',(-36.4973189988314,-36.4973189988314,146.382751464844));
#1512=CARTESIAN_POINT('',(122.562750498454,-61.1924330393473,127.762749354045));
#1513=CARTESIAN_POINT('',(0.,0.,0.));
#1514=CARTESIAN_POINT('',(-44.8428782135394,-44.8428782135394,179.854961311295));
#1515=CARTESIAN_POINT('',(127.749471313747,-41.6294531334917,69.4305975683961));
#1516=CARTESIAN_POINT('',(0.,0.,0.));
#1517=CARTESIAN_POINT('',(-35.4685270969335,-35.4685270969335,142.256492511703));
#1518=MECHANICAL_DESIGN_GEOMETRIC_PRESENTATION_REPRESENTATION('',(#818),
#1519);
#1519=(
GEOMETRIC_REPRESENTATION_CONTEXT(3)
GLOBAL_UNCERTAINTY_ASSIGNED_CONTEXT((#1520))
GLOBAL_UNIT_ASSIGNED_CONTEXT((#1523,#1522,#1521))
REPRESENTATION_CONTEXT('OOM-E01-Exported','TOP_LEVEL_ASSEMBLY_PART')
);
#1520=UNCERTAINTY_MEASURE_WITH_UNIT(LENGTH_MEASURE(0.005),#1523,
'DISTANCE_ACCURACY_VALUE','Maximum Tolerance applied to model');
#1521=(
NAMED_UNIT(*)
SI_UNIT($,.STERADIAN.)
SOLID_ANGLE_UNIT()
);
#1522=(
NAMED_UNIT(*)
PLANE_ANGLE_UNIT()
SI_UNIT($,.RADIAN.)
);
#1523=(
LENGTH_UNIT()
NAMED_UNIT(*)
SI_UNIT(.MILLI.,.METRE.)
);
#1524=PRODUCT_DEFINITION_SHAPE('','',#1525);
#1525=PRODUCT_DEFINITION('','',#1527,#1526);
#1526=PRODUCT_DEFINITION_CONTEXT('',#1533,'design');
#1527=PRODUCT_DEFINITION_FORMATION_WITH_SPECIFIED_SOURCE('','',#1529,
 .NOT_KNOWN.);
#1528=PRODUCT_RELATED_PRODUCT_CATEGORY('','',(#1529));
#1529=PRODUCT('OOM-E01-Exported','OOM-E01-Exported','OOM-E01-Exported',
(#1531));
#1530=PRODUCT_CATEGORY('','');
#1531=PRODUCT_CONTEXT('',#1533,'mechanical');
#1532=APPLICATION_PROTOCOL_DEFINITION('international standard',
'ap242_managed_model_based_3d_engineering',2020,#1533);
#1533=APPLICATION_CONTEXT('managed model based 3d engineering');
ENDSEC;
END-ISO-10303-21;
